  0
SECTION
  2
HEADER
  9
$ACADVER
  1
AC1009
  9
$ANGDIR
  70
0
  9
$CECOLOR
  62
256
  9
$CELTYPE
  6
BYLAYER
  9
$EXTMIN
  10
-3.325
  20
-1.0491
  9
$EXTMAX
  10
0.15
  20
2.75
  9
$FILLMODE
  70
1
  9
$MIRRTEXT
  70
0
  0
ENDSEC
  0
SECTION
  2
TABLES
  0
TABLE
  2
LAYER
  70
7
  0
LAYER
  2
Shapes
  70
64
  62
252
  6
CONTINUOUS
  0
LAYER
  2
Element
  70
64
  62
253
  6
CONTINUOUS
  0
LAYER
  2
Bus
  70
64
  62
180
  6
CONTINUOUS
  0
LAYER
  2
Net
  70
64
  62
50
  6
CONTINUOUS
  0
LAYER
  2
Pin
  70
64
  62
50
  6
CONTINUOUS
  0
LAYER
  2
Tables
  70
64
  62
253
  6
CONTINUOUS
  0
LAYER
  2
Titles
  70
64
  62
253
  6
CONTINUOUS
  0
ENDTAB
  0
ENDSEC
  0
SECTION
  2
ENTITIES
  0
TEXT
  8
Shapes
  10
-3.0239
  20
2.7139
  40
0.0365
  41
0.7
  1
+3.3V
  50
0.0
  72
1
  73
2
  7
STANDARD
  71
0
  11
-3.0239
  21
2.7139
  0
TEXT
  8
Shapes
  10
-3.0203
  20
0.6492
  40
0.0365
  41
0.7
  1
+3.3V
  50
0.0
  72
1
  73
2
  7
STANDARD
  71
0
  11
-3.0203
  21
0.6492
  0
POLYLINE
  8
Element
  6
CONTINUOUS
  66
1
  70
0
  40
0.0098
  41
0.0098
  0
VERTEX
  8
Element
  10
-3.25
  20
1.35
  42
0
  0
VERTEX
  8
Element
  10
-3.25
  20
1.4375
  42
0
  0
SEQEND
  0
POLYLINE
  8
Element
  6
CONTINUOUS
  66
1
  70
0
  40
0.0049
  41
0.0049
  0
VERTEX
  8
Element
  10
-3.2525
  20
1.35
  42
1
  0
VERTEX
  8
Element
  10
-3.2475
  20
1.35
  42
1
  0
VERTEX
  8
Element
  10
-3.2525
  20
1.35
  42
1
  0
SEQEND
  0
POLYLINE
  8
Element
  6
CONTINUOUS
  66
1
  70
0
  40
0.0049
  41
0.0049
  0
VERTEX
  8
Element
  10
-3.2525
  20
1.4375
  42
1
  0
VERTEX
  8
Element
  10
-3.2475
  20
1.4375
  42
1
  0
VERTEX
  8
Element
  10
-3.2525
  20
1.4375
  42
1
  0
SEQEND
  0
POLYLINE
  8
Element
  6
CONTINUOUS
  66
1
  70
0
  40
0.0098
  41
0.0098
  0
VERTEX
  8
Element
  10
-3.25
  20
1.4375
  42
0
  0
VERTEX
  8
Element
  10
-3.2875
  20
1.4375
  42
0
  0
SEQEND
  0
POLYLINE
  8
Element
  6
CONTINUOUS
  66
1
  70
0
  40
0.0049
  41
0.0049
  0
VERTEX
  8
Element
  10
-3.2525
  20
1.4375
  42
1
  0
VERTEX
  8
Element
  10
-3.2475
  20
1.4375
  42
1
  0
VERTEX
  8
Element
  10
-3.2525
  20
1.4375
  42
1
  0
SEQEND
  0
POLYLINE
  8
Element
  6
CONTINUOUS
  66
1
  70
0
  40
0.0049
  41
0.0049
  0
VERTEX
  8
Element
  10
-3.29
  20
1.4375
  42
1
  0
VERTEX
  8
Element
  10
-3.285
  20
1.4375
  42
1
  0
VERTEX
  8
Element
  10
-3.29
  20
1.4375
  42
1
  0
SEQEND
  0
POLYLINE
  8
Element
  6
CONTINUOUS
  66
1
  70
0
  40
0.0098
  41
0.0098
  0
VERTEX
  8
Element
  10
-3.2875
  20
1.4375
  42
0
  0
VERTEX
  8
Element
  10
-3.25
  20
1.5125
  42
0
  0
SEQEND
  0
POLYLINE
  8
Element
  6
CONTINUOUS
  66
1
  70
0
  40
0.0049
  41
0.0049
  0
VERTEX
  8
Element
  10
-3.29
  20
1.4375
  42
1
  0
VERTEX
  8
Element
  10
-3.285
  20
1.4375
  42
1
  0
VERTEX
  8
Element
  10
-3.29
  20
1.4375
  42
1
  0
SEQEND
  0
POLYLINE
  8
Element
  6
CONTINUOUS
  66
1
  70
0
  40
0.0049
  41
0.0049
  0
VERTEX
  8
Element
  10
-3.2525
  20
1.5125
  42
1
  0
VERTEX
  8
Element
  10
-3.2475
  20
1.5125
  42
1
  0
VERTEX
  8
Element
  10
-3.2525
  20
1.5125
  42
1
  0
SEQEND
  0
POLYLINE
  8
Element
  6
CONTINUOUS
  66
1
  70
0
  40
0.0098
  41
0.0098
  0
VERTEX
  8
Element
  10
-3.2125
  20
1.4375
  42
0
  0
VERTEX
  8
Element
  10
-3.25
  20
1.4375
  42
0
  0
SEQEND
  0
POLYLINE
  8
Element
  6
CONTINUOUS
  66
1
  70
0
  40
0.0049
  41
0.0049
  0
VERTEX
  8
Element
  10
-3.215
  20
1.4375
  42
1
  0
VERTEX
  8
Element
  10
-3.21
  20
1.4375
  42
1
  0
VERTEX
  8
Element
  10
-3.215
  20
1.4375
  42
1
  0
SEQEND
  0
POLYLINE
  8
Element
  6
CONTINUOUS
  66
1
  70
0
  40
0.0049
  41
0.0049
  0
VERTEX
  8
Element
  10
-3.2525
  20
1.4375
  42
1
  0
VERTEX
  8
Element
  10
-3.2475
  20
1.4375
  42
1
  0
VERTEX
  8
Element
  10
-3.2525
  20
1.4375
  42
1
  0
SEQEND
  0
POLYLINE
  8
Element
  6
CONTINUOUS
  66
1
  70
0
  40
0.0098
  41
0.0098
  0
VERTEX
  8
Element
  10
-3.2125
  20
1.4375
  42
0
  0
VERTEX
  8
Element
  10
-3.25
  20
1.5125
  42
0
  0
SEQEND
  0
POLYLINE
  8
Element
  6
CONTINUOUS
  66
1
  70
0
  40
0.0049
  41
0.0049
  0
VERTEX
  8
Element
  10
-3.215
  20
1.4375
  42
1
  0
VERTEX
  8
Element
  10
-3.21
  20
1.4375
  42
1
  0
VERTEX
  8
Element
  10
-3.215
  20
1.4375
  42
1
  0
SEQEND
  0
POLYLINE
  8
Element
  6
CONTINUOUS
  66
1
  70
0
  40
0.0049
  41
0.0049
  0
VERTEX
  8
Element
  10
-3.2525
  20
1.5125
  42
1
  0
VERTEX
  8
Element
  10
-3.2475
  20
1.5125
  42
1
  0
VERTEX
  8
Element
  10
-3.2525
  20
1.5125
  42
1
  0
SEQEND
  0
POLYLINE
  8
Element
  6
CONTINUOUS
  66
1
  70
0
  40
0.0098
  41
0.0098
  0
VERTEX
  8
Element
  10
-3.2875
  20
1.5125
  42
0
  0
VERTEX
  8
Element
  10
-3.2125
  20
1.5125
  42
0
  0
SEQEND
  0
POLYLINE
  8
Element
  6
CONTINUOUS
  66
1
  70
0
  40
0.0049
  41
0.0049
  0
VERTEX
  8
Element
  10
-3.29
  20
1.5125
  42
1
  0
VERTEX
  8
Element
  10
-3.285
  20
1.5125
  42
1
  0
VERTEX
  8
Element
  10
-3.29
  20
1.5125
  42
1
  0
SEQEND
  0
POLYLINE
  8
Element
  6
CONTINUOUS
  66
1
  70
0
  40
0.0049
  41
0.0049
  0
VERTEX
  8
Element
  10
-3.215
  20
1.5125
  42
1
  0
VERTEX
  8
Element
  10
-3.21
  20
1.5125
  42
1
  0
VERTEX
  8
Element
  10
-3.215
  20
1.5125
  42
1
  0
SEQEND
  0
POLYLINE
  8
Element
  6
CONTINUOUS
  66
1
  70
0
  40
0.0098
  41
0.0098
  0
VERTEX
  8
Element
  10
-3.25
  20
1.5125
  42
0
  0
VERTEX
  8
Element
  10
-3.25
  20
1.5875
  42
0
  0
SEQEND
  0
POLYLINE
  8
Element
  6
CONTINUOUS
  66
1
  70
0
  40
0.0049
  41
0.0049
  0
VERTEX
  8
Element
  10
-3.2525
  20
1.5125
  42
1
  0
VERTEX
  8
Element
  10
-3.2475
  20
1.5125
  42
1
  0
VERTEX
  8
Element
  10
-3.2525
  20
1.5125
  42
1
  0
SEQEND
  0
POLYLINE
  8
Element
  6
CONTINUOUS
  66
1
  70
0
  40
0.0049
  41
0.0049
  0
VERTEX
  8
Element
  10
-3.2525
  20
1.5875
  42
1
  0
VERTEX
  8
Element
  10
-3.2475
  20
1.5875
  42
1
  0
VERTEX
  8
Element
  10
-3.2525
  20
1.5875
  42
1
  0
SEQEND
  0
POLYLINE
  8
Element
  6
CONTINUOUS
  66
1
  70
0
  40
0.0098
  41
0.0098
  0
VERTEX
  8
Element
  10
-3.25
  20
2.05
  42
0
  0
VERTEX
  8
Element
  10
-3.25
  20
2.1375
  42
0
  0
SEQEND
  0
POLYLINE
  8
Element
  6
CONTINUOUS
  66
1
  70
0
  40
0.0049
  41
0.0049
  0
VERTEX
  8
Element
  10
-3.2525
  20
2.05
  42
1
  0
VERTEX
  8
Element
  10
-3.2475
  20
2.05
  42
1
  0
VERTEX
  8
Element
  10
-3.2525
  20
2.05
  42
1
  0
SEQEND
  0
POLYLINE
  8
Element
  6
CONTINUOUS
  66
1
  70
0
  40
0.0049
  41
0.0049
  0
VERTEX
  8
Element
  10
-3.2525
  20
2.1375
  42
1
  0
VERTEX
  8
Element
  10
-3.2475
  20
2.1375
  42
1
  0
VERTEX
  8
Element
  10
-3.2525
  20
2.1375
  42
1
  0
SEQEND
  0
POLYLINE
  8
Element
  6
CONTINUOUS
  66
1
  70
0
  40
0.0098
  41
0.0098
  0
VERTEX
  8
Element
  10
-3.25
  20
2.1375
  42
0
  0
VERTEX
  8
Element
  10
-3.2875
  20
2.1375
  42
0
  0
SEQEND
  0
POLYLINE
  8
Element
  6
CONTINUOUS
  66
1
  70
0
  40
0.0049
  41
0.0049
  0
VERTEX
  8
Element
  10
-3.2525
  20
2.1375
  42
1
  0
VERTEX
  8
Element
  10
-3.2475
  20
2.1375
  42
1
  0
VERTEX
  8
Element
  10
-3.2525
  20
2.1375
  42
1
  0
SEQEND
  0
POLYLINE
  8
Element
  6
CONTINUOUS
  66
1
  70
0
  40
0.0049
  41
0.0049
  0
VERTEX
  8
Element
  10
-3.29
  20
2.1375
  42
1
  0
VERTEX
  8
Element
  10
-3.285
  20
2.1375
  42
1
  0
VERTEX
  8
Element
  10
-3.29
  20
2.1375
  42
1
  0
SEQEND
  0
POLYLINE
  8
Element
  6
CONTINUOUS
  66
1
  70
0
  40
0.0098
  41
0.0098
  0
VERTEX
  8
Element
  10
-3.2875
  20
2.1375
  42
0
  0
VERTEX
  8
Element
  10
-3.25
  20
2.2125
  42
0
  0
SEQEND
  0
POLYLINE
  8
Element
  6
CONTINUOUS
  66
1
  70
0
  40
0.0049
  41
0.0049
  0
VERTEX
  8
Element
  10
-3.29
  20
2.1375
  42
1
  0
VERTEX
  8
Element
  10
-3.285
  20
2.1375
  42
1
  0
VERTEX
  8
Element
  10
-3.29
  20
2.1375
  42
1
  0
SEQEND
  0
POLYLINE
  8
Element
  6
CONTINUOUS
  66
1
  70
0
  40
0.0049
  41
0.0049
  0
VERTEX
  8
Element
  10
-3.2525
  20
2.2125
  42
1
  0
VERTEX
  8
Element
  10
-3.2475
  20
2.2125
  42
1
  0
VERTEX
  8
Element
  10
-3.2525
  20
2.2125
  42
1
  0
SEQEND
  0
POLYLINE
  8
Element
  6
CONTINUOUS
  66
1
  70
0
  40
0.0098
  41
0.0098
  0
VERTEX
  8
Element
  10
-3.2125
  20
2.1375
  42
0
  0
VERTEX
  8
Element
  10
-3.25
  20
2.1375
  42
0
  0
SEQEND
  0
POLYLINE
  8
Element
  6
CONTINUOUS
  66
1
  70
0
  40
0.0049
  41
0.0049
  0
VERTEX
  8
Element
  10
-3.215
  20
2.1375
  42
1
  0
VERTEX
  8
Element
  10
-3.21
  20
2.1375
  42
1
  0
VERTEX
  8
Element
  10
-3.215
  20
2.1375
  42
1
  0
SEQEND
  0
POLYLINE
  8
Element
  6
CONTINUOUS
  66
1
  70
0
  40
0.0049
  41
0.0049
  0
VERTEX
  8
Element
  10
-3.2525
  20
2.1375
  42
1
  0
VERTEX
  8
Element
  10
-3.2475
  20
2.1375
  42
1
  0
VERTEX
  8
Element
  10
-3.2525
  20
2.1375
  42
1
  0
SEQEND
  0
POLYLINE
  8
Element
  6
CONTINUOUS
  66
1
  70
0
  40
0.0098
  41
0.0098
  0
VERTEX
  8
Element
  10
-3.2125
  20
2.1375
  42
0
  0
VERTEX
  8
Element
  10
-3.25
  20
2.2125
  42
0
  0
SEQEND
  0
POLYLINE
  8
Element
  6
CONTINUOUS
  66
1
  70
0
  40
0.0049
  41
0.0049
  0
VERTEX
  8
Element
  10
-3.215
  20
2.1375
  42
1
  0
VERTEX
  8
Element
  10
-3.21
  20
2.1375
  42
1
  0
VERTEX
  8
Element
  10
-3.215
  20
2.1375
  42
1
  0
SEQEND
  0
POLYLINE
  8
Element
  6
CONTINUOUS
  66
1
  70
0
  40
0.0049
  41
0.0049
  0
VERTEX
  8
Element
  10
-3.2525
  20
2.2125
  42
1
  0
VERTEX
  8
Element
  10
-3.2475
  20
2.2125
  42
1
  0
VERTEX
  8
Element
  10
-3.2525
  20
2.2125
  42
1
  0
SEQEND
  0
POLYLINE
  8
Element
  6
CONTINUOUS
  66
1
  70
0
  40
0.0098
  41
0.0098
  0
VERTEX
  8
Element
  10
-3.2875
  20
2.2125
  42
0
  0
VERTEX
  8
Element
  10
-3.2125
  20
2.2125
  42
0
  0
SEQEND
  0
POLYLINE
  8
Element
  6
CONTINUOUS
  66
1
  70
0
  40
0.0049
  41
0.0049
  0
VERTEX
  8
Element
  10
-3.29
  20
2.2125
  42
1
  0
VERTEX
  8
Element
  10
-3.285
  20
2.2125
  42
1
  0
VERTEX
  8
Element
  10
-3.29
  20
2.2125
  42
1
  0
SEQEND
  0
POLYLINE
  8
Element
  6
CONTINUOUS
  66
1
  70
0
  40
0.0049
  41
0.0049
  0
VERTEX
  8
Element
  10
-3.215
  20
2.2125
  42
1
  0
VERTEX
  8
Element
  10
-3.21
  20
2.2125
  42
1
  0
VERTEX
  8
Element
  10
-3.215
  20
2.2125
  42
1
  0
SEQEND
  0
POLYLINE
  8
Element
  6
CONTINUOUS
  66
1
  70
0
  40
0.0098
  41
0.0098
  0
VERTEX
  8
Element
  10
-3.25
  20
2.2125
  42
0
  0
VERTEX
  8
Element
  10
-3.25
  20
2.2875
  42
0
  0
SEQEND
  0
POLYLINE
  8
Element
  6
CONTINUOUS
  66
1
  70
0
  40
0.0049
  41
0.0049
  0
VERTEX
  8
Element
  10
-3.2525
  20
2.2125
  42
1
  0
VERTEX
  8
Element
  10
-3.2475
  20
2.2125
  42
1
  0
VERTEX
  8
Element
  10
-3.2525
  20
2.2125
  42
1
  0
SEQEND
  0
POLYLINE
  8
Element
  6
CONTINUOUS
  66
1
  70
0
  40
0.0049
  41
0.0049
  0
VERTEX
  8
Element
  10
-3.2525
  20
2.2875
  42
1
  0
VERTEX
  8
Element
  10
-3.2475
  20
2.2875
  42
1
  0
VERTEX
  8
Element
  10
-3.2525
  20
2.2875
  42
1
  0
SEQEND
  0
POLYLINE
  8
Element
  6
CONTINUOUS
  66
1
  70
0
  40
0.0098
  41
0.0098
  0
VERTEX
  8
Element
  10
-3.25
  20
0.0
  42
0
  0
VERTEX
  8
Element
  10
-3.25
  20
0.0875
  42
0
  0
SEQEND
  0
POLYLINE
  8
Element
  6
CONTINUOUS
  66
1
  70
0
  40
0.0049
  41
0.0049
  0
VERTEX
  8
Element
  10
-3.2525
  20
0.0
  42
1
  0
VERTEX
  8
Element
  10
-3.2475
  20
0.0
  42
1
  0
VERTEX
  8
Element
  10
-3.2525
  20
0.0
  42
1
  0
SEQEND
  0
POLYLINE
  8
Element
  6
CONTINUOUS
  66
1
  70
0
  40
0.0049
  41
0.0049
  0
VERTEX
  8
Element
  10
-3.2525
  20
0.0875
  42
1
  0
VERTEX
  8
Element
  10
-3.2475
  20
0.0875
  42
1
  0
VERTEX
  8
Element
  10
-3.2525
  20
0.0875
  42
1
  0
SEQEND
  0
POLYLINE
  8
Element
  6
CONTINUOUS
  66
1
  70
0
  40
0.0098
  41
0.0098
  0
VERTEX
  8
Element
  10
-3.25
  20
0.0875
  42
0
  0
VERTEX
  8
Element
  10
-3.2875
  20
0.0875
  42
0
  0
SEQEND
  0
POLYLINE
  8
Element
  6
CONTINUOUS
  66
1
  70
0
  40
0.0049
  41
0.0049
  0
VERTEX
  8
Element
  10
-3.2525
  20
0.0875
  42
1
  0
VERTEX
  8
Element
  10
-3.2475
  20
0.0875
  42
1
  0
VERTEX
  8
Element
  10
-3.2525
  20
0.0875
  42
1
  0
SEQEND
  0
POLYLINE
  8
Element
  6
CONTINUOUS
  66
1
  70
0
  40
0.0049
  41
0.0049
  0
VERTEX
  8
Element
  10
-3.29
  20
0.0875
  42
1
  0
VERTEX
  8
Element
  10
-3.285
  20
0.0875
  42
1
  0
VERTEX
  8
Element
  10
-3.29
  20
0.0875
  42
1
  0
SEQEND
  0
POLYLINE
  8
Element
  6
CONTINUOUS
  66
1
  70
0
  40
0.0098
  41
0.0098
  0
VERTEX
  8
Element
  10
-3.2875
  20
0.0875
  42
0
  0
VERTEX
  8
Element
  10
-3.25
  20
0.1625
  42
0
  0
SEQEND
  0
POLYLINE
  8
Element
  6
CONTINUOUS
  66
1
  70
0
  40
0.0049
  41
0.0049
  0
VERTEX
  8
Element
  10
-3.29
  20
0.0875
  42
1
  0
VERTEX
  8
Element
  10
-3.285
  20
0.0875
  42
1
  0
VERTEX
  8
Element
  10
-3.29
  20
0.0875
  42
1
  0
SEQEND
  0
POLYLINE
  8
Element
  6
CONTINUOUS
  66
1
  70
0
  40
0.0049
  41
0.0049
  0
VERTEX
  8
Element
  10
-3.2525
  20
0.1625
  42
1
  0
VERTEX
  8
Element
  10
-3.2475
  20
0.1625
  42
1
  0
VERTEX
  8
Element
  10
-3.2525
  20
0.1625
  42
1
  0
SEQEND
  0
POLYLINE
  8
Element
  6
CONTINUOUS
  66
1
  70
0
  40
0.0098
  41
0.0098
  0
VERTEX
  8
Element
  10
-3.2125
  20
0.0875
  42
0
  0
VERTEX
  8
Element
  10
-3.25
  20
0.0875
  42
0
  0
SEQEND
  0
POLYLINE
  8
Element
  6
CONTINUOUS
  66
1
  70
0
  40
0.0049
  41
0.0049
  0
VERTEX
  8
Element
  10
-3.215
  20
0.0875
  42
1
  0
VERTEX
  8
Element
  10
-3.21
  20
0.0875
  42
1
  0
VERTEX
  8
Element
  10
-3.215
  20
0.0875
  42
1
  0
SEQEND
  0
POLYLINE
  8
Element
  6
CONTINUOUS
  66
1
  70
0
  40
0.0049
  41
0.0049
  0
VERTEX
  8
Element
  10
-3.2525
  20
0.0875
  42
1
  0
VERTEX
  8
Element
  10
-3.2475
  20
0.0875
  42
1
  0
VERTEX
  8
Element
  10
-3.2525
  20
0.0875
  42
1
  0
SEQEND
  0
POLYLINE
  8
Element
  6
CONTINUOUS
  66
1
  70
0
  40
0.0098
  41
0.0098
  0
VERTEX
  8
Element
  10
-3.2125
  20
0.0875
  42
0
  0
VERTEX
  8
Element
  10
-3.25
  20
0.1625
  42
0
  0
SEQEND
  0
POLYLINE
  8
Element
  6
CONTINUOUS
  66
1
  70
0
  40
0.0049
  41
0.0049
  0
VERTEX
  8
Element
  10
-3.215
  20
0.0875
  42
1
  0
VERTEX
  8
Element
  10
-3.21
  20
0.0875
  42
1
  0
VERTEX
  8
Element
  10
-3.215
  20
0.0875
  42
1
  0
SEQEND
  0
POLYLINE
  8
Element
  6
CONTINUOUS
  66
1
  70
0
  40
0.0049
  41
0.0049
  0
VERTEX
  8
Element
  10
-3.2525
  20
0.1625
  42
1
  0
VERTEX
  8
Element
  10
-3.2475
  20
0.1625
  42
1
  0
VERTEX
  8
Element
  10
-3.2525
  20
0.1625
  42
1
  0
SEQEND
  0
POLYLINE
  8
Element
  6
CONTINUOUS
  66
1
  70
0
  40
0.0098
  41
0.0098
  0
VERTEX
  8
Element
  10
-3.2875
  20
0.1625
  42
0
  0
VERTEX
  8
Element
  10
-3.2125
  20
0.1625
  42
0
  0
SEQEND
  0
POLYLINE
  8
Element
  6
CONTINUOUS
  66
1
  70
0
  40
0.0049
  41
0.0049
  0
VERTEX
  8
Element
  10
-3.29
  20
0.1625
  42
1
  0
VERTEX
  8
Element
  10
-3.285
  20
0.1625
  42
1
  0
VERTEX
  8
Element
  10
-3.29
  20
0.1625
  42
1
  0
SEQEND
  0
POLYLINE
  8
Element
  6
CONTINUOUS
  66
1
  70
0
  40
0.0049
  41
0.0049
  0
VERTEX
  8
Element
  10
-3.215
  20
0.1625
  42
1
  0
VERTEX
  8
Element
  10
-3.21
  20
0.1625
  42
1
  0
VERTEX
  8
Element
  10
-3.215
  20
0.1625
  42
1
  0
SEQEND
  0
POLYLINE
  8
Element
  6
CONTINUOUS
  66
1
  70
0
  40
0.0098
  41
0.0098
  0
VERTEX
  8
Element
  10
-3.25
  20
0.1625
  42
0
  0
VERTEX
  8
Element
  10
-3.25
  20
0.2375
  42
0
  0
SEQEND
  0
POLYLINE
  8
Element
  6
CONTINUOUS
  66
1
  70
0
  40
0.0049
  41
0.0049
  0
VERTEX
  8
Element
  10
-3.2525
  20
0.1625
  42
1
  0
VERTEX
  8
Element
  10
-3.2475
  20
0.1625
  42
1
  0
VERTEX
  8
Element
  10
-3.2525
  20
0.1625
  42
1
  0
SEQEND
  0
POLYLINE
  8
Element
  6
CONTINUOUS
  66
1
  70
0
  40
0.0049
  41
0.0049
  0
VERTEX
  8
Element
  10
-3.2525
  20
0.2375
  42
1
  0
VERTEX
  8
Element
  10
-3.2475
  20
0.2375
  42
1
  0
VERTEX
  8
Element
  10
-3.2525
  20
0.2375
  42
1
  0
SEQEND
  0
POLYLINE
  8
Element
  6
CONTINUOUS
  66
1
  70
0
  40
0.0098
  41
0.0098
  0
VERTEX
  8
Element
  10
-3.25
  20
-0.65
  42
0
  0
VERTEX
  8
Element
  10
-3.25
  20
-0.5625
  42
0
  0
SEQEND
  0
POLYLINE
  8
Element
  6
CONTINUOUS
  66
1
  70
0
  40
0.0049
  41
0.0049
  0
VERTEX
  8
Element
  10
-3.2525
  20
-0.65
  42
1
  0
VERTEX
  8
Element
  10
-3.2475
  20
-0.65
  42
1
  0
VERTEX
  8
Element
  10
-3.2525
  20
-0.65
  42
1
  0
SEQEND
  0
POLYLINE
  8
Element
  6
CONTINUOUS
  66
1
  70
0
  40
0.0049
  41
0.0049
  0
VERTEX
  8
Element
  10
-3.2525
  20
-0.5625
  42
1
  0
VERTEX
  8
Element
  10
-3.2475
  20
-0.5625
  42
1
  0
VERTEX
  8
Element
  10
-3.2525
  20
-0.5625
  42
1
  0
SEQEND
  0
POLYLINE
  8
Element
  6
CONTINUOUS
  66
1
  70
0
  40
0.0098
  41
0.0098
  0
VERTEX
  8
Element
  10
-3.25
  20
-0.5625
  42
0
  0
VERTEX
  8
Element
  10
-3.2875
  20
-0.5625
  42
0
  0
SEQEND
  0
POLYLINE
  8
Element
  6
CONTINUOUS
  66
1
  70
0
  40
0.0049
  41
0.0049
  0
VERTEX
  8
Element
  10
-3.2525
  20
-0.5625
  42
1
  0
VERTEX
  8
Element
  10
-3.2475
  20
-0.5625
  42
1
  0
VERTEX
  8
Element
  10
-3.2525
  20
-0.5625
  42
1
  0
SEQEND
  0
POLYLINE
  8
Element
  6
CONTINUOUS
  66
1
  70
0
  40
0.0049
  41
0.0049
  0
VERTEX
  8
Element
  10
-3.29
  20
-0.5625
  42
1
  0
VERTEX
  8
Element
  10
-3.285
  20
-0.5625
  42
1
  0
VERTEX
  8
Element
  10
-3.29
  20
-0.5625
  42
1
  0
SEQEND
  0
POLYLINE
  8
Element
  6
CONTINUOUS
  66
1
  70
0
  40
0.0098
  41
0.0098
  0
VERTEX
  8
Element
  10
-3.2875
  20
-0.5625
  42
0
  0
VERTEX
  8
Element
  10
-3.25
  20
-0.4875
  42
0
  0
SEQEND
  0
POLYLINE
  8
Element
  6
CONTINUOUS
  66
1
  70
0
  40
0.0049
  41
0.0049
  0
VERTEX
  8
Element
  10
-3.29
  20
-0.5625
  42
1
  0
VERTEX
  8
Element
  10
-3.285
  20
-0.5625
  42
1
  0
VERTEX
  8
Element
  10
-3.29
  20
-0.5625
  42
1
  0
SEQEND
  0
POLYLINE
  8
Element
  6
CONTINUOUS
  66
1
  70
0
  40
0.0049
  41
0.0049
  0
VERTEX
  8
Element
  10
-3.2525
  20
-0.4875
  42
1
  0
VERTEX
  8
Element
  10
-3.2475
  20
-0.4875
  42
1
  0
VERTEX
  8
Element
  10
-3.2525
  20
-0.4875
  42
1
  0
SEQEND
  0
POLYLINE
  8
Element
  6
CONTINUOUS
  66
1
  70
0
  40
0.0098
  41
0.0098
  0
VERTEX
  8
Element
  10
-3.2125
  20
-0.5625
  42
0
  0
VERTEX
  8
Element
  10
-3.25
  20
-0.5625
  42
0
  0
SEQEND
  0
POLYLINE
  8
Element
  6
CONTINUOUS
  66
1
  70
0
  40
0.0049
  41
0.0049
  0
VERTEX
  8
Element
  10
-3.215
  20
-0.5625
  42
1
  0
VERTEX
  8
Element
  10
-3.21
  20
-0.5625
  42
1
  0
VERTEX
  8
Element
  10
-3.215
  20
-0.5625
  42
1
  0
SEQEND
  0
POLYLINE
  8
Element
  6
CONTINUOUS
  66
1
  70
0
  40
0.0049
  41
0.0049
  0
VERTEX
  8
Element
  10
-3.2525
  20
-0.5625
  42
1
  0
VERTEX
  8
Element
  10
-3.2475
  20
-0.5625
  42
1
  0
VERTEX
  8
Element
  10
-3.2525
  20
-0.5625
  42
1
  0
SEQEND
  0
POLYLINE
  8
Element
  6
CONTINUOUS
  66
1
  70
0
  40
0.0098
  41
0.0098
  0
VERTEX
  8
Element
  10
-3.2125
  20
-0.5625
  42
0
  0
VERTEX
  8
Element
  10
-3.25
  20
-0.4875
  42
0
  0
SEQEND
  0
POLYLINE
  8
Element
  6
CONTINUOUS
  66
1
  70
0
  40
0.0049
  41
0.0049
  0
VERTEX
  8
Element
  10
-3.215
  20
-0.5625
  42
1
  0
VERTEX
  8
Element
  10
-3.21
  20
-0.5625
  42
1
  0
VERTEX
  8
Element
  10
-3.215
  20
-0.5625
  42
1
  0
SEQEND
  0
POLYLINE
  8
Element
  6
CONTINUOUS
  66
1
  70
0
  40
0.0049
  41
0.0049
  0
VERTEX
  8
Element
  10
-3.2525
  20
-0.4875
  42
1
  0
VERTEX
  8
Element
  10
-3.2475
  20
-0.4875
  42
1
  0
VERTEX
  8
Element
  10
-3.2525
  20
-0.4875
  42
1
  0
SEQEND
  0
POLYLINE
  8
Element
  6
CONTINUOUS
  66
1
  70
0
  40
0.0098
  41
0.0098
  0
VERTEX
  8
Element
  10
-3.2875
  20
-0.4875
  42
0
  0
VERTEX
  8
Element
  10
-3.2125
  20
-0.4875
  42
0
  0
SEQEND
  0
POLYLINE
  8
Element
  6
CONTINUOUS
  66
1
  70
0
  40
0.0049
  41
0.0049
  0
VERTEX
  8
Element
  10
-3.29
  20
-0.4875
  42
1
  0
VERTEX
  8
Element
  10
-3.285
  20
-0.4875
  42
1
  0
VERTEX
  8
Element
  10
-3.29
  20
-0.4875
  42
1
  0
SEQEND
  0
POLYLINE
  8
Element
  6
CONTINUOUS
  66
1
  70
0
  40
0.0049
  41
0.0049
  0
VERTEX
  8
Element
  10
-3.215
  20
-0.4875
  42
1
  0
VERTEX
  8
Element
  10
-3.21
  20
-0.4875
  42
1
  0
VERTEX
  8
Element
  10
-3.215
  20
-0.4875
  42
1
  0
SEQEND
  0
POLYLINE
  8
Element
  6
CONTINUOUS
  66
1
  70
0
  40
0.0098
  41
0.0098
  0
VERTEX
  8
Element
  10
-3.25
  20
-0.4875
  42
0
  0
VERTEX
  8
Element
  10
-3.25
  20
-0.4125
  42
0
  0
SEQEND
  0
POLYLINE
  8
Element
  6
CONTINUOUS
  66
1
  70
0
  40
0.0049
  41
0.0049
  0
VERTEX
  8
Element
  10
-3.2525
  20
-0.4875
  42
1
  0
VERTEX
  8
Element
  10
-3.2475
  20
-0.4875
  42
1
  0
VERTEX
  8
Element
  10
-3.2525
  20
-0.4875
  42
1
  0
SEQEND
  0
POLYLINE
  8
Element
  6
CONTINUOUS
  66
1
  70
0
  40
0.0049
  41
0.0049
  0
VERTEX
  8
Element
  10
-3.2525
  20
-0.4125
  42
1
  0
VERTEX
  8
Element
  10
-3.2475
  20
-0.4125
  42
1
  0
VERTEX
  8
Element
  10
-3.2525
  20
-0.4125
  42
1
  0
SEQEND
  0
POLYLINE
  8
Element
  6
CONTINUOUS
  66
1
  70
0
  40
0.0098
  41
0.0098
  0
VERTEX
  8
Element
  10
-3.325
  20
1.05
  42
0
  0
VERTEX
  8
Element
  10
-3.175
  20
1.05
  42
0
  0
SEQEND
  0
POLYLINE
  8
Element
  6
CONTINUOUS
  66
1
  70
0
  40
0.0049
  41
0.0049
  0
VERTEX
  8
Element
  10
-3.3275
  20
1.05
  42
1
  0
VERTEX
  8
Element
  10
-3.3225
  20
1.05
  42
1
  0
VERTEX
  8
Element
  10
-3.3275
  20
1.05
  42
1
  0
SEQEND
  0
POLYLINE
  8
Element
  6
CONTINUOUS
  66
1
  70
0
  40
0.0049
  41
0.0049
  0
VERTEX
  8
Element
  10
-3.1775
  20
1.05
  42
1
  0
VERTEX
  8
Element
  10
-3.1725
  20
1.05
  42
1
  0
VERTEX
  8
Element
  10
-3.1775
  20
1.05
  42
1
  0
SEQEND
  0
POLYLINE
  8
Element
  6
CONTINUOUS
  66
1
  70
0
  40
0.0098
  41
0.0098
  0
VERTEX
  8
Element
  10
-3.3
  20
1.01
  42
0
  0
VERTEX
  8
Element
  10
-3.2
  20
1.01
  42
0
  0
SEQEND
  0
POLYLINE
  8
Element
  6
CONTINUOUS
  66
1
  70
0
  40
0.0049
  41
0.0049
  0
VERTEX
  8
Element
  10
-3.3025
  20
1.01
  42
1
  0
VERTEX
  8
Element
  10
-3.2975
  20
1.01
  42
1
  0
VERTEX
  8
Element
  10
-3.3025
  20
1.01
  42
1
  0
SEQEND
  0
POLYLINE
  8
Element
  6
CONTINUOUS
  66
1
  70
0
  40
0.0049
  41
0.0049
  0
VERTEX
  8
Element
  10
-3.2025
  20
1.01
  42
1
  0
VERTEX
  8
Element
  10
-3.1975
  20
1.01
  42
1
  0
VERTEX
  8
Element
  10
-3.2025
  20
1.01
  42
1
  0
SEQEND
  0
POLYLINE
  8
Element
  6
CONTINUOUS
  66
1
  70
0
  40
0.0098
  41
0.0098
  0
VERTEX
  8
Element
  10
-3.27
  20
0.97
  42
0
  0
VERTEX
  8
Element
  10
-3.23
  20
0.97
  42
0
  0
SEQEND
  0
POLYLINE
  8
Element
  6
CONTINUOUS
  66
1
  70
0
  40
0.0049
  41
0.0049
  0
VERTEX
  8
Element
  10
-3.2725
  20
0.97
  42
1
  0
VERTEX
  8
Element
  10
-3.2675
  20
0.97
  42
1
  0
VERTEX
  8
Element
  10
-3.2725
  20
0.97
  42
1
  0
SEQEND
  0
POLYLINE
  8
Element
  6
CONTINUOUS
  66
1
  70
0
  40
0.0049
  41
0.0049
  0
VERTEX
  8
Element
  10
-3.2325
  20
0.97
  42
1
  0
VERTEX
  8
Element
  10
-3.2275
  20
0.97
  42
1
  0
VERTEX
  8
Element
  10
-3.2325
  20
0.97
  42
1
  0
SEQEND
  0
POLYLINE
  8
Element
  6
CONTINUOUS
  66
1
  70
0
  40
0.0098
  41
0.0098
  0
VERTEX
  8
Element
  10
-3.325
  20
-0.85
  42
0
  0
VERTEX
  8
Element
  10
-3.175
  20
-0.85
  42
0
  0
SEQEND
  0
POLYLINE
  8
Element
  6
CONTINUOUS
  66
1
  70
0
  40
0.0049
  41
0.0049
  0
VERTEX
  8
Element
  10
-3.3275
  20
-0.85
  42
1
  0
VERTEX
  8
Element
  10
-3.3225
  20
-0.85
  42
1
  0
VERTEX
  8
Element
  10
-3.3275
  20
-0.85
  42
1
  0
SEQEND
  0
POLYLINE
  8
Element
  6
CONTINUOUS
  66
1
  70
0
  40
0.0049
  41
0.0049
  0
VERTEX
  8
Element
  10
-3.1775
  20
-0.85
  42
1
  0
VERTEX
  8
Element
  10
-3.1725
  20
-0.85
  42
1
  0
VERTEX
  8
Element
  10
-3.1775
  20
-0.85
  42
1
  0
SEQEND
  0
POLYLINE
  8
Element
  6
CONTINUOUS
  66
1
  70
0
  40
0.0098
  41
0.0098
  0
VERTEX
  8
Element
  10
-3.3
  20
-0.89
  42
0
  0
VERTEX
  8
Element
  10
-3.2
  20
-0.89
  42
0
  0
SEQEND
  0
POLYLINE
  8
Element
  6
CONTINUOUS
  66
1
  70
0
  40
0.0049
  41
0.0049
  0
VERTEX
  8
Element
  10
-3.3025
  20
-0.89
  42
1
  0
VERTEX
  8
Element
  10
-3.2975
  20
-0.89
  42
1
  0
VERTEX
  8
Element
  10
-3.3025
  20
-0.89
  42
1
  0
SEQEND
  0
POLYLINE
  8
Element
  6
CONTINUOUS
  66
1
  70
0
  40
0.0049
  41
0.0049
  0
VERTEX
  8
Element
  10
-3.2025
  20
-0.89
  42
1
  0
VERTEX
  8
Element
  10
-3.1975
  20
-0.89
  42
1
  0
VERTEX
  8
Element
  10
-3.2025
  20
-0.89
  42
1
  0
SEQEND
  0
POLYLINE
  8
Element
  6
CONTINUOUS
  66
1
  70
0
  40
0.0098
  41
0.0098
  0
VERTEX
  8
Element
  10
-3.27
  20
-0.93
  42
0
  0
VERTEX
  8
Element
  10
-3.23
  20
-0.93
  42
0
  0
SEQEND
  0
POLYLINE
  8
Element
  6
CONTINUOUS
  66
1
  70
0
  40
0.0049
  41
0.0049
  0
VERTEX
  8
Element
  10
-3.2725
  20
-0.93
  42
1
  0
VERTEX
  8
Element
  10
-3.2675
  20
-0.93
  42
1
  0
VERTEX
  8
Element
  10
-3.2725
  20
-0.93
  42
1
  0
SEQEND
  0
POLYLINE
  8
Element
  6
CONTINUOUS
  66
1
  70
0
  40
0.0049
  41
0.0049
  0
VERTEX
  8
Element
  10
-3.2325
  20
-0.93
  42
1
  0
VERTEX
  8
Element
  10
-3.2275
  20
-0.93
  42
1
  0
VERTEX
  8
Element
  10
-3.2325
  20
-0.93
  42
1
  0
SEQEND
  0
POLYLINE
  8
Element
  6
CONTINUOUS
  66
1
  70
0
  40
0.0098
  41
0.0098
  0
VERTEX
  8
Element
  10
-2.2
  20
2.1
  42
0
  0
VERTEX
  8
Element
  10
-2.175
  20
2.125
  42
0
  0
SEQEND
  0
POLYLINE
  8
Element
  6
CONTINUOUS
  66
1
  70
0
  40
0.0049
  41
0.0049
  0
VERTEX
  8
Element
  10
-2.2025
  20
2.1
  42
1
  0
VERTEX
  8
Element
  10
-2.1975
  20
2.1
  42
1
  0
VERTEX
  8
Element
  10
-2.2025
  20
2.1
  42
1
  0
SEQEND
  0
POLYLINE
  8
Element
  6
CONTINUOUS
  66
1
  70
0
  40
0.0049
  41
0.0049
  0
VERTEX
  8
Element
  10
-2.1775
  20
2.125
  42
1
  0
VERTEX
  8
Element
  10
-2.1725
  20
2.125
  42
1
  0
VERTEX
  8
Element
  10
-2.1775
  20
2.125
  42
1
  0
SEQEND
  0
POLYLINE
  8
Element
  6
CONTINUOUS
  66
1
  70
0
  40
0.0098
  41
0.0098
  0
VERTEX
  8
Element
  10
-2.175
  20
2.125
  42
0
  0
VERTEX
  8
Element
  10
-2.15
  20
2.075
  42
0
  0
SEQEND
  0
POLYLINE
  8
Element
  6
CONTINUOUS
  66
1
  70
0
  40
0.0049
  41
0.0049
  0
VERTEX
  8
Element
  10
-2.1775
  20
2.125
  42
1
  0
VERTEX
  8
Element
  10
-2.1725
  20
2.125
  42
1
  0
VERTEX
  8
Element
  10
-2.1775
  20
2.125
  42
1
  0
SEQEND
  0
POLYLINE
  8
Element
  6
CONTINUOUS
  66
1
  70
0
  40
0.0049
  41
0.0049
  0
VERTEX
  8
Element
  10
-2.1525
  20
2.075
  42
1
  0
VERTEX
  8
Element
  10
-2.1475
  20
2.075
  42
1
  0
VERTEX
  8
Element
  10
-2.1525
  20
2.075
  42
1
  0
SEQEND
  0
POLYLINE
  8
Element
  6
CONTINUOUS
  66
1
  70
0
  40
0.0098
  41
0.0098
  0
VERTEX
  8
Element
  10
-2.15
  20
2.075
  42
0
  0
VERTEX
  8
Element
  10
-2.125
  20
2.125
  42
0
  0
SEQEND
  0
POLYLINE
  8
Element
  6
CONTINUOUS
  66
1
  70
0
  40
0.0049
  41
0.0049
  0
VERTEX
  8
Element
  10
-2.1525
  20
2.075
  42
1
  0
VERTEX
  8
Element
  10
-2.1475
  20
2.075
  42
1
  0
VERTEX
  8
Element
  10
-2.1525
  20
2.075
  42
1
  0
SEQEND
  0
POLYLINE
  8
Element
  6
CONTINUOUS
  66
1
  70
0
  40
0.0049
  41
0.0049
  0
VERTEX
  8
Element
  10
-2.1275
  20
2.125
  42
1
  0
VERTEX
  8
Element
  10
-2.1225
  20
2.125
  42
1
  0
VERTEX
  8
Element
  10
-2.1275
  20
2.125
  42
1
  0
SEQEND
  0
POLYLINE
  8
Element
  6
CONTINUOUS
  66
1
  70
0
  40
0.0098
  41
0.0098
  0
VERTEX
  8
Element
  10
-2.125
  20
2.125
  42
0
  0
VERTEX
  8
Element
  10
-2.1
  20
2.075
  42
0
  0
SEQEND
  0
POLYLINE
  8
Element
  6
CONTINUOUS
  66
1
  70
0
  40
0.0049
  41
0.0049
  0
VERTEX
  8
Element
  10
-2.1275
  20
2.125
  42
1
  0
VERTEX
  8
Element
  10
-2.1225
  20
2.125
  42
1
  0
VERTEX
  8
Element
  10
-2.1275
  20
2.125
  42
1
  0
SEQEND
  0
POLYLINE
  8
Element
  6
CONTINUOUS
  66
1
  70
0
  40
0.0049
  41
0.0049
  0
VERTEX
  8
Element
  10
-2.1025
  20
2.075
  42
1
  0
VERTEX
  8
Element
  10
-2.0975
  20
2.075
  42
1
  0
VERTEX
  8
Element
  10
-2.1025
  20
2.075
  42
1
  0
SEQEND
  0
POLYLINE
  8
Element
  6
CONTINUOUS
  66
1
  70
0
  40
0.0098
  41
0.0098
  0
VERTEX
  8
Element
  10
-2.1
  20
2.075
  42
0
  0
VERTEX
  8
Element
  10
-2.075
  20
2.125
  42
0
  0
SEQEND
  0
POLYLINE
  8
Element
  6
CONTINUOUS
  66
1
  70
0
  40
0.0049
  41
0.0049
  0
VERTEX
  8
Element
  10
-2.1025
  20
2.075
  42
1
  0
VERTEX
  8
Element
  10
-2.0975
  20
2.075
  42
1
  0
VERTEX
  8
Element
  10
-2.1025
  20
2.075
  42
1
  0
SEQEND
  0
POLYLINE
  8
Element
  6
CONTINUOUS
  66
1
  70
0
  40
0.0049
  41
0.0049
  0
VERTEX
  8
Element
  10
-2.0775
  20
2.125
  42
1
  0
VERTEX
  8
Element
  10
-2.0725
  20
2.125
  42
1
  0
VERTEX
  8
Element
  10
-2.0775
  20
2.125
  42
1
  0
SEQEND
  0
POLYLINE
  8
Element
  6
CONTINUOUS
  66
1
  70
0
  40
0.0098
  41
0.0098
  0
VERTEX
  8
Element
  10
-2.075
  20
2.125
  42
0
  0
VERTEX
  8
Element
  10
-2.05
  20
2.075
  42
0
  0
SEQEND
  0
POLYLINE
  8
Element
  6
CONTINUOUS
  66
1
  70
0
  40
0.0049
  41
0.0049
  0
VERTEX
  8
Element
  10
-2.0775
  20
2.125
  42
1
  0
VERTEX
  8
Element
  10
-2.0725
  20
2.125
  42
1
  0
VERTEX
  8
Element
  10
-2.0775
  20
2.125
  42
1
  0
SEQEND
  0
POLYLINE
  8
Element
  6
CONTINUOUS
  66
1
  70
0
  40
0.0049
  41
0.0049
  0
VERTEX
  8
Element
  10
-2.0525
  20
2.075
  42
1
  0
VERTEX
  8
Element
  10
-2.0475
  20
2.075
  42
1
  0
VERTEX
  8
Element
  10
-2.0525
  20
2.075
  42
1
  0
SEQEND
  0
POLYLINE
  8
Element
  6
CONTINUOUS
  66
1
  70
0
  40
0.0098
  41
0.0098
  0
VERTEX
  8
Element
  10
-2.05
  20
2.075
  42
0
  0
VERTEX
  8
Element
  10
-2.025
  20
2.1
  42
0
  0
SEQEND
  0
POLYLINE
  8
Element
  6
CONTINUOUS
  66
1
  70
0
  40
0.0049
  41
0.0049
  0
VERTEX
  8
Element
  10
-2.0525
  20
2.075
  42
1
  0
VERTEX
  8
Element
  10
-2.0475
  20
2.075
  42
1
  0
VERTEX
  8
Element
  10
-2.0525
  20
2.075
  42
1
  0
SEQEND
  0
POLYLINE
  8
Element
  6
CONTINUOUS
  66
1
  70
0
  40
0.0049
  41
0.0049
  0
VERTEX
  8
Element
  10
-2.0275
  20
2.1
  42
1
  0
VERTEX
  8
Element
  10
-2.0225
  20
2.1
  42
1
  0
VERTEX
  8
Element
  10
-2.0275
  20
2.1
  42
1
  0
SEQEND
  0
POLYLINE
  8
Element
  6
CONTINUOUS
  66
1
  70
0
  40
0.0098
  41
0.0098
  0
VERTEX
  8
Element
  10
-2.2
  20
2.1
  42
0
  0
VERTEX
  8
Element
  10
-2.2875
  20
2.1
  42
0
  0
SEQEND
  0
POLYLINE
  8
Element
  6
CONTINUOUS
  66
1
  70
0
  40
0.0049
  41
0.0049
  0
VERTEX
  8
Element
  10
-2.2025
  20
2.1
  42
1
  0
VERTEX
  8
Element
  10
-2.1975
  20
2.1
  42
1
  0
VERTEX
  8
Element
  10
-2.2025
  20
2.1
  42
1
  0
SEQEND
  0
POLYLINE
  8
Element
  6
CONTINUOUS
  66
1
  70
0
  40
0.0049
  41
0.0049
  0
VERTEX
  8
Element
  10
-2.29
  20
2.1
  42
1
  0
VERTEX
  8
Element
  10
-2.285
  20
2.1
  42
1
  0
VERTEX
  8
Element
  10
-2.29
  20
2.1
  42
1
  0
SEQEND
  0
POLYLINE
  8
Element
  6
CONTINUOUS
  66
1
  70
0
  40
0.0098
  41
0.0098
  0
VERTEX
  8
Element
  10
-2.025
  20
2.1
  42
0
  0
VERTEX
  8
Element
  10
-1.9375
  20
2.1
  42
0
  0
SEQEND
  0
POLYLINE
  8
Element
  6
CONTINUOUS
  66
1
  70
0
  40
0.0049
  41
0.0049
  0
VERTEX
  8
Element
  10
-2.0275
  20
2.1
  42
1
  0
VERTEX
  8
Element
  10
-2.0225
  20
2.1
  42
1
  0
VERTEX
  8
Element
  10
-2.0275
  20
2.1
  42
1
  0
SEQEND
  0
POLYLINE
  8
Element
  6
CONTINUOUS
  66
1
  70
0
  40
0.0049
  41
0.0049
  0
VERTEX
  8
Element
  10
-1.94
  20
2.1
  42
1
  0
VERTEX
  8
Element
  10
-1.935
  20
2.1
  42
1
  0
VERTEX
  8
Element
  10
-1.94
  20
2.1
  42
1
  0
SEQEND
  0
POLYLINE
  8
Element
  6
CONTINUOUS
  66
1
  70
0
  40
0.0098
  41
0.0098
  0
VERTEX
  8
Element
  10
-1.45
  20
2.65
  42
0
  0
VERTEX
  8
Element
  10
-1.425
  20
2.675
  42
0
  0
SEQEND
  0
POLYLINE
  8
Element
  6
CONTINUOUS
  66
1
  70
0
  40
0.0049
  41
0.0049
  0
VERTEX
  8
Element
  10
-1.4525
  20
2.65
  42
1
  0
VERTEX
  8
Element
  10
-1.4475
  20
2.65
  42
1
  0
VERTEX
  8
Element
  10
-1.4525
  20
2.65
  42
1
  0
SEQEND
  0
POLYLINE
  8
Element
  6
CONTINUOUS
  66
1
  70
0
  40
0.0049
  41
0.0049
  0
VERTEX
  8
Element
  10
-1.4275
  20
2.675
  42
1
  0
VERTEX
  8
Element
  10
-1.4225
  20
2.675
  42
1
  0
VERTEX
  8
Element
  10
-1.4275
  20
2.675
  42
1
  0
SEQEND
  0
POLYLINE
  8
Element
  6
CONTINUOUS
  66
1
  70
0
  40
0.0098
  41
0.0098
  0
VERTEX
  8
Element
  10
-1.425
  20
2.675
  42
0
  0
VERTEX
  8
Element
  10
-1.4
  20
2.625
  42
0
  0
SEQEND
  0
POLYLINE
  8
Element
  6
CONTINUOUS
  66
1
  70
0
  40
0.0049
  41
0.0049
  0
VERTEX
  8
Element
  10
-1.4275
  20
2.675
  42
1
  0
VERTEX
  8
Element
  10
-1.4225
  20
2.675
  42
1
  0
VERTEX
  8
Element
  10
-1.4275
  20
2.675
  42
1
  0
SEQEND
  0
POLYLINE
  8
Element
  6
CONTINUOUS
  66
1
  70
0
  40
0.0049
  41
0.0049
  0
VERTEX
  8
Element
  10
-1.4025
  20
2.625
  42
1
  0
VERTEX
  8
Element
  10
-1.3975
  20
2.625
  42
1
  0
VERTEX
  8
Element
  10
-1.4025
  20
2.625
  42
1
  0
SEQEND
  0
POLYLINE
  8
Element
  6
CONTINUOUS
  66
1
  70
0
  40
0.0098
  41
0.0098
  0
VERTEX
  8
Element
  10
-1.4
  20
2.625
  42
0
  0
VERTEX
  8
Element
  10
-1.375
  20
2.675
  42
0
  0
SEQEND
  0
POLYLINE
  8
Element
  6
CONTINUOUS
  66
1
  70
0
  40
0.0049
  41
0.0049
  0
VERTEX
  8
Element
  10
-1.4025
  20
2.625
  42
1
  0
VERTEX
  8
Element
  10
-1.3975
  20
2.625
  42
1
  0
VERTEX
  8
Element
  10
-1.4025
  20
2.625
  42
1
  0
SEQEND
  0
POLYLINE
  8
Element
  6
CONTINUOUS
  66
1
  70
0
  40
0.0049
  41
0.0049
  0
VERTEX
  8
Element
  10
-1.3775
  20
2.675
  42
1
  0
VERTEX
  8
Element
  10
-1.3725
  20
2.675
  42
1
  0
VERTEX
  8
Element
  10
-1.3775
  20
2.675
  42
1
  0
SEQEND
  0
POLYLINE
  8
Element
  6
CONTINUOUS
  66
1
  70
0
  40
0.0098
  41
0.0098
  0
VERTEX
  8
Element
  10
-1.375
  20
2.675
  42
0
  0
VERTEX
  8
Element
  10
-1.35
  20
2.625
  42
0
  0
SEQEND
  0
POLYLINE
  8
Element
  6
CONTINUOUS
  66
1
  70
0
  40
0.0049
  41
0.0049
  0
VERTEX
  8
Element
  10
-1.3775
  20
2.675
  42
1
  0
VERTEX
  8
Element
  10
-1.3725
  20
2.675
  42
1
  0
VERTEX
  8
Element
  10
-1.3775
  20
2.675
  42
1
  0
SEQEND
  0
POLYLINE
  8
Element
  6
CONTINUOUS
  66
1
  70
0
  40
0.0049
  41
0.0049
  0
VERTEX
  8
Element
  10
-1.3525
  20
2.625
  42
1
  0
VERTEX
  8
Element
  10
-1.3475
  20
2.625
  42
1
  0
VERTEX
  8
Element
  10
-1.3525
  20
2.625
  42
1
  0
SEQEND
  0
POLYLINE
  8
Element
  6
CONTINUOUS
  66
1
  70
0
  40
0.0098
  41
0.0098
  0
VERTEX
  8
Element
  10
-1.35
  20
2.625
  42
0
  0
VERTEX
  8
Element
  10
-1.325
  20
2.675
  42
0
  0
SEQEND
  0
POLYLINE
  8
Element
  6
CONTINUOUS
  66
1
  70
0
  40
0.0049
  41
0.0049
  0
VERTEX
  8
Element
  10
-1.3525
  20
2.625
  42
1
  0
VERTEX
  8
Element
  10
-1.3475
  20
2.625
  42
1
  0
VERTEX
  8
Element
  10
-1.3525
  20
2.625
  42
1
  0
SEQEND
  0
POLYLINE
  8
Element
  6
CONTINUOUS
  66
1
  70
0
  40
0.0049
  41
0.0049
  0
VERTEX
  8
Element
  10
-1.3275
  20
2.675
  42
1
  0
VERTEX
  8
Element
  10
-1.3225
  20
2.675
  42
1
  0
VERTEX
  8
Element
  10
-1.3275
  20
2.675
  42
1
  0
SEQEND
  0
POLYLINE
  8
Element
  6
CONTINUOUS
  66
1
  70
0
  40
0.0098
  41
0.0098
  0
VERTEX
  8
Element
  10
-1.325
  20
2.675
  42
0
  0
VERTEX
  8
Element
  10
-1.3
  20
2.625
  42
0
  0
SEQEND
  0
POLYLINE
  8
Element
  6
CONTINUOUS
  66
1
  70
0
  40
0.0049
  41
0.0049
  0
VERTEX
  8
Element
  10
-1.3275
  20
2.675
  42
1
  0
VERTEX
  8
Element
  10
-1.3225
  20
2.675
  42
1
  0
VERTEX
  8
Element
  10
-1.3275
  20
2.675
  42
1
  0
SEQEND
  0
POLYLINE
  8
Element
  6
CONTINUOUS
  66
1
  70
0
  40
0.0049
  41
0.0049
  0
VERTEX
  8
Element
  10
-1.3025
  20
2.625
  42
1
  0
VERTEX
  8
Element
  10
-1.2975
  20
2.625
  42
1
  0
VERTEX
  8
Element
  10
-1.3025
  20
2.625
  42
1
  0
SEQEND
  0
POLYLINE
  8
Element
  6
CONTINUOUS
  66
1
  70
0
  40
0.0098
  41
0.0098
  0
VERTEX
  8
Element
  10
-1.3
  20
2.625
  42
0
  0
VERTEX
  8
Element
  10
-1.275
  20
2.65
  42
0
  0
SEQEND
  0
POLYLINE
  8
Element
  6
CONTINUOUS
  66
1
  70
0
  40
0.0049
  41
0.0049
  0
VERTEX
  8
Element
  10
-1.3025
  20
2.625
  42
1
  0
VERTEX
  8
Element
  10
-1.2975
  20
2.625
  42
1
  0
VERTEX
  8
Element
  10
-1.3025
  20
2.625
  42
1
  0
SEQEND
  0
POLYLINE
  8
Element
  6
CONTINUOUS
  66
1
  70
0
  40
0.0049
  41
0.0049
  0
VERTEX
  8
Element
  10
-1.2775
  20
2.65
  42
1
  0
VERTEX
  8
Element
  10
-1.2725
  20
2.65
  42
1
  0
VERTEX
  8
Element
  10
-1.2775
  20
2.65
  42
1
  0
SEQEND
  0
POLYLINE
  8
Element
  6
CONTINUOUS
  66
1
  70
0
  40
0.0098
  41
0.0098
  0
VERTEX
  8
Element
  10
-1.45
  20
2.65
  42
0
  0
VERTEX
  8
Element
  10
-1.5375
  20
2.65
  42
0
  0
SEQEND
  0
POLYLINE
  8
Element
  6
CONTINUOUS
  66
1
  70
0
  40
0.0049
  41
0.0049
  0
VERTEX
  8
Element
  10
-1.4525
  20
2.65
  42
1
  0
VERTEX
  8
Element
  10
-1.4475
  20
2.65
  42
1
  0
VERTEX
  8
Element
  10
-1.4525
  20
2.65
  42
1
  0
SEQEND
  0
POLYLINE
  8
Element
  6
CONTINUOUS
  66
1
  70
0
  40
0.0049
  41
0.0049
  0
VERTEX
  8
Element
  10
-1.54
  20
2.65
  42
1
  0
VERTEX
  8
Element
  10
-1.535
  20
2.65
  42
1
  0
VERTEX
  8
Element
  10
-1.54
  20
2.65
  42
1
  0
SEQEND
  0
POLYLINE
  8
Element
  6
CONTINUOUS
  66
1
  70
0
  40
0.0098
  41
0.0098
  0
VERTEX
  8
Element
  10
-1.275
  20
2.65
  42
0
  0
VERTEX
  8
Element
  10
-1.1875
  20
2.65
  42
0
  0
SEQEND
  0
POLYLINE
  8
Element
  6
CONTINUOUS
  66
1
  70
0
  40
0.0049
  41
0.0049
  0
VERTEX
  8
Element
  10
-1.2775
  20
2.65
  42
1
  0
VERTEX
  8
Element
  10
-1.2725
  20
2.65
  42
1
  0
VERTEX
  8
Element
  10
-1.2775
  20
2.65
  42
1
  0
SEQEND
  0
POLYLINE
  8
Element
  6
CONTINUOUS
  66
1
  70
0
  40
0.0049
  41
0.0049
  0
VERTEX
  8
Element
  10
-1.19
  20
2.65
  42
1
  0
VERTEX
  8
Element
  10
-1.185
  20
2.65
  42
1
  0
VERTEX
  8
Element
  10
-1.19
  20
2.65
  42
1
  0
SEQEND
  0
POLYLINE
  8
Element
  6
CONTINUOUS
  66
1
  70
0
  40
0.0098
  41
0.0098
  0
VERTEX
  8
Element
  10
-1.45
  20
0.7
  42
0
  0
VERTEX
  8
Element
  10
-1.425
  20
0.725
  42
0
  0
SEQEND
  0
POLYLINE
  8
Element
  6
CONTINUOUS
  66
1
  70
0
  40
0.0049
  41
0.0049
  0
VERTEX
  8
Element
  10
-1.4525
  20
0.7
  42
1
  0
VERTEX
  8
Element
  10
-1.4475
  20
0.7
  42
1
  0
VERTEX
  8
Element
  10
-1.4525
  20
0.7
  42
1
  0
SEQEND
  0
POLYLINE
  8
Element
  6
CONTINUOUS
  66
1
  70
0
  40
0.0049
  41
0.0049
  0
VERTEX
  8
Element
  10
-1.4275
  20
0.725
  42
1
  0
VERTEX
  8
Element
  10
-1.4225
  20
0.725
  42
1
  0
VERTEX
  8
Element
  10
-1.4275
  20
0.725
  42
1
  0
SEQEND
  0
POLYLINE
  8
Element
  6
CONTINUOUS
  66
1
  70
0
  40
0.0098
  41
0.0098
  0
VERTEX
  8
Element
  10
-1.425
  20
0.725
  42
0
  0
VERTEX
  8
Element
  10
-1.4
  20
0.675
  42
0
  0
SEQEND
  0
POLYLINE
  8
Element
  6
CONTINUOUS
  66
1
  70
0
  40
0.0049
  41
0.0049
  0
VERTEX
  8
Element
  10
-1.4275
  20
0.725
  42
1
  0
VERTEX
  8
Element
  10
-1.4225
  20
0.725
  42
1
  0
VERTEX
  8
Element
  10
-1.4275
  20
0.725
  42
1
  0
SEQEND
  0
POLYLINE
  8
Element
  6
CONTINUOUS
  66
1
  70
0
  40
0.0049
  41
0.0049
  0
VERTEX
  8
Element
  10
-1.4025
  20
0.675
  42
1
  0
VERTEX
  8
Element
  10
-1.3975
  20
0.675
  42
1
  0
VERTEX
  8
Element
  10
-1.4025
  20
0.675
  42
1
  0
SEQEND
  0
POLYLINE
  8
Element
  6
CONTINUOUS
  66
1
  70
0
  40
0.0098
  41
0.0098
  0
VERTEX
  8
Element
  10
-1.4
  20
0.675
  42
0
  0
VERTEX
  8
Element
  10
-1.375
  20
0.725
  42
0
  0
SEQEND
  0
POLYLINE
  8
Element
  6
CONTINUOUS
  66
1
  70
0
  40
0.0049
  41
0.0049
  0
VERTEX
  8
Element
  10
-1.4025
  20
0.675
  42
1
  0
VERTEX
  8
Element
  10
-1.3975
  20
0.675
  42
1
  0
VERTEX
  8
Element
  10
-1.4025
  20
0.675
  42
1
  0
SEQEND
  0
POLYLINE
  8
Element
  6
CONTINUOUS
  66
1
  70
0
  40
0.0049
  41
0.0049
  0
VERTEX
  8
Element
  10
-1.3775
  20
0.725
  42
1
  0
VERTEX
  8
Element
  10
-1.3725
  20
0.725
  42
1
  0
VERTEX
  8
Element
  10
-1.3775
  20
0.725
  42
1
  0
SEQEND
  0
POLYLINE
  8
Element
  6
CONTINUOUS
  66
1
  70
0
  40
0.0098
  41
0.0098
  0
VERTEX
  8
Element
  10
-1.375
  20
0.725
  42
0
  0
VERTEX
  8
Element
  10
-1.35
  20
0.675
  42
0
  0
SEQEND
  0
POLYLINE
  8
Element
  6
CONTINUOUS
  66
1
  70
0
  40
0.0049
  41
0.0049
  0
VERTEX
  8
Element
  10
-1.3775
  20
0.725
  42
1
  0
VERTEX
  8
Element
  10
-1.3725
  20
0.725
  42
1
  0
VERTEX
  8
Element
  10
-1.3775
  20
0.725
  42
1
  0
SEQEND
  0
POLYLINE
  8
Element
  6
CONTINUOUS
  66
1
  70
0
  40
0.0049
  41
0.0049
  0
VERTEX
  8
Element
  10
-1.3525
  20
0.675
  42
1
  0
VERTEX
  8
Element
  10
-1.3475
  20
0.675
  42
1
  0
VERTEX
  8
Element
  10
-1.3525
  20
0.675
  42
1
  0
SEQEND
  0
POLYLINE
  8
Element
  6
CONTINUOUS
  66
1
  70
0
  40
0.0098
  41
0.0098
  0
VERTEX
  8
Element
  10
-1.35
  20
0.675
  42
0
  0
VERTEX
  8
Element
  10
-1.325
  20
0.725
  42
0
  0
SEQEND
  0
POLYLINE
  8
Element
  6
CONTINUOUS
  66
1
  70
0
  40
0.0049
  41
0.0049
  0
VERTEX
  8
Element
  10
-1.3525
  20
0.675
  42
1
  0
VERTEX
  8
Element
  10
-1.3475
  20
0.675
  42
1
  0
VERTEX
  8
Element
  10
-1.3525
  20
0.675
  42
1
  0
SEQEND
  0
POLYLINE
  8
Element
  6
CONTINUOUS
  66
1
  70
0
  40
0.0049
  41
0.0049
  0
VERTEX
  8
Element
  10
-1.3275
  20
0.725
  42
1
  0
VERTEX
  8
Element
  10
-1.3225
  20
0.725
  42
1
  0
VERTEX
  8
Element
  10
-1.3275
  20
0.725
  42
1
  0
SEQEND
  0
POLYLINE
  8
Element
  6
CONTINUOUS
  66
1
  70
0
  40
0.0098
  41
0.0098
  0
VERTEX
  8
Element
  10
-1.325
  20
0.725
  42
0
  0
VERTEX
  8
Element
  10
-1.3
  20
0.675
  42
0
  0
SEQEND
  0
POLYLINE
  8
Element
  6
CONTINUOUS
  66
1
  70
0
  40
0.0049
  41
0.0049
  0
VERTEX
  8
Element
  10
-1.3275
  20
0.725
  42
1
  0
VERTEX
  8
Element
  10
-1.3225
  20
0.725
  42
1
  0
VERTEX
  8
Element
  10
-1.3275
  20
0.725
  42
1
  0
SEQEND
  0
POLYLINE
  8
Element
  6
CONTINUOUS
  66
1
  70
0
  40
0.0049
  41
0.0049
  0
VERTEX
  8
Element
  10
-1.3025
  20
0.675
  42
1
  0
VERTEX
  8
Element
  10
-1.2975
  20
0.675
  42
1
  0
VERTEX
  8
Element
  10
-1.3025
  20
0.675
  42
1
  0
SEQEND
  0
POLYLINE
  8
Element
  6
CONTINUOUS
  66
1
  70
0
  40
0.0098
  41
0.0098
  0
VERTEX
  8
Element
  10
-1.3
  20
0.675
  42
0
  0
VERTEX
  8
Element
  10
-1.275
  20
0.7
  42
0
  0
SEQEND
  0
POLYLINE
  8
Element
  6
CONTINUOUS
  66
1
  70
0
  40
0.0049
  41
0.0049
  0
VERTEX
  8
Element
  10
-1.3025
  20
0.675
  42
1
  0
VERTEX
  8
Element
  10
-1.2975
  20
0.675
  42
1
  0
VERTEX
  8
Element
  10
-1.3025
  20
0.675
  42
1
  0
SEQEND
  0
POLYLINE
  8
Element
  6
CONTINUOUS
  66
1
  70
0
  40
0.0049
  41
0.0049
  0
VERTEX
  8
Element
  10
-1.2775
  20
0.7
  42
1
  0
VERTEX
  8
Element
  10
-1.2725
  20
0.7
  42
1
  0
VERTEX
  8
Element
  10
-1.2775
  20
0.7
  42
1
  0
SEQEND
  0
POLYLINE
  8
Element
  6
CONTINUOUS
  66
1
  70
0
  40
0.0098
  41
0.0098
  0
VERTEX
  8
Element
  10
-1.45
  20
0.7
  42
0
  0
VERTEX
  8
Element
  10
-1.5375
  20
0.7
  42
0
  0
SEQEND
  0
POLYLINE
  8
Element
  6
CONTINUOUS
  66
1
  70
0
  40
0.0049
  41
0.0049
  0
VERTEX
  8
Element
  10
-1.4525
  20
0.7
  42
1
  0
VERTEX
  8
Element
  10
-1.4475
  20
0.7
  42
1
  0
VERTEX
  8
Element
  10
-1.4525
  20
0.7
  42
1
  0
SEQEND
  0
POLYLINE
  8
Element
  6
CONTINUOUS
  66
1
  70
0
  40
0.0049
  41
0.0049
  0
VERTEX
  8
Element
  10
-1.54
  20
0.7
  42
1
  0
VERTEX
  8
Element
  10
-1.535
  20
0.7
  42
1
  0
VERTEX
  8
Element
  10
-1.54
  20
0.7
  42
1
  0
SEQEND
  0
POLYLINE
  8
Element
  6
CONTINUOUS
  66
1
  70
0
  40
0.0098
  41
0.0098
  0
VERTEX
  8
Element
  10
-1.275
  20
0.7
  42
0
  0
VERTEX
  8
Element
  10
-1.1875
  20
0.7
  42
0
  0
SEQEND
  0
POLYLINE
  8
Element
  6
CONTINUOUS
  66
1
  70
0
  40
0.0049
  41
0.0049
  0
VERTEX
  8
Element
  10
-1.2775
  20
0.7
  42
1
  0
VERTEX
  8
Element
  10
-1.2725
  20
0.7
  42
1
  0
VERTEX
  8
Element
  10
-1.2775
  20
0.7
  42
1
  0
SEQEND
  0
POLYLINE
  8
Element
  6
CONTINUOUS
  66
1
  70
0
  40
0.0049
  41
0.0049
  0
VERTEX
  8
Element
  10
-1.19
  20
0.7
  42
1
  0
VERTEX
  8
Element
  10
-1.185
  20
0.7
  42
1
  0
VERTEX
  8
Element
  10
-1.19
  20
0.7
  42
1
  0
SEQEND
  0
POLYLINE
  8
Element
  6
CONTINUOUS
  66
1
  70
0
  40
0.0098
  41
0.0098
  0
VERTEX
  8
Element
  10
-2.3
  20
0.2
  42
0
  0
VERTEX
  8
Element
  10
-2.275
  20
0.225
  42
0
  0
SEQEND
  0
POLYLINE
  8
Element
  6
CONTINUOUS
  66
1
  70
0
  40
0.0049
  41
0.0049
  0
VERTEX
  8
Element
  10
-2.3025
  20
0.2
  42
1
  0
VERTEX
  8
Element
  10
-2.2975
  20
0.2
  42
1
  0
VERTEX
  8
Element
  10
-2.3025
  20
0.2
  42
1
  0
SEQEND
  0
POLYLINE
  8
Element
  6
CONTINUOUS
  66
1
  70
0
  40
0.0049
  41
0.0049
  0
VERTEX
  8
Element
  10
-2.2775
  20
0.225
  42
1
  0
VERTEX
  8
Element
  10
-2.2725
  20
0.225
  42
1
  0
VERTEX
  8
Element
  10
-2.2775
  20
0.225
  42
1
  0
SEQEND
  0
POLYLINE
  8
Element
  6
CONTINUOUS
  66
1
  70
0
  40
0.0098
  41
0.0098
  0
VERTEX
  8
Element
  10
-2.275
  20
0.225
  42
0
  0
VERTEX
  8
Element
  10
-2.25
  20
0.175
  42
0
  0
SEQEND
  0
POLYLINE
  8
Element
  6
CONTINUOUS
  66
1
  70
0
  40
0.0049
  41
0.0049
  0
VERTEX
  8
Element
  10
-2.2775
  20
0.225
  42
1
  0
VERTEX
  8
Element
  10
-2.2725
  20
0.225
  42
1
  0
VERTEX
  8
Element
  10
-2.2775
  20
0.225
  42
1
  0
SEQEND
  0
POLYLINE
  8
Element
  6
CONTINUOUS
  66
1
  70
0
  40
0.0049
  41
0.0049
  0
VERTEX
  8
Element
  10
-2.2525
  20
0.175
  42
1
  0
VERTEX
  8
Element
  10
-2.2475
  20
0.175
  42
1
  0
VERTEX
  8
Element
  10
-2.2525
  20
0.175
  42
1
  0
SEQEND
  0
POLYLINE
  8
Element
  6
CONTINUOUS
  66
1
  70
0
  40
0.0098
  41
0.0098
  0
VERTEX
  8
Element
  10
-2.25
  20
0.175
  42
0
  0
VERTEX
  8
Element
  10
-2.225
  20
0.225
  42
0
  0
SEQEND
  0
POLYLINE
  8
Element
  6
CONTINUOUS
  66
1
  70
0
  40
0.0049
  41
0.0049
  0
VERTEX
  8
Element
  10
-2.2525
  20
0.175
  42
1
  0
VERTEX
  8
Element
  10
-2.2475
  20
0.175
  42
1
  0
VERTEX
  8
Element
  10
-2.2525
  20
0.175
  42
1
  0
SEQEND
  0
POLYLINE
  8
Element
  6
CONTINUOUS
  66
1
  70
0
  40
0.0049
  41
0.0049
  0
VERTEX
  8
Element
  10
-2.2275
  20
0.225
  42
1
  0
VERTEX
  8
Element
  10
-2.2225
  20
0.225
  42
1
  0
VERTEX
  8
Element
  10
-2.2275
  20
0.225
  42
1
  0
SEQEND
  0
POLYLINE
  8
Element
  6
CONTINUOUS
  66
1
  70
0
  40
0.0098
  41
0.0098
  0
VERTEX
  8
Element
  10
-2.225
  20
0.225
  42
0
  0
VERTEX
  8
Element
  10
-2.2
  20
0.175
  42
0
  0
SEQEND
  0
POLYLINE
  8
Element
  6
CONTINUOUS
  66
1
  70
0
  40
0.0049
  41
0.0049
  0
VERTEX
  8
Element
  10
-2.2275
  20
0.225
  42
1
  0
VERTEX
  8
Element
  10
-2.2225
  20
0.225
  42
1
  0
VERTEX
  8
Element
  10
-2.2275
  20
0.225
  42
1
  0
SEQEND
  0
POLYLINE
  8
Element
  6
CONTINUOUS
  66
1
  70
0
  40
0.0049
  41
0.0049
  0
VERTEX
  8
Element
  10
-2.2025
  20
0.175
  42
1
  0
VERTEX
  8
Element
  10
-2.1975
  20
0.175
  42
1
  0
VERTEX
  8
Element
  10
-2.2025
  20
0.175
  42
1
  0
SEQEND
  0
POLYLINE
  8
Element
  6
CONTINUOUS
  66
1
  70
0
  40
0.0098
  41
0.0098
  0
VERTEX
  8
Element
  10
-2.2
  20
0.175
  42
0
  0
VERTEX
  8
Element
  10
-2.175
  20
0.225
  42
0
  0
SEQEND
  0
POLYLINE
  8
Element
  6
CONTINUOUS
  66
1
  70
0
  40
0.0049
  41
0.0049
  0
VERTEX
  8
Element
  10
-2.2025
  20
0.175
  42
1
  0
VERTEX
  8
Element
  10
-2.1975
  20
0.175
  42
1
  0
VERTEX
  8
Element
  10
-2.2025
  20
0.175
  42
1
  0
SEQEND
  0
POLYLINE
  8
Element
  6
CONTINUOUS
  66
1
  70
0
  40
0.0049
  41
0.0049
  0
VERTEX
  8
Element
  10
-2.1775
  20
0.225
  42
1
  0
VERTEX
  8
Element
  10
-2.1725
  20
0.225
  42
1
  0
VERTEX
  8
Element
  10
-2.1775
  20
0.225
  42
1
  0
SEQEND
  0
POLYLINE
  8
Element
  6
CONTINUOUS
  66
1
  70
0
  40
0.0098
  41
0.0098
  0
VERTEX
  8
Element
  10
-2.175
  20
0.225
  42
0
  0
VERTEX
  8
Element
  10
-2.15
  20
0.175
  42
0
  0
SEQEND
  0
POLYLINE
  8
Element
  6
CONTINUOUS
  66
1
  70
0
  40
0.0049
  41
0.0049
  0
VERTEX
  8
Element
  10
-2.1775
  20
0.225
  42
1
  0
VERTEX
  8
Element
  10
-2.1725
  20
0.225
  42
1
  0
VERTEX
  8
Element
  10
-2.1775
  20
0.225
  42
1
  0
SEQEND
  0
POLYLINE
  8
Element
  6
CONTINUOUS
  66
1
  70
0
  40
0.0049
  41
0.0049
  0
VERTEX
  8
Element
  10
-2.1525
  20
0.175
  42
1
  0
VERTEX
  8
Element
  10
-2.1475
  20
0.175
  42
1
  0
VERTEX
  8
Element
  10
-2.1525
  20
0.175
  42
1
  0
SEQEND
  0
POLYLINE
  8
Element
  6
CONTINUOUS
  66
1
  70
0
  40
0.0098
  41
0.0098
  0
VERTEX
  8
Element
  10
-2.15
  20
0.175
  42
0
  0
VERTEX
  8
Element
  10
-2.125
  20
0.2
  42
0
  0
SEQEND
  0
POLYLINE
  8
Element
  6
CONTINUOUS
  66
1
  70
0
  40
0.0049
  41
0.0049
  0
VERTEX
  8
Element
  10
-2.1525
  20
0.175
  42
1
  0
VERTEX
  8
Element
  10
-2.1475
  20
0.175
  42
1
  0
VERTEX
  8
Element
  10
-2.1525
  20
0.175
  42
1
  0
SEQEND
  0
POLYLINE
  8
Element
  6
CONTINUOUS
  66
1
  70
0
  40
0.0049
  41
0.0049
  0
VERTEX
  8
Element
  10
-2.1275
  20
0.2
  42
1
  0
VERTEX
  8
Element
  10
-2.1225
  20
0.2
  42
1
  0
VERTEX
  8
Element
  10
-2.1275
  20
0.2
  42
1
  0
SEQEND
  0
POLYLINE
  8
Element
  6
CONTINUOUS
  66
1
  70
0
  40
0.0098
  41
0.0098
  0
VERTEX
  8
Element
  10
-2.3
  20
0.2
  42
0
  0
VERTEX
  8
Element
  10
-2.3875
  20
0.2
  42
0
  0
SEQEND
  0
POLYLINE
  8
Element
  6
CONTINUOUS
  66
1
  70
0
  40
0.0049
  41
0.0049
  0
VERTEX
  8
Element
  10
-2.3025
  20
0.2
  42
1
  0
VERTEX
  8
Element
  10
-2.2975
  20
0.2
  42
1
  0
VERTEX
  8
Element
  10
-2.3025
  20
0.2
  42
1
  0
SEQEND
  0
POLYLINE
  8
Element
  6
CONTINUOUS
  66
1
  70
0
  40
0.0049
  41
0.0049
  0
VERTEX
  8
Element
  10
-2.39
  20
0.2
  42
1
  0
VERTEX
  8
Element
  10
-2.385
  20
0.2
  42
1
  0
VERTEX
  8
Element
  10
-2.39
  20
0.2
  42
1
  0
SEQEND
  0
POLYLINE
  8
Element
  6
CONTINUOUS
  66
1
  70
0
  40
0.0098
  41
0.0098
  0
VERTEX
  8
Element
  10
-2.125
  20
0.2
  42
0
  0
VERTEX
  8
Element
  10
-2.0375
  20
0.2
  42
0
  0
SEQEND
  0
POLYLINE
  8
Element
  6
CONTINUOUS
  66
1
  70
0
  40
0.0049
  41
0.0049
  0
VERTEX
  8
Element
  10
-2.1275
  20
0.2
  42
1
  0
VERTEX
  8
Element
  10
-2.1225
  20
0.2
  42
1
  0
VERTEX
  8
Element
  10
-2.1275
  20
0.2
  42
1
  0
SEQEND
  0
POLYLINE
  8
Element
  6
CONTINUOUS
  66
1
  70
0
  40
0.0049
  41
0.0049
  0
VERTEX
  8
Element
  10
-2.04
  20
0.2
  42
1
  0
VERTEX
  8
Element
  10
-2.035
  20
0.2
  42
1
  0
VERTEX
  8
Element
  10
-2.04
  20
0.2
  42
1
  0
SEQEND
  0
POLYLINE
  8
Element
  6
CONTINUOUS
  66
1
  70
0
  40
0.0098
  41
0.0098
  0
VERTEX
  8
Element
  10
-2.425
  20
1.85
  42
0
  0
VERTEX
  8
Element
  10
-2.275
  20
1.85
  42
0
  0
SEQEND
  0
POLYLINE
  8
Element
  6
CONTINUOUS
  66
1
  70
0
  40
0.0049
  41
0.0049
  0
VERTEX
  8
Element
  10
-2.4275
  20
1.85
  42
1
  0
VERTEX
  8
Element
  10
-2.4225
  20
1.85
  42
1
  0
VERTEX
  8
Element
  10
-2.4275
  20
1.85
  42
1
  0
SEQEND
  0
POLYLINE
  8
Element
  6
CONTINUOUS
  66
1
  70
0
  40
0.0049
  41
0.0049
  0
VERTEX
  8
Element
  10
-2.2775
  20
1.85
  42
1
  0
VERTEX
  8
Element
  10
-2.2725
  20
1.85
  42
1
  0
VERTEX
  8
Element
  10
-2.2775
  20
1.85
  42
1
  0
SEQEND
  0
POLYLINE
  8
Element
  6
CONTINUOUS
  66
1
  70
0
  40
0.0098
  41
0.0098
  0
VERTEX
  8
Element
  10
-2.4
  20
1.81
  42
0
  0
VERTEX
  8
Element
  10
-2.3
  20
1.81
  42
0
  0
SEQEND
  0
POLYLINE
  8
Element
  6
CONTINUOUS
  66
1
  70
0
  40
0.0049
  41
0.0049
  0
VERTEX
  8
Element
  10
-2.4025
  20
1.81
  42
1
  0
VERTEX
  8
Element
  10
-2.3975
  20
1.81
  42
1
  0
VERTEX
  8
Element
  10
-2.4025
  20
1.81
  42
1
  0
SEQEND
  0
POLYLINE
  8
Element
  6
CONTINUOUS
  66
1
  70
0
  40
0.0049
  41
0.0049
  0
VERTEX
  8
Element
  10
-2.3025
  20
1.81
  42
1
  0
VERTEX
  8
Element
  10
-2.2975
  20
1.81
  42
1
  0
VERTEX
  8
Element
  10
-2.3025
  20
1.81
  42
1
  0
SEQEND
  0
POLYLINE
  8
Element
  6
CONTINUOUS
  66
1
  70
0
  40
0.0098
  41
0.0098
  0
VERTEX
  8
Element
  10
-2.37
  20
1.77
  42
0
  0
VERTEX
  8
Element
  10
-2.33
  20
1.77
  42
0
  0
SEQEND
  0
POLYLINE
  8
Element
  6
CONTINUOUS
  66
1
  70
0
  40
0.0049
  41
0.0049
  0
VERTEX
  8
Element
  10
-2.3725
  20
1.77
  42
1
  0
VERTEX
  8
Element
  10
-2.3675
  20
1.77
  42
1
  0
VERTEX
  8
Element
  10
-2.3725
  20
1.77
  42
1
  0
SEQEND
  0
POLYLINE
  8
Element
  6
CONTINUOUS
  66
1
  70
0
  40
0.0049
  41
0.0049
  0
VERTEX
  8
Element
  10
-2.3325
  20
1.77
  42
1
  0
VERTEX
  8
Element
  10
-2.3275
  20
1.77
  42
1
  0
VERTEX
  8
Element
  10
-2.3325
  20
1.77
  42
1
  0
SEQEND
  0
POLYLINE
  8
Element
  6
CONTINUOUS
  66
1
  70
0
  40
0.0098
  41
0.0098
  0
VERTEX
  8
Element
  10
-2.525
  20
-0.05
  42
0
  0
VERTEX
  8
Element
  10
-2.375
  20
-0.05
  42
0
  0
SEQEND
  0
POLYLINE
  8
Element
  6
CONTINUOUS
  66
1
  70
0
  40
0.0049
  41
0.0049
  0
VERTEX
  8
Element
  10
-2.5275
  20
-0.05
  42
1
  0
VERTEX
  8
Element
  10
-2.5225
  20
-0.05
  42
1
  0
VERTEX
  8
Element
  10
-2.5275
  20
-0.05
  42
1
  0
SEQEND
  0
POLYLINE
  8
Element
  6
CONTINUOUS
  66
1
  70
0
  40
0.0049
  41
0.0049
  0
VERTEX
  8
Element
  10
-2.3775
  20
-0.05
  42
1
  0
VERTEX
  8
Element
  10
-2.3725
  20
-0.05
  42
1
  0
VERTEX
  8
Element
  10
-2.3775
  20
-0.05
  42
1
  0
SEQEND
  0
POLYLINE
  8
Element
  6
CONTINUOUS
  66
1
  70
0
  40
0.0098
  41
0.0098
  0
VERTEX
  8
Element
  10
-2.5
  20
-0.09
  42
0
  0
VERTEX
  8
Element
  10
-2.4
  20
-0.09
  42
0
  0
SEQEND
  0
POLYLINE
  8
Element
  6
CONTINUOUS
  66
1
  70
0
  40
0.0049
  41
0.0049
  0
VERTEX
  8
Element
  10
-2.5025
  20
-0.09
  42
1
  0
VERTEX
  8
Element
  10
-2.4975
  20
-0.09
  42
1
  0
VERTEX
  8
Element
  10
-2.5025
  20
-0.09
  42
1
  0
SEQEND
  0
POLYLINE
  8
Element
  6
CONTINUOUS
  66
1
  70
0
  40
0.0049
  41
0.0049
  0
VERTEX
  8
Element
  10
-2.4025
  20
-0.09
  42
1
  0
VERTEX
  8
Element
  10
-2.3975
  20
-0.09
  42
1
  0
VERTEX
  8
Element
  10
-2.4025
  20
-0.09
  42
1
  0
SEQEND
  0
POLYLINE
  8
Element
  6
CONTINUOUS
  66
1
  70
0
  40
0.0098
  41
0.0098
  0
VERTEX
  8
Element
  10
-2.47
  20
-0.13
  42
0
  0
VERTEX
  8
Element
  10
-2.43
  20
-0.13
  42
0
  0
SEQEND
  0
POLYLINE
  8
Element
  6
CONTINUOUS
  66
1
  70
0
  40
0.0049
  41
0.0049
  0
VERTEX
  8
Element
  10
-2.4725
  20
-0.13
  42
1
  0
VERTEX
  8
Element
  10
-2.4675
  20
-0.13
  42
1
  0
VERTEX
  8
Element
  10
-2.4725
  20
-0.13
  42
1
  0
SEQEND
  0
POLYLINE
  8
Element
  6
CONTINUOUS
  66
1
  70
0
  40
0.0049
  41
0.0049
  0
VERTEX
  8
Element
  10
-2.4325
  20
-0.13
  42
1
  0
VERTEX
  8
Element
  10
-2.4275
  20
-0.13
  42
1
  0
VERTEX
  8
Element
  10
-2.4325
  20
-0.13
  42
1
  0
SEQEND
  0
POLYLINE
  8
Element
  6
CONTINUOUS
  66
1
  70
0
  40
0.0098
  41
0.0098
  0
VERTEX
  8
Element
  10
-0.975
  20
-0.95
  42
0
  0
VERTEX
  8
Element
  10
-0.825
  20
-0.95
  42
0
  0
SEQEND
  0
POLYLINE
  8
Element
  6
CONTINUOUS
  66
1
  70
0
  40
0.0049
  41
0.0049
  0
VERTEX
  8
Element
  10
-0.9775
  20
-0.95
  42
1
  0
VERTEX
  8
Element
  10
-0.9725
  20
-0.95
  42
1
  0
VERTEX
  8
Element
  10
-0.9775
  20
-0.95
  42
1
  0
SEQEND
  0
POLYLINE
  8
Element
  6
CONTINUOUS
  66
1
  70
0
  40
0.0049
  41
0.0049
  0
VERTEX
  8
Element
  10
-0.8275
  20
-0.95
  42
1
  0
VERTEX
  8
Element
  10
-0.8225
  20
-0.95
  42
1
  0
VERTEX
  8
Element
  10
-0.8275
  20
-0.95
  42
1
  0
SEQEND
  0
POLYLINE
  8
Element
  6
CONTINUOUS
  66
1
  70
0
  40
0.0098
  41
0.0098
  0
VERTEX
  8
Element
  10
-0.95
  20
-0.99
  42
0
  0
VERTEX
  8
Element
  10
-0.85
  20
-0.99
  42
0
  0
SEQEND
  0
POLYLINE
  8
Element
  6
CONTINUOUS
  66
1
  70
0
  40
0.0049
  41
0.0049
  0
VERTEX
  8
Element
  10
-0.9525
  20
-0.99
  42
1
  0
VERTEX
  8
Element
  10
-0.9475
  20
-0.99
  42
1
  0
VERTEX
  8
Element
  10
-0.9525
  20
-0.99
  42
1
  0
SEQEND
  0
POLYLINE
  8
Element
  6
CONTINUOUS
  66
1
  70
0
  40
0.0049
  41
0.0049
  0
VERTEX
  8
Element
  10
-0.8525
  20
-0.99
  42
1
  0
VERTEX
  8
Element
  10
-0.8475
  20
-0.99
  42
1
  0
VERTEX
  8
Element
  10
-0.8525
  20
-0.99
  42
1
  0
SEQEND
  0
POLYLINE
  8
Element
  6
CONTINUOUS
  66
1
  70
0
  40
0.0098
  41
0.0098
  0
VERTEX
  8
Element
  10
-0.92
  20
-1.03
  42
0
  0
VERTEX
  8
Element
  10
-0.88
  20
-1.03
  42
0
  0
SEQEND
  0
POLYLINE
  8
Element
  6
CONTINUOUS
  66
1
  70
0
  40
0.0049
  41
0.0049
  0
VERTEX
  8
Element
  10
-0.9225
  20
-1.03
  42
1
  0
VERTEX
  8
Element
  10
-0.9175
  20
-1.03
  42
1
  0
VERTEX
  8
Element
  10
-0.9225
  20
-1.03
  42
1
  0
SEQEND
  0
POLYLINE
  8
Element
  6
CONTINUOUS
  66
1
  70
0
  40
0.0049
  41
0.0049
  0
VERTEX
  8
Element
  10
-0.8825
  20
-1.03
  42
1
  0
VERTEX
  8
Element
  10
-0.8775
  20
-1.03
  42
1
  0
VERTEX
  8
Element
  10
-0.8825
  20
-1.03
  42
1
  0
SEQEND
  0
POLYLINE
  8
Element
  6
CONTINUOUS
  66
1
  70
0
  40
0.0098
  41
0.0098
  0
VERTEX
  8
Element
  10
-1.45
  20
1.7
  42
0
  0
VERTEX
  8
Element
  10
-1.45
  20
2.2
  42
0
  0
SEQEND
  0
POLYLINE
  8
Element
  6
CONTINUOUS
  66
1
  70
0
  40
0.0049
  41
0.0049
  0
VERTEX
  8
Element
  10
-1.4525
  20
1.7
  42
1
  0
VERTEX
  8
Element
  10
-1.4475
  20
1.7
  42
1
  0
VERTEX
  8
Element
  10
-1.4525
  20
1.7
  42
1
  0
SEQEND
  0
POLYLINE
  8
Element
  6
CONTINUOUS
  66
1
  70
0
  40
0.0049
  41
0.0049
  0
VERTEX
  8
Element
  10
-1.4525
  20
2.2
  42
1
  0
VERTEX
  8
Element
  10
-1.4475
  20
2.2
  42
1
  0
VERTEX
  8
Element
  10
-1.4525
  20
2.2
  42
1
  0
SEQEND
  0
POLYLINE
  8
Element
  6
CONTINUOUS
  66
1
  70
0
  40
0.0098
  41
0.0098
  0
VERTEX
  8
Element
  10
-1.45
  20
2.2
  42
0
  0
VERTEX
  8
Element
  10
-1.0
  20
1.95
  42
0
  0
SEQEND
  0
POLYLINE
  8
Element
  6
CONTINUOUS
  66
1
  70
0
  40
0.0049
  41
0.0049
  0
VERTEX
  8
Element
  10
-1.4525
  20
2.2
  42
1
  0
VERTEX
  8
Element
  10
-1.4475
  20
2.2
  42
1
  0
VERTEX
  8
Element
  10
-1.4525
  20
2.2
  42
1
  0
SEQEND
  0
POLYLINE
  8
Element
  6
CONTINUOUS
  66
1
  70
0
  40
0.0049
  41
0.0049
  0
VERTEX
  8
Element
  10
-1.0025
  20
1.95
  42
1
  0
VERTEX
  8
Element
  10
-0.9975
  20
1.95
  42
1
  0
VERTEX
  8
Element
  10
-1.0025
  20
1.95
  42
1
  0
SEQEND
  0
POLYLINE
  8
Element
  6
CONTINUOUS
  66
1
  70
0
  40
0.0098
  41
0.0098
  0
VERTEX
  8
Element
  10
-1.0
  20
1.95
  42
0
  0
VERTEX
  8
Element
  10
-1.45
  20
1.7
  42
0
  0
SEQEND
  0
POLYLINE
  8
Element
  6
CONTINUOUS
  66
1
  70
0
  40
0.0049
  41
0.0049
  0
VERTEX
  8
Element
  10
-1.0025
  20
1.95
  42
1
  0
VERTEX
  8
Element
  10
-0.9975
  20
1.95
  42
1
  0
VERTEX
  8
Element
  10
-1.0025
  20
1.95
  42
1
  0
SEQEND
  0
POLYLINE
  8
Element
  6
CONTINUOUS
  66
1
  70
0
  40
0.0049
  41
0.0049
  0
VERTEX
  8
Element
  10
-1.4525
  20
1.7
  42
1
  0
VERTEX
  8
Element
  10
-1.4475
  20
1.7
  42
1
  0
VERTEX
  8
Element
  10
-1.4525
  20
1.7
  42
1
  0
SEQEND
  0
POLYLINE
  8
Element
  6
CONTINUOUS
  66
1
  70
0
  40
0.0098
  41
0.0098
  0
VERTEX
  8
Element
  10
-1.55
  20
-0.2
  42
0
  0
VERTEX
  8
Element
  10
-1.55
  20
0.3
  42
0
  0
SEQEND
  0
POLYLINE
  8
Element
  6
CONTINUOUS
  66
1
  70
0
  40
0.0049
  41
0.0049
  0
VERTEX
  8
Element
  10
-1.5525
  20
-0.2
  42
1
  0
VERTEX
  8
Element
  10
-1.5475
  20
-0.2
  42
1
  0
VERTEX
  8
Element
  10
-1.5525
  20
-0.2
  42
1
  0
SEQEND
  0
POLYLINE
  8
Element
  6
CONTINUOUS
  66
1
  70
0
  40
0.0049
  41
0.0049
  0
VERTEX
  8
Element
  10
-1.5525
  20
0.3
  42
1
  0
VERTEX
  8
Element
  10
-1.5475
  20
0.3
  42
1
  0
VERTEX
  8
Element
  10
-1.5525
  20
0.3
  42
1
  0
SEQEND
  0
POLYLINE
  8
Element
  6
CONTINUOUS
  66
1
  70
0
  40
0.0098
  41
0.0098
  0
VERTEX
  8
Element
  10
-1.55
  20
0.3
  42
0
  0
VERTEX
  8
Element
  10
-1.1
  20
0.05
  42
0
  0
SEQEND
  0
POLYLINE
  8
Element
  6
CONTINUOUS
  66
1
  70
0
  40
0.0049
  41
0.0049
  0
VERTEX
  8
Element
  10
-1.5525
  20
0.3
  42
1
  0
VERTEX
  8
Element
  10
-1.5475
  20
0.3
  42
1
  0
VERTEX
  8
Element
  10
-1.5525
  20
0.3
  42
1
  0
SEQEND
  0
POLYLINE
  8
Element
  6
CONTINUOUS
  66
1
  70
0
  40
0.0049
  41
0.0049
  0
VERTEX
  8
Element
  10
-1.1025
  20
0.05
  42
1
  0
VERTEX
  8
Element
  10
-1.0975
  20
0.05
  42
1
  0
VERTEX
  8
Element
  10
-1.1025
  20
0.05
  42
1
  0
SEQEND
  0
POLYLINE
  8
Element
  6
CONTINUOUS
  66
1
  70
0
  40
0.0098
  41
0.0098
  0
VERTEX
  8
Element
  10
-1.1
  20
0.05
  42
0
  0
VERTEX
  8
Element
  10
-1.55
  20
-0.2
  42
0
  0
SEQEND
  0
POLYLINE
  8
Element
  6
CONTINUOUS
  66
1
  70
0
  40
0.0049
  41
0.0049
  0
VERTEX
  8
Element
  10
-1.1025
  20
0.05
  42
1
  0
VERTEX
  8
Element
  10
-1.0975
  20
0.05
  42
1
  0
VERTEX
  8
Element
  10
-1.1025
  20
0.05
  42
1
  0
SEQEND
  0
POLYLINE
  8
Element
  6
CONTINUOUS
  66
1
  70
0
  40
0.0049
  41
0.0049
  0
VERTEX
  8
Element
  10
-1.5525
  20
-0.2
  42
1
  0
VERTEX
  8
Element
  10
-1.5475
  20
-0.2
  42
1
  0
VERTEX
  8
Element
  10
-1.5525
  20
-0.2
  42
1
  0
SEQEND
  0
POLYLINE
  8
Element
  6
CONTINUOUS
  66
1
  70
0
  40
0.0098
  41
0.0098
  0
VERTEX
  8
Element
  10
-1.55
  20
-0.5
  42
0
  0
VERTEX
  8
Element
  10
-1.2
  20
-0.5
  42
0
  0
VERTEX
  8
Element
  10
-1.2
  20
-0.75
  42
0
  0
VERTEX
  8
Element
  10
-1.55
  20
-0.75
  42
0
  0
VERTEX
  8
Element
  10
-1.55
  20
-0.5
  42
0
  0
SEQEND
  0
POLYLINE
  8
Element
  6
CONTINUOUS
  66
1
  70
0
  40
0.0131
  41
0.0131
  0
VERTEX
  8
Element
  10
-4.0106
  20
3.1
  42
0
  0
VERTEX
  8
Element
  10
-4.0126
  20
3.1122
  42
0
  0
VERTEX
  8
Element
  10
-4.0181
  20
3.1231
  42
0
  0
VERTEX
  8
Element
  10
-4.0269
  20
3.1319
  42
0
  0
VERTEX
  8
Element
  10
-4.0378
  20
3.1374
  42
0
  0
VERTEX
  8
Element
  10
-4.05
  20
3.1394
  42
0
  0
VERTEX
  8
Element
  10
-4.0622
  20
3.1374
  42
0
  0
VERTEX
  8
Element
  10
-4.0731
  20
3.1319
  42
0
  0
VERTEX
  8
Element
  10
-4.0819
  20
3.1231
  42
0
  0
VERTEX
  8
Element
  10
-4.0874
  20
3.1122
  42
0
  0
VERTEX
  8
Element
  10
-4.0894
  20
3.1
  42
0
  0
VERTEX
  8
Element
  10
-4.0874
  20
3.0878
  42
0
  0
VERTEX
  8
Element
  10
-4.0819
  20
3.0769
  42
0
  0
VERTEX
  8
Element
  10
-4.0731
  20
3.0681
  42
0
  0
VERTEX
  8
Element
  10
-4.0622
  20
3.0626
  42
0
  0
VERTEX
  8
Element
  10
-4.05
  20
3.0606
  42
0
  0
VERTEX
  8
Element
  10
-4.0378
  20
3.0626
  42
0
  0
VERTEX
  8
Element
  10
-4.0269
  20
3.0681
  42
0
  0
VERTEX
  8
Element
  10
-4.0181
  20
3.0769
  42
0
  0
VERTEX
  8
Element
  10
-4.0126
  20
3.0878
  42
0
  0
VERTEX
  8
Element
  10
-4.0106
  20
3.1
  42
0
  0
SEQEND
  0
POLYLINE
  8
Element
  6
CONTINUOUS
  66
1
  70
0
  40
0.0066
  41
0.0066
  0
VERTEX
  8
Element
  10
-4.0139
  20
3.1
  42
1
  0
VERTEX
  8
Element
  10
-4.0073
  20
3.1
  42
1
  0
VERTEX
  8
Element
  10
-4.0139
  20
3.1
  42
1
  0
SEQEND
  0
POLYLINE
  8
Element
  6
CONTINUOUS
  66
1
  70
0
  40
0.0131
  41
0.0131
  0
VERTEX
  8
Element
  10
-4.3256
  20
3.3362
  42
0
  0
VERTEX
  8
Element
  10
-3.9713
  20
3.3362
  42
0
  0
VERTEX
  8
Element
  10
-3.9713
  20
3.205
  42
0
  0
VERTEX
  8
Element
  10
-4.3256
  20
3.205
  42
0
  0
VERTEX
  8
Element
  10
-4.3256
  20
3.3362
  42
0
  0
SEQEND
  0
POLYLINE
  8
Element
  6
CONTINUOUS
  66
1
  70
0
  40
0.0131
  41
0.0131
  0
VERTEX
  8
Element
  10
-4.05
  20
3.205
  42
0
  0
VERTEX
  8
Element
  10
-4.05
  20
3.1394
  42
0
  0
SEQEND
  0
POLYLINE
  8
Element
  6
CONTINUOUS
  66
1
  70
0
  40
0.0066
  41
0.0066
  0
VERTEX
  8
Element
  10
-4.0533
  20
3.205
  42
1
  0
VERTEX
  8
Element
  10
-4.0467
  20
3.205
  42
1
  0
VERTEX
  8
Element
  10
-4.0533
  20
3.205
  42
1
  0
SEQEND
  0
POLYLINE
  8
Element
  6
CONTINUOUS
  66
1
  70
0
  40
0.0066
  41
0.0066
  0
VERTEX
  8
Element
  10
-4.0533
  20
3.1394
  42
1
  0
VERTEX
  8
Element
  10
-4.0467
  20
3.1394
  42
1
  0
VERTEX
  8
Element
  10
-4.0533
  20
3.1394
  42
1
  0
SEQEND
  0
TEXT
  8
Element
  10
-4.2993
  20
3.31
  40
0.0437
  41
0.7
  1
Main_bus
  50
0.0
  72
0
  73
3
  7
STANDARD
  71
0
  11
-4.2993
  21
3.31
  0
TEXT
  8
Element
  10
-3.3091
  20
1.4688
  40
0.0547
  41
0.7
  1
D1
  50
90.0
  72
1
  73
1
  7
STANDARD
  71
0
  11
-3.3091
  21
1.4688
  0
TEXT
  8
Element
  10
-3.1909
  20
1.4688
  40
0.0547
  41
0.7
  1

  50
90.0
  72
1
  73
3
  7
STANDARD
  71
0
  11
-3.1909
  21
1.4688
  0
TEXT
  8
Element
  10
-3.3091
  20
2.1688
  40
0.0547
  41
0.7
  1
D2
  50
90.0
  72
1
  73
1
  7
STANDARD
  71
0
  11
-3.3091
  21
2.1688
  0
TEXT
  8
Element
  10
-3.1909
  20
2.1688
  40
0.0547
  41
0.7
  1

  50
90.0
  72
1
  73
3
  7
STANDARD
  71
0
  11
-3.1909
  21
2.1688
  0
TEXT
  8
Element
  10
-3.3091
  20
0.1188
  40
0.0547
  41
0.7
  1
D3
  50
90.0
  72
1
  73
1
  7
STANDARD
  71
0
  11
-3.3091
  21
0.1188
  0
TEXT
  8
Element
  10
-3.1909
  20
0.1188
  40
0.0547
  41
0.7
  1

  50
90.0
  72
1
  73
3
  7
STANDARD
  71
0
  11
-3.1909
  21
0.1188
  0
TEXT
  8
Element
  10
-3.3091
  20
-0.5312
  40
0.0547
  41
0.7
  1
D4
  50
90.0
  72
1
  73
1
  7
STANDARD
  71
0
  11
-3.3091
  21
-0.5312
  0
TEXT
  8
Element
  10
-3.1909
  20
-0.5312
  40
0.0547
  41
0.7
  1

  50
90.0
  72
1
  73
3
  7
STANDARD
  71
0
  11
-3.1909
  21
-0.5312
  0
TEXT
  8
Element
  10
-3.325
  20
1.01
  40
0.0547
  41
0.7
  1
GND
  50
90.0
  72
1
  73
1
  7
STANDARD
  71
0
  11
-3.325
  21
1.01
  0
TEXT
  8
Element
  10
-3.325
  20
-0.89
  40
0.0547
  41
0.7
  1
GND
  50
90.0
  72
1
  73
1
  7
STANDARD
  71
0
  11
-3.325
  21
-0.89
  0
TEXT
  8
Element
  10
-2.1125
  20
2.1591
  40
0.0547
  41
0.7
  1
R2
  50
0.0
  72
1
  73
1
  7
STANDARD
  71
0
  11
-2.1125
  21
2.1591
  0
TEXT
  8
Element
  10
-2.1125
  20
2.0409
  40
0.0547
  41
0.7
  1

  50
0.0
  72
1
  73
3
  7
STANDARD
  71
0
  11
-2.1125
  21
2.0409
  0
TEXT
  8
Element
  10
-1.3625
  20
2.7091
  40
0.0547
  41
0.7
  1
R1
  50
0.0
  72
1
  73
1
  7
STANDARD
  71
0
  11
-1.3625
  21
2.7091
  0
TEXT
  8
Element
  10
-1.3625
  20
2.5909
  40
0.0547
  41
0.7
  1

  50
0.0
  72
1
  73
3
  7
STANDARD
  71
0
  11
-1.3625
  21
2.5909
  0
TEXT
  8
Element
  10
-1.3625
  20
0.7591
  40
0.0547
  41
0.7
  1
R3
  50
0.0
  72
1
  73
1
  7
STANDARD
  71
0
  11
-1.3625
  21
0.7591
  0
TEXT
  8
Element
  10
-1.3625
  20
0.6409
  40
0.0547
  41
0.7
  1

  50
0.0
  72
1
  73
3
  7
STANDARD
  71
0
  11
-1.3625
  21
0.6409
  0
TEXT
  8
Element
  10
-2.2125
  20
0.2591
  40
0.0547
  41
0.7
  1
R4
  50
0.0
  72
1
  73
1
  7
STANDARD
  71
0
  11
-2.2125
  21
0.2591
  0
TEXT
  8
Element
  10
-2.2125
  20
0.1409
  40
0.0547
  41
0.7
  1

  50
0.0
  72
1
  73
3
  7
STANDARD
  71
0
  11
-2.2125
  21
0.1409
  0
TEXT
  8
Element
  10
-2.425
  20
1.81
  40
0.0547
  41
0.7
  1
GND
  50
90.0
  72
1
  73
1
  7
STANDARD
  71
0
  11
-2.425
  21
1.81
  0
TEXT
  8
Element
  10
-2.525
  20
-0.09
  40
0.0547
  41
0.7
  1
GND
  50
90.0
  72
1
  73
1
  7
STANDARD
  71
0
  11
-2.525
  21
-0.09
  0
TEXT
  8
Element
  10
-0.975
  20
-0.99
  40
0.0547
  41
0.7
  1
GND
  50
90.0
  72
1
  73
1
  7
STANDARD
  71
0
  11
-0.975
  21
-0.99
  0
TEXT
  8
Element
  10
-1.225
  20
2.2
  40
0.0547
  41
0.7
  1
U5.1
  50
0.0
  72
1
  73
1
  7
STANDARD
  71
0
  11
-1.225
  21
2.2
  0
TEXT
  8
Element
  10
-1.225
  20
1.7
  40
0.0547
  41
0.7
  1
AD8602AR
  50
0.0
  72
1
  73
3
  7
STANDARD
  71
0
  11
-1.225
  21
1.7
  0
TEXT
  8
Element
  10
-1.325
  20
0.3
  40
0.0547
  41
0.7
  1
U5.2
  50
0.0
  72
1
  73
1
  7
STANDARD
  71
0
  11
-1.325
  21
0.3
  0
TEXT
  8
Element
  10
-1.325
  20
-0.2
  40
0.0547
  41
0.7
  1
AD8602AR
  50
0.0
  72
1
  73
3
  7
STANDARD
  71
0
  11
-1.325
  21
-0.2
  0
TEXT
  8
Element
  10
-1.375
  20
-0.5
  40
0.0547
  41
0.7
  1
U5.3
  50
0.0
  72
1
  73
1
  7
STANDARD
  71
0
  11
-1.375
  21
-0.5
  0
TEXT
  8
Element
  10
-1.375
  20
-0.75
  40
0.0547
  41
0.7
  1
AD8602AR
  50
0.0
  72
1
  73
3
  7
STANDARD
  71
0
  11
-1.375
  21
-0.75
  0
POLYLINE
  8
Bus
  6
CONTINUOUS
  66
1
  70
0
  40
0.0262
  41
0.0262
  0
VERTEX
  8
Bus
  10
-4.05
  20
3.1
  42
0
  0
VERTEX
  8
Bus
  10
-3.9
  20
3.1
  42
0
  0
SEQEND
  0
POLYLINE
  8
Bus
  6
CONTINUOUS
  66
1
  70
0
  40
0.0131
  41
0.0131
  0
VERTEX
  8
Bus
  10
-4.0566
  20
3.1
  42
1
  0
VERTEX
  8
Bus
  10
-4.0434
  20
3.1
  42
1
  0
VERTEX
  8
Bus
  10
-4.0566
  20
3.1
  42
1
  0
SEQEND
  0
POLYLINE
  8
Bus
  6
CONTINUOUS
  66
1
  70
0
  40
0.0131
  41
0.0131
  0
VERTEX
  8
Bus
  10
-3.9066
  20
3.1
  42
1
  0
VERTEX
  8
Bus
  10
-3.8934
  20
3.1
  42
1
  0
VERTEX
  8
Bus
  10
-3.9066
  20
3.1
  42
1
  0
SEQEND
  0
POLYLINE
  8
Bus
  6
CONTINUOUS
  66
1
  70
0
  40
0.0262
  41
0.0262
  0
VERTEX
  8
Bus
  10
-3.9
  20
3.1
  42
0
  0
VERTEX
  8
Bus
  10
-3.9
  20
-2.65
  42
0
  0
SEQEND
  0
POLYLINE
  8
Bus
  6
CONTINUOUS
  66
1
  70
0
  40
0.0131
  41
0.0131
  0
VERTEX
  8
Bus
  10
-3.9066
  20
3.1
  42
1
  0
VERTEX
  8
Bus
  10
-3.8934
  20
3.1
  42
1
  0
VERTEX
  8
Bus
  10
-3.9066
  20
3.1
  42
1
  0
SEQEND
  0
POLYLINE
  8
Bus
  6
CONTINUOUS
  66
1
  70
0
  40
0.0131
  41
0.0131
  0
VERTEX
  8
Bus
  10
-3.9066
  20
-2.65
  42
1
  0
VERTEX
  8
Bus
  10
-3.8934
  20
-2.65
  42
1
  0
VERTEX
  8
Bus
  10
-3.9066
  20
-2.65
  42
1
  0
SEQEND
  0
POLYLINE
  8
Bus
  6
CONTINUOUS
  66
1
  70
0
  40
0.0262
  41
0.0262
  0
VERTEX
  8
Bus
  10
-3.9
  20
-2.65
  42
0
  0
VERTEX
  8
Bus
  10
0.15
  20
-2.65
  42
0
  0
SEQEND
  0
POLYLINE
  8
Bus
  6
CONTINUOUS
  66
1
  70
0
  40
0.0131
  41
0.0131
  0
VERTEX
  8
Bus
  10
-3.9066
  20
-2.65
  42
1
  0
VERTEX
  8
Bus
  10
-3.8934
  20
-2.65
  42
1
  0
VERTEX
  8
Bus
  10
-3.9066
  20
-2.65
  42
1
  0
SEQEND
  0
POLYLINE
  8
Bus
  6
CONTINUOUS
  66
1
  70
0
  40
0.0131
  41
0.0131
  0
VERTEX
  8
Bus
  10
0.1434
  20
-2.65
  42
1
  0
VERTEX
  8
Bus
  10
0.1566
  20
-2.65
  42
1
  0
VERTEX
  8
Bus
  10
0.1434
  20
-2.65
  42
1
  0
SEQEND
  0
POLYLINE
  8
Bus
  6
CONTINUOUS
  66
1
  70
0
  40
0.0262
  41
0.0262
  0
VERTEX
  8
Bus
  10
0.15
  20
-2.65
  42
0
  0
VERTEX
  8
Bus
  10
0.15
  20
2.95
  42
0
  0
SEQEND
  0
POLYLINE
  8
Bus
  6
CONTINUOUS
  66
1
  70
0
  40
0.0131
  41
0.0131
  0
VERTEX
  8
Bus
  10
0.1434
  20
-2.65
  42
1
  0
VERTEX
  8
Bus
  10
0.1566
  20
-2.65
  42
1
  0
VERTEX
  8
Bus
  10
0.1434
  20
-2.65
  42
1
  0
SEQEND
  0
POLYLINE
  8
Bus
  6
CONTINUOUS
  66
1
  70
0
  40
0.0131
  41
0.0131
  0
VERTEX
  8
Bus
  10
0.1434
  20
2.95
  42
1
  0
VERTEX
  8
Bus
  10
0.1566
  20
2.95
  42
1
  0
VERTEX
  8
Bus
  10
0.1434
  20
2.95
  42
1
  0
SEQEND
  0
POLYLINE
  8
Net
  6
CONTINUOUS
  66
1
  70
0
  40
0.0098
  41
0.0098
  0
VERTEX
  8
Net
  10
-3.25
  20
2.4375
  42
0
  0
VERTEX
  8
Net
  10
-3.25
  20
2.65
  42
0
  0
SEQEND
  0
POLYLINE
  8
Net
  6
CONTINUOUS
  66
1
  70
0
  40
0.0049
  41
0.0049
  0
VERTEX
  8
Net
  10
-3.2525
  20
2.4375
  42
1
  0
VERTEX
  8
Net
  10
-3.2475
  20
2.4375
  42
1
  0
VERTEX
  8
Net
  10
-3.2525
  20
2.4375
  42
1
  0
SEQEND
  0
POLYLINE
  8
Net
  6
CONTINUOUS
  66
1
  70
0
  40
0.0049
  41
0.0049
  0
VERTEX
  8
Net
  10
-3.2525
  20
2.65
  42
1
  0
VERTEX
  8
Net
  10
-3.2475
  20
2.65
  42
1
  0
VERTEX
  8
Net
  10
-3.2525
  20
2.65
  42
1
  0
SEQEND
  0
POLYLINE
  8
Net
  6
CONTINUOUS
  66
1
  70
0
  40
0.0098
  41
0.0098
  0
VERTEX
  8
Net
  10
-3.25
  20
2.65
  42
0
  0
VERTEX
  8
Net
  10
-3.05
  20
2.65
  42
0
  0
SEQEND
  0
POLYLINE
  8
Net
  6
CONTINUOUS
  66
1
  70
0
  40
0.0049
  41
0.0049
  0
VERTEX
  8
Net
  10
-3.2525
  20
2.65
  42
1
  0
VERTEX
  8
Net
  10
-3.2475
  20
2.65
  42
1
  0
VERTEX
  8
Net
  10
-3.2525
  20
2.65
  42
1
  0
SEQEND
  0
POLYLINE
  8
Net
  6
CONTINUOUS
  66
1
  70
0
  40
0.0049
  41
0.0049
  0
VERTEX
  8
Net
  10
-3.0525
  20
2.65
  42
1
  0
VERTEX
  8
Net
  10
-3.0475
  20
2.65
  42
1
  0
VERTEX
  8
Net
  10
-3.0525
  20
2.65
  42
1
  0
SEQEND
  0
POLYLINE
  8
Net
  6
CONTINUOUS
  66
1
  70
0
  40
0.0098
  41
0.0098
  0
VERTEX
  8
Net
  10
-3.25
  20
0.3875
  42
0
  0
VERTEX
  8
Net
  10
-3.25
  20
0.6
  42
0
  0
SEQEND
  0
POLYLINE
  8
Net
  6
CONTINUOUS
  66
1
  70
0
  40
0.0049
  41
0.0049
  0
VERTEX
  8
Net
  10
-3.2525
  20
0.3875
  42
1
  0
VERTEX
  8
Net
  10
-3.2475
  20
0.3875
  42
1
  0
VERTEX
  8
Net
  10
-3.2525
  20
0.3875
  42
1
  0
SEQEND
  0
POLYLINE
  8
Net
  6
CONTINUOUS
  66
1
  70
0
  40
0.0049
  41
0.0049
  0
VERTEX
  8
Net
  10
-3.2525
  20
0.6
  42
1
  0
VERTEX
  8
Net
  10
-3.2475
  20
0.6
  42
1
  0
VERTEX
  8
Net
  10
-3.2525
  20
0.6
  42
1
  0
SEQEND
  0
POLYLINE
  8
Net
  6
CONTINUOUS
  66
1
  70
0
  40
0.0098
  41
0.0098
  0
VERTEX
  8
Net
  10
-3.25
  20
0.6
  42
0
  0
VERTEX
  8
Net
  10
-3.05
  20
0.6
  42
0
  0
SEQEND
  0
POLYLINE
  8
Net
  6
CONTINUOUS
  66
1
  70
0
  40
0.0049
  41
0.0049
  0
VERTEX
  8
Net
  10
-3.2525
  20
0.6
  42
1
  0
VERTEX
  8
Net
  10
-3.2475
  20
0.6
  42
1
  0
VERTEX
  8
Net
  10
-3.2525
  20
0.6
  42
1
  0
SEQEND
  0
POLYLINE
  8
Net
  6
CONTINUOUS
  66
1
  70
0
  40
0.0049
  41
0.0049
  0
VERTEX
  8
Net
  10
-3.0525
  20
0.6
  42
1
  0
VERTEX
  8
Net
  10
-3.0475
  20
0.6
  42
1
  0
VERTEX
  8
Net
  10
-3.0525
  20
0.6
  42
1
  0
SEQEND
  0
POLYLINE
  8
Net
  6
CONTINUOUS
  66
1
  70
0
  40
0.0098
  41
0.0098
  0
VERTEX
  8
Net
  10
-1.125
  20
2.65
  42
0
  0
VERTEX
  8
Net
  10
-0.7
  20
2.65
  42
0
  0
SEQEND
  0
POLYLINE
  8
Net
  6
CONTINUOUS
  66
1
  70
0
  40
0.0049
  41
0.0049
  0
VERTEX
  8
Net
  10
-1.1275
  20
2.65
  42
1
  0
VERTEX
  8
Net
  10
-1.1225
  20
2.65
  42
1
  0
VERTEX
  8
Net
  10
-1.1275
  20
2.65
  42
1
  0
SEQEND
  0
POLYLINE
  8
Net
  6
CONTINUOUS
  66
1
  70
0
  40
0.0049
  41
0.0049
  0
VERTEX
  8
Net
  10
-0.7025
  20
2.65
  42
1
  0
VERTEX
  8
Net
  10
-0.6975
  20
2.65
  42
1
  0
VERTEX
  8
Net
  10
-0.7025
  20
2.65
  42
1
  0
SEQEND
  0
POLYLINE
  8
Net
  6
CONTINUOUS
  66
1
  70
0
  40
0.0098
  41
0.0098
  0
VERTEX
  8
Net
  10
-0.7
  20
2.65
  42
0
  0
VERTEX
  8
Net
  10
-0.7
  20
1.95
  42
0
  0
SEQEND
  0
POLYLINE
  8
Net
  6
CONTINUOUS
  66
1
  70
0
  40
0.0049
  41
0.0049
  0
VERTEX
  8
Net
  10
-0.7025
  20
2.65
  42
1
  0
VERTEX
  8
Net
  10
-0.6975
  20
2.65
  42
1
  0
VERTEX
  8
Net
  10
-0.7025
  20
2.65
  42
1
  0
SEQEND
  0
POLYLINE
  8
Net
  6
CONTINUOUS
  66
1
  70
0
  40
0.0049
  41
0.0049
  0
VERTEX
  8
Net
  10
-0.7025
  20
1.95
  42
1
  0
VERTEX
  8
Net
  10
-0.6975
  20
1.95
  42
1
  0
VERTEX
  8
Net
  10
-0.7025
  20
1.95
  42
1
  0
SEQEND
  0
POLYLINE
  8
Net
  6
CONTINUOUS
  66
1
  70
0
  40
0.0098
  41
0.0098
  0
VERTEX
  8
Net
  10
-0.7
  20
1.95
  42
0
  0
VERTEX
  8
Net
  10
-0.85
  20
1.95
  42
0
  0
SEQEND
  0
POLYLINE
  8
Net
  6
CONTINUOUS
  66
1
  70
0
  40
0.0049
  41
0.0049
  0
VERTEX
  8
Net
  10
-0.7025
  20
1.95
  42
1
  0
VERTEX
  8
Net
  10
-0.6975
  20
1.95
  42
1
  0
VERTEX
  8
Net
  10
-0.7025
  20
1.95
  42
1
  0
SEQEND
  0
POLYLINE
  8
Net
  6
CONTINUOUS
  66
1
  70
0
  40
0.0049
  41
0.0049
  0
VERTEX
  8
Net
  10
-0.8525
  20
1.95
  42
1
  0
VERTEX
  8
Net
  10
-0.8475
  20
1.95
  42
1
  0
VERTEX
  8
Net
  10
-0.8525
  20
1.95
  42
1
  0
SEQEND
  0
POLYLINE
  8
Net
  6
CONTINUOUS
  66
1
  70
0
  40
0.0098
  41
0.0098
  0
VERTEX
  8
Net
  10
-0.7098
  20
1.95
  42
0
  0
VERTEX
  8
Net
  10
-0.7094
  20
1.947
  42
0
  0
VERTEX
  8
Net
  10
-0.708
  20
1.9442
  42
0
  0
VERTEX
  8
Net
  10
-0.7058
  20
1.942
  42
0
  0
VERTEX
  8
Net
  10
-0.703
  20
1.9406
  42
0
  0
VERTEX
  8
Net
  10
-0.7
  20
1.9402
  42
0
  0
VERTEX
  8
Net
  10
-0.697
  20
1.9406
  42
0
  0
VERTEX
  8
Net
  10
-0.6942
  20
1.942
  42
0
  0
VERTEX
  8
Net
  10
-0.692
  20
1.9442
  42
0
  0
VERTEX
  8
Net
  10
-0.6906
  20
1.947
  42
0
  0
VERTEX
  8
Net
  10
-0.6902
  20
1.95
  42
0
  0
VERTEX
  8
Net
  10
-0.6906
  20
1.953
  42
0
  0
VERTEX
  8
Net
  10
-0.692
  20
1.9558
  42
0
  0
VERTEX
  8
Net
  10
-0.6942
  20
1.958
  42
0
  0
VERTEX
  8
Net
  10
-0.697
  20
1.9594
  42
0
  0
VERTEX
  8
Net
  10
-0.7
  20
1.9598
  42
0
  0
VERTEX
  8
Net
  10
-0.703
  20
1.9594
  42
0
  0
VERTEX
  8
Net
  10
-0.7058
  20
1.958
  42
0
  0
VERTEX
  8
Net
  10
-0.708
  20
1.9558
  42
0
  0
VERTEX
  8
Net
  10
-0.7094
  20
1.953
  42
0
  0
VERTEX
  8
Net
  10
-0.7098
  20
1.95
  42
0
  0
SEQEND
  0
POLYLINE
  8
Net
  6
CONTINUOUS
  66
1
  70
0
  40
0.0049
  41
0.0049
  0
VERTEX
  8
Net
  10
-0.7123
  20
1.95
  42
1
  0
VERTEX
  8
Net
  10
-0.7074
  20
1.95
  42
1
  0
VERTEX
  8
Net
  10
-0.7123
  20
1.95
  42
1
  0
SEQEND
  0
TEXT
  8
Net
  10
0.1106
  20
1.9631
  40
0.0437
  41
0.7
  1
ADC1_IN6
  50
0.0
  72
2
  73
1
  7
STANDARD
  71
0
  11
0.1106
  21
1.9631
  0
POLYLINE
  8
Net
  6
CONTINUOUS
  66
1
  70
0
  40
0.0098
  41
0.0098
  0
VERTEX
  8
Net
  10
-0.7
  20
1.95
  42
0
  0
VERTEX
  8
Net
  10
0.1106
  20
1.95
  42
0
  0
SEQEND
  0
POLYLINE
  8
Net
  6
CONTINUOUS
  66
1
  70
0
  40
0.0049
  41
0.0049
  0
VERTEX
  8
Net
  10
-0.7025
  20
1.95
  42
1
  0
VERTEX
  8
Net
  10
-0.6975
  20
1.95
  42
1
  0
VERTEX
  8
Net
  10
-0.7025
  20
1.95
  42
1
  0
SEQEND
  0
POLYLINE
  8
Net
  6
CONTINUOUS
  66
1
  70
0
  40
0.0049
  41
0.0049
  0
VERTEX
  8
Net
  10
0.1082
  20
1.95
  42
1
  0
VERTEX
  8
Net
  10
0.1131
  20
1.95
  42
1
  0
VERTEX
  8
Net
  10
0.1082
  20
1.95
  42
1
  0
SEQEND
  0
POLYLINE
  8
Net
  6
CONTINUOUS
  66
1
  70
0
  40
0.0098
  41
0.0098
  0
VERTEX
  8
Net
  10
0.1106
  20
1.95
  42
0
  0
VERTEX
  8
Net
  10
0.15
  20
1.9106
  42
0
  0
SEQEND
  0
POLYLINE
  8
Net
  6
CONTINUOUS
  66
1
  70
0
  40
0.0049
  41
0.0049
  0
VERTEX
  8
Net
  10
0.1082
  20
1.95
  42
1
  0
VERTEX
  8
Net
  10
0.1131
  20
1.95
  42
1
  0
VERTEX
  8
Net
  10
0.1082
  20
1.95
  42
1
  0
SEQEND
  0
POLYLINE
  8
Net
  6
CONTINUOUS
  66
1
  70
0
  40
0.0049
  41
0.0049
  0
VERTEX
  8
Net
  10
0.1475
  20
1.9106
  42
1
  0
VERTEX
  8
Net
  10
0.1525
  20
1.9106
  42
1
  0
VERTEX
  8
Net
  10
0.1475
  20
1.9106
  42
1
  0
SEQEND
  0
POLYLINE
  8
Net
  6
CONTINUOUS
  66
1
  70
0
  40
0.0098
  41
0.0098
  0
VERTEX
  8
Net
  10
-1.125
  20
0.7
  42
0
  0
VERTEX
  8
Net
  10
-0.7
  20
0.7
  42
0
  0
SEQEND
  0
POLYLINE
  8
Net
  6
CONTINUOUS
  66
1
  70
0
  40
0.0049
  41
0.0049
  0
VERTEX
  8
Net
  10
-1.1275
  20
0.7
  42
1
  0
VERTEX
  8
Net
  10
-1.1225
  20
0.7
  42
1
  0
VERTEX
  8
Net
  10
-1.1275
  20
0.7
  42
1
  0
SEQEND
  0
POLYLINE
  8
Net
  6
CONTINUOUS
  66
1
  70
0
  40
0.0049
  41
0.0049
  0
VERTEX
  8
Net
  10
-0.7025
  20
0.7
  42
1
  0
VERTEX
  8
Net
  10
-0.6975
  20
0.7
  42
1
  0
VERTEX
  8
Net
  10
-0.7025
  20
0.7
  42
1
  0
SEQEND
  0
POLYLINE
  8
Net
  6
CONTINUOUS
  66
1
  70
0
  40
0.0098
  41
0.0098
  0
VERTEX
  8
Net
  10
-0.7
  20
0.7
  42
0
  0
VERTEX
  8
Net
  10
-0.7
  20
0.05
  42
0
  0
SEQEND
  0
POLYLINE
  8
Net
  6
CONTINUOUS
  66
1
  70
0
  40
0.0049
  41
0.0049
  0
VERTEX
  8
Net
  10
-0.7025
  20
0.7
  42
1
  0
VERTEX
  8
Net
  10
-0.6975
  20
0.7
  42
1
  0
VERTEX
  8
Net
  10
-0.7025
  20
0.7
  42
1
  0
SEQEND
  0
POLYLINE
  8
Net
  6
CONTINUOUS
  66
1
  70
0
  40
0.0049
  41
0.0049
  0
VERTEX
  8
Net
  10
-0.7025
  20
0.05
  42
1
  0
VERTEX
  8
Net
  10
-0.6975
  20
0.05
  42
1
  0
VERTEX
  8
Net
  10
-0.7025
  20
0.05
  42
1
  0
SEQEND
  0
POLYLINE
  8
Net
  6
CONTINUOUS
  66
1
  70
0
  40
0.0098
  41
0.0098
  0
VERTEX
  8
Net
  10
-0.7
  20
0.05
  42
0
  0
VERTEX
  8
Net
  10
-0.95
  20
0.05
  42
0
  0
SEQEND
  0
POLYLINE
  8
Net
  6
CONTINUOUS
  66
1
  70
0
  40
0.0049
  41
0.0049
  0
VERTEX
  8
Net
  10
-0.7025
  20
0.05
  42
1
  0
VERTEX
  8
Net
  10
-0.6975
  20
0.05
  42
1
  0
VERTEX
  8
Net
  10
-0.7025
  20
0.05
  42
1
  0
SEQEND
  0
POLYLINE
  8
Net
  6
CONTINUOUS
  66
1
  70
0
  40
0.0049
  41
0.0049
  0
VERTEX
  8
Net
  10
-0.9525
  20
0.05
  42
1
  0
VERTEX
  8
Net
  10
-0.9475
  20
0.05
  42
1
  0
VERTEX
  8
Net
  10
-0.9525
  20
0.05
  42
1
  0
SEQEND
  0
POLYLINE
  8
Net
  6
CONTINUOUS
  66
1
  70
0
  40
0.0098
  41
0.0098
  0
VERTEX
  8
Net
  10
-0.7098
  20
0.05
  42
0
  0
VERTEX
  8
Net
  10
-0.7094
  20
0.047
  42
0
  0
VERTEX
  8
Net
  10
-0.708
  20
0.0442
  42
0
  0
VERTEX
  8
Net
  10
-0.7058
  20
0.042
  42
0
  0
VERTEX
  8
Net
  10
-0.703
  20
0.0406
  42
0
  0
VERTEX
  8
Net
  10
-0.7
  20
0.0402
  42
0
  0
VERTEX
  8
Net
  10
-0.697
  20
0.0406
  42
0
  0
VERTEX
  8
Net
  10
-0.6942
  20
0.042
  42
0
  0
VERTEX
  8
Net
  10
-0.692
  20
0.0442
  42
0
  0
VERTEX
  8
Net
  10
-0.6906
  20
0.047
  42
0
  0
VERTEX
  8
Net
  10
-0.6902
  20
0.05
  42
0
  0
VERTEX
  8
Net
  10
-0.6906
  20
0.053
  42
0
  0
VERTEX
  8
Net
  10
-0.692
  20
0.0558
  42
0
  0
VERTEX
  8
Net
  10
-0.6942
  20
0.058
  42
0
  0
VERTEX
  8
Net
  10
-0.697
  20
0.0594
  42
0
  0
VERTEX
  8
Net
  10
-0.7
  20
0.0598
  42
0
  0
VERTEX
  8
Net
  10
-0.703
  20
0.0594
  42
0
  0
VERTEX
  8
Net
  10
-0.7058
  20
0.058
  42
0
  0
VERTEX
  8
Net
  10
-0.708
  20
0.0558
  42
0
  0
VERTEX
  8
Net
  10
-0.7094
  20
0.053
  42
0
  0
VERTEX
  8
Net
  10
-0.7098
  20
0.05
  42
0
  0
SEQEND
  0
POLYLINE
  8
Net
  6
CONTINUOUS
  66
1
  70
0
  40
0.0049
  41
0.0049
  0
VERTEX
  8
Net
  10
-0.7123
  20
0.05
  42
1
  0
VERTEX
  8
Net
  10
-0.7074
  20
0.05
  42
1
  0
VERTEX
  8
Net
  10
-0.7123
  20
0.05
  42
1
  0
SEQEND
  0
TEXT
  8
Net
  10
0.1106
  20
0.0631
  40
0.0437
  41
0.7
  1
ADC1_IN7
  50
0.0
  72
2
  73
1
  7
STANDARD
  71
0
  11
0.1106
  21
0.0631
  0
POLYLINE
  8
Net
  6
CONTINUOUS
  66
1
  70
0
  40
0.0098
  41
0.0098
  0
VERTEX
  8
Net
  10
-0.7
  20
0.05
  42
0
  0
VERTEX
  8
Net
  10
0.1106
  20
0.05
  42
0
  0
SEQEND
  0
POLYLINE
  8
Net
  6
CONTINUOUS
  66
1
  70
0
  40
0.0049
  41
0.0049
  0
VERTEX
  8
Net
  10
-0.7025
  20
0.05
  42
1
  0
VERTEX
  8
Net
  10
-0.6975
  20
0.05
  42
1
  0
VERTEX
  8
Net
  10
-0.7025
  20
0.05
  42
1
  0
SEQEND
  0
POLYLINE
  8
Net
  6
CONTINUOUS
  66
1
  70
0
  40
0.0049
  41
0.0049
  0
VERTEX
  8
Net
  10
0.1082
  20
0.05
  42
1
  0
VERTEX
  8
Net
  10
0.1131
  20
0.05
  42
1
  0
VERTEX
  8
Net
  10
0.1082
  20
0.05
  42
1
  0
SEQEND
  0
POLYLINE
  8
Net
  6
CONTINUOUS
  66
1
  70
0
  40
0.0098
  41
0.0098
  0
VERTEX
  8
Net
  10
0.1106
  20
0.05
  42
0
  0
VERTEX
  8
Net
  10
0.15
  20
0.0106
  42
0
  0
SEQEND
  0
POLYLINE
  8
Net
  6
CONTINUOUS
  66
1
  70
0
  40
0.0049
  41
0.0049
  0
VERTEX
  8
Net
  10
0.1082
  20
0.05
  42
1
  0
VERTEX
  8
Net
  10
0.1131
  20
0.05
  42
1
  0
VERTEX
  8
Net
  10
0.1082
  20
0.05
  42
1
  0
SEQEND
  0
POLYLINE
  8
Net
  6
CONTINUOUS
  66
1
  70
0
  40
0.0049
  41
0.0049
  0
VERTEX
  8
Net
  10
0.1475
  20
0.0106
  42
1
  0
VERTEX
  8
Net
  10
0.1525
  20
0.0106
  42
1
  0
VERTEX
  8
Net
  10
0.1475
  20
0.0106
  42
1
  0
SEQEND
  0
POLYLINE
  8
Net
  6
CONTINUOUS
  66
1
  70
0
  40
0.0098
  41
0.0098
  0
VERTEX
  8
Net
  10
-3.25
  20
1.2
  42
0
  0
VERTEX
  8
Net
  10
-3.25
  20
1.2
  42
0
  0
SEQEND
  0
POLYLINE
  8
Net
  6
CONTINUOUS
  66
1
  70
0
  40
0.0049
  41
0.0049
  0
VERTEX
  8
Net
  10
-3.2525
  20
1.2
  42
1
  0
VERTEX
  8
Net
  10
-3.2475
  20
1.2
  42
1
  0
VERTEX
  8
Net
  10
-3.2525
  20
1.2
  42
1
  0
SEQEND
  0
POLYLINE
  8
Net
  6
CONTINUOUS
  66
1
  70
0
  40
0.0098
  41
0.0098
  0
VERTEX
  8
Net
  10
-3.25
  20
-0.7
  42
0
  0
VERTEX
  8
Net
  10
-3.25
  20
-0.8
  42
0
  0
SEQEND
  0
POLYLINE
  8
Net
  6
CONTINUOUS
  66
1
  70
0
  40
0.0049
  41
0.0049
  0
VERTEX
  8
Net
  10
-3.2525
  20
-0.7
  42
1
  0
VERTEX
  8
Net
  10
-3.2475
  20
-0.7
  42
1
  0
VERTEX
  8
Net
  10
-3.2525
  20
-0.7
  42
1
  0
SEQEND
  0
POLYLINE
  8
Net
  6
CONTINUOUS
  66
1
  70
0
  40
0.0049
  41
0.0049
  0
VERTEX
  8
Net
  10
-3.2525
  20
-0.8
  42
1
  0
VERTEX
  8
Net
  10
-3.2475
  20
-0.8
  42
1
  0
VERTEX
  8
Net
  10
-3.2525
  20
-0.8
  42
1
  0
SEQEND
  0
POLYLINE
  8
Net
  6
CONTINUOUS
  66
1
  70
0
  40
0.0098
  41
0.0098
  0
VERTEX
  8
Net
  10
-2.35
  20
2.1
  42
0
  0
VERTEX
  8
Net
  10
-2.35
  20
2.0
  42
0
  0
SEQEND
  0
POLYLINE
  8
Net
  6
CONTINUOUS
  66
1
  70
0
  40
0.0049
  41
0.0049
  0
VERTEX
  8
Net
  10
-2.3525
  20
2.1
  42
1
  0
VERTEX
  8
Net
  10
-2.3475
  20
2.1
  42
1
  0
VERTEX
  8
Net
  10
-2.3525
  20
2.1
  42
1
  0
SEQEND
  0
POLYLINE
  8
Net
  6
CONTINUOUS
  66
1
  70
0
  40
0.0049
  41
0.0049
  0
VERTEX
  8
Net
  10
-2.3525
  20
2.0
  42
1
  0
VERTEX
  8
Net
  10
-2.3475
  20
2.0
  42
1
  0
VERTEX
  8
Net
  10
-2.3525
  20
2.0
  42
1
  0
SEQEND
  0
POLYLINE
  8
Net
  6
CONTINUOUS
  66
1
  70
0
  40
0.0098
  41
0.0098
  0
VERTEX
  8
Net
  10
-2.45
  20
0.2
  42
0
  0
VERTEX
  8
Net
  10
-2.45
  20
0.1
  42
0
  0
SEQEND
  0
POLYLINE
  8
Net
  6
CONTINUOUS
  66
1
  70
0
  40
0.0049
  41
0.0049
  0
VERTEX
  8
Net
  10
-2.4525
  20
0.2
  42
1
  0
VERTEX
  8
Net
  10
-2.4475
  20
0.2
  42
1
  0
VERTEX
  8
Net
  10
-2.4525
  20
0.2
  42
1
  0
SEQEND
  0
POLYLINE
  8
Net
  6
CONTINUOUS
  66
1
  70
0
  40
0.0049
  41
0.0049
  0
VERTEX
  8
Net
  10
-2.4525
  20
0.1
  42
1
  0
VERTEX
  8
Net
  10
-2.4475
  20
0.1
  42
1
  0
VERTEX
  8
Net
  10
-2.4525
  20
0.1
  42
1
  0
SEQEND
  0
POLYLINE
  8
Net
  6
CONTINUOUS
  66
1
  70
0
  40
0.0098
  41
0.0098
  0
VERTEX
  8
Net
  10
-1.05
  20
-0.7
  42
0
  0
VERTEX
  8
Net
  10
-0.9
  20
-0.7
  42
0
  0
SEQEND
  0
POLYLINE
  8
Net
  6
CONTINUOUS
  66
1
  70
0
  40
0.0049
  41
0.0049
  0
VERTEX
  8
Net
  10
-1.0525
  20
-0.7
  42
1
  0
VERTEX
  8
Net
  10
-1.0475
  20
-0.7
  42
1
  0
VERTEX
  8
Net
  10
-1.0525
  20
-0.7
  42
1
  0
SEQEND
  0
POLYLINE
  8
Net
  6
CONTINUOUS
  66
1
  70
0
  40
0.0049
  41
0.0049
  0
VERTEX
  8
Net
  10
-0.9025
  20
-0.7
  42
1
  0
VERTEX
  8
Net
  10
-0.8975
  20
-0.7
  42
1
  0
VERTEX
  8
Net
  10
-0.9025
  20
-0.7
  42
1
  0
SEQEND
  0
POLYLINE
  8
Net
  6
CONTINUOUS
  66
1
  70
0
  40
0.0098
  41
0.0098
  0
VERTEX
  8
Net
  10
-0.9
  20
-0.7
  42
0
  0
VERTEX
  8
Net
  10
-0.9
  20
-0.8
  42
0
  0
SEQEND
  0
POLYLINE
  8
Net
  6
CONTINUOUS
  66
1
  70
0
  40
0.0049
  41
0.0049
  0
VERTEX
  8
Net
  10
-0.9025
  20
-0.7
  42
1
  0
VERTEX
  8
Net
  10
-0.8975
  20
-0.7
  42
1
  0
VERTEX
  8
Net
  10
-0.9025
  20
-0.7
  42
1
  0
SEQEND
  0
POLYLINE
  8
Net
  6
CONTINUOUS
  66
1
  70
0
  40
0.0049
  41
0.0049
  0
VERTEX
  8
Net
  10
-0.9025
  20
-0.8
  42
1
  0
VERTEX
  8
Net
  10
-0.8975
  20
-0.8
  42
1
  0
VERTEX
  8
Net
  10
-0.9025
  20
-0.8
  42
1
  0
SEQEND
  0
POLYLINE
  8
Net
  6
CONTINUOUS
  66
1
  70
0
  40
0.0098
  41
0.0098
  0
VERTEX
  8
Net
  10
-1.875
  20
2.1
  42
0
  0
VERTEX
  8
Net
  10
-1.6
  20
2.1
  42
0
  0
SEQEND
  0
POLYLINE
  8
Net
  6
CONTINUOUS
  66
1
  70
0
  40
0.0049
  41
0.0049
  0
VERTEX
  8
Net
  10
-1.8775
  20
2.1
  42
1
  0
VERTEX
  8
Net
  10
-1.8725
  20
2.1
  42
1
  0
VERTEX
  8
Net
  10
-1.8775
  20
2.1
  42
1
  0
SEQEND
  0
POLYLINE
  8
Net
  6
CONTINUOUS
  66
1
  70
0
  40
0.0049
  41
0.0049
  0
VERTEX
  8
Net
  10
-1.6025
  20
2.1
  42
1
  0
VERTEX
  8
Net
  10
-1.5975
  20
2.1
  42
1
  0
VERTEX
  8
Net
  10
-1.6025
  20
2.1
  42
1
  0
SEQEND
  0
POLYLINE
  8
Net
  6
CONTINUOUS
  66
1
  70
0
  40
0.0098
  41
0.0098
  0
VERTEX
  8
Net
  10
-1.7598
  20
2.1
  42
0
  0
VERTEX
  8
Net
  10
-1.7594
  20
2.097
  42
0
  0
VERTEX
  8
Net
  10
-1.758
  20
2.0942
  42
0
  0
VERTEX
  8
Net
  10
-1.7558
  20
2.092
  42
0
  0
VERTEX
  8
Net
  10
-1.753
  20
2.0906
  42
0
  0
VERTEX
  8
Net
  10
-1.75
  20
2.0902
  42
0
  0
VERTEX
  8
Net
  10
-1.747
  20
2.0906
  42
0
  0
VERTEX
  8
Net
  10
-1.7442
  20
2.092
  42
0
  0
VERTEX
  8
Net
  10
-1.742
  20
2.0942
  42
0
  0
VERTEX
  8
Net
  10
-1.7406
  20
2.097
  42
0
  0
VERTEX
  8
Net
  10
-1.7402
  20
2.1
  42
0
  0
VERTEX
  8
Net
  10
-1.7406
  20
2.103
  42
0
  0
VERTEX
  8
Net
  10
-1.742
  20
2.1058
  42
0
  0
VERTEX
  8
Net
  10
-1.7442
  20
2.108
  42
0
  0
VERTEX
  8
Net
  10
-1.747
  20
2.1094
  42
0
  0
VERTEX
  8
Net
  10
-1.75
  20
2.1098
  42
0
  0
VERTEX
  8
Net
  10
-1.753
  20
2.1094
  42
0
  0
VERTEX
  8
Net
  10
-1.7558
  20
2.108
  42
0
  0
VERTEX
  8
Net
  10
-1.758
  20
2.1058
  42
0
  0
VERTEX
  8
Net
  10
-1.7594
  20
2.103
  42
0
  0
VERTEX
  8
Net
  10
-1.7598
  20
2.1
  42
0
  0
SEQEND
  0
POLYLINE
  8
Net
  6
CONTINUOUS
  66
1
  70
0
  40
0.0049
  41
0.0049
  0
VERTEX
  8
Net
  10
-1.7623
  20
2.1
  42
1
  0
VERTEX
  8
Net
  10
-1.7574
  20
2.1
  42
1
  0
VERTEX
  8
Net
  10
-1.7623
  20
2.1
  42
1
  0
SEQEND
  0
POLYLINE
  8
Net
  6
CONTINUOUS
  66
1
  70
0
  40
0.0098
  41
0.0098
  0
VERTEX
  8
Net
  10
-1.6
  20
2.65
  42
0
  0
VERTEX
  8
Net
  10
-1.75
  20
2.65
  42
0
  0
SEQEND
  0
POLYLINE
  8
Net
  6
CONTINUOUS
  66
1
  70
0
  40
0.0049
  41
0.0049
  0
VERTEX
  8
Net
  10
-1.6025
  20
2.65
  42
1
  0
VERTEX
  8
Net
  10
-1.5975
  20
2.65
  42
1
  0
VERTEX
  8
Net
  10
-1.6025
  20
2.65
  42
1
  0
SEQEND
  0
POLYLINE
  8
Net
  6
CONTINUOUS
  66
1
  70
0
  40
0.0049
  41
0.0049
  0
VERTEX
  8
Net
  10
-1.7525
  20
2.65
  42
1
  0
VERTEX
  8
Net
  10
-1.7475
  20
2.65
  42
1
  0
VERTEX
  8
Net
  10
-1.7525
  20
2.65
  42
1
  0
SEQEND
  0
POLYLINE
  8
Net
  6
CONTINUOUS
  66
1
  70
0
  40
0.0098
  41
0.0098
  0
VERTEX
  8
Net
  10
-1.75
  20
2.65
  42
0
  0
VERTEX
  8
Net
  10
-1.75
  20
2.1
  42
0
  0
SEQEND
  0
POLYLINE
  8
Net
  6
CONTINUOUS
  66
1
  70
0
  40
0.0049
  41
0.0049
  0
VERTEX
  8
Net
  10
-1.7525
  20
2.65
  42
1
  0
VERTEX
  8
Net
  10
-1.7475
  20
2.65
  42
1
  0
VERTEX
  8
Net
  10
-1.7525
  20
2.65
  42
1
  0
SEQEND
  0
POLYLINE
  8
Net
  6
CONTINUOUS
  66
1
  70
0
  40
0.0049
  41
0.0049
  0
VERTEX
  8
Net
  10
-1.7525
  20
2.1
  42
1
  0
VERTEX
  8
Net
  10
-1.7475
  20
2.1
  42
1
  0
VERTEX
  8
Net
  10
-1.7525
  20
2.1
  42
1
  0
SEQEND
  0
POLYLINE
  8
Net
  6
CONTINUOUS
  66
1
  70
0
  40
0.0098
  41
0.0098
  0
VERTEX
  8
Net
  10
-1.975
  20
0.2
  42
0
  0
VERTEX
  8
Net
  10
-1.7
  20
0.2
  42
0
  0
SEQEND
  0
POLYLINE
  8
Net
  6
CONTINUOUS
  66
1
  70
0
  40
0.0049
  41
0.0049
  0
VERTEX
  8
Net
  10
-1.9775
  20
0.2
  42
1
  0
VERTEX
  8
Net
  10
-1.9725
  20
0.2
  42
1
  0
VERTEX
  8
Net
  10
-1.9775
  20
0.2
  42
1
  0
SEQEND
  0
POLYLINE
  8
Net
  6
CONTINUOUS
  66
1
  70
0
  40
0.0049
  41
0.0049
  0
VERTEX
  8
Net
  10
-1.7025
  20
0.2
  42
1
  0
VERTEX
  8
Net
  10
-1.6975
  20
0.2
  42
1
  0
VERTEX
  8
Net
  10
-1.7025
  20
0.2
  42
1
  0
SEQEND
  0
POLYLINE
  8
Net
  6
CONTINUOUS
  66
1
  70
0
  40
0.0098
  41
0.0098
  0
VERTEX
  8
Net
  10
-1.9098
  20
0.2
  42
0
  0
VERTEX
  8
Net
  10
-1.9094
  20
0.197
  42
0
  0
VERTEX
  8
Net
  10
-1.908
  20
0.1942
  42
0
  0
VERTEX
  8
Net
  10
-1.9058
  20
0.192
  42
0
  0
VERTEX
  8
Net
  10
-1.903
  20
0.1906
  42
0
  0
VERTEX
  8
Net
  10
-1.9
  20
0.1902
  42
0
  0
VERTEX
  8
Net
  10
-1.897
  20
0.1906
  42
0
  0
VERTEX
  8
Net
  10
-1.8942
  20
0.192
  42
0
  0
VERTEX
  8
Net
  10
-1.892
  20
0.1942
  42
0
  0
VERTEX
  8
Net
  10
-1.8906
  20
0.197
  42
0
  0
VERTEX
  8
Net
  10
-1.8902
  20
0.2
  42
0
  0
VERTEX
  8
Net
  10
-1.8906
  20
0.203
  42
0
  0
VERTEX
  8
Net
  10
-1.892
  20
0.2058
  42
0
  0
VERTEX
  8
Net
  10
-1.8942
  20
0.208
  42
0
  0
VERTEX
  8
Net
  10
-1.897
  20
0.2094
  42
0
  0
VERTEX
  8
Net
  10
-1.9
  20
0.2098
  42
0
  0
VERTEX
  8
Net
  10
-1.903
  20
0.2094
  42
0
  0
VERTEX
  8
Net
  10
-1.9058
  20
0.208
  42
0
  0
VERTEX
  8
Net
  10
-1.908
  20
0.2058
  42
0
  0
VERTEX
  8
Net
  10
-1.9094
  20
0.203
  42
0
  0
VERTEX
  8
Net
  10
-1.9098
  20
0.2
  42
0
  0
SEQEND
  0
POLYLINE
  8
Net
  6
CONTINUOUS
  66
1
  70
0
  40
0.0049
  41
0.0049
  0
VERTEX
  8
Net
  10
-1.9123
  20
0.2
  42
1
  0
VERTEX
  8
Net
  10
-1.9074
  20
0.2
  42
1
  0
VERTEX
  8
Net
  10
-1.9123
  20
0.2
  42
1
  0
SEQEND
  0
POLYLINE
  8
Net
  6
CONTINUOUS
  66
1
  70
0
  40
0.0098
  41
0.0098
  0
VERTEX
  8
Net
  10
-1.6
  20
0.7
  42
0
  0
VERTEX
  8
Net
  10
-1.9
  20
0.7
  42
0
  0
SEQEND
  0
POLYLINE
  8
Net
  6
CONTINUOUS
  66
1
  70
0
  40
0.0049
  41
0.0049
  0
VERTEX
  8
Net
  10
-1.6025
  20
0.7
  42
1
  0
VERTEX
  8
Net
  10
-1.5975
  20
0.7
  42
1
  0
VERTEX
  8
Net
  10
-1.6025
  20
0.7
  42
1
  0
SEQEND
  0
POLYLINE
  8
Net
  6
CONTINUOUS
  66
1
  70
0
  40
0.0049
  41
0.0049
  0
VERTEX
  8
Net
  10
-1.9025
  20
0.7
  42
1
  0
VERTEX
  8
Net
  10
-1.8975
  20
0.7
  42
1
  0
VERTEX
  8
Net
  10
-1.9025
  20
0.7
  42
1
  0
SEQEND
  0
POLYLINE
  8
Net
  6
CONTINUOUS
  66
1
  70
0
  40
0.0098
  41
0.0098
  0
VERTEX
  8
Net
  10
-1.9
  20
0.7
  42
0
  0
VERTEX
  8
Net
  10
-1.9
  20
0.2
  42
0
  0
SEQEND
  0
POLYLINE
  8
Net
  6
CONTINUOUS
  66
1
  70
0
  40
0.0049
  41
0.0049
  0
VERTEX
  8
Net
  10
-1.9025
  20
0.7
  42
1
  0
VERTEX
  8
Net
  10
-1.8975
  20
0.7
  42
1
  0
VERTEX
  8
Net
  10
-1.9025
  20
0.7
  42
1
  0
SEQEND
  0
POLYLINE
  8
Net
  6
CONTINUOUS
  66
1
  70
0
  40
0.0049
  41
0.0049
  0
VERTEX
  8
Net
  10
-1.9025
  20
0.2
  42
1
  0
VERTEX
  8
Net
  10
-1.8975
  20
0.2
  42
1
  0
VERTEX
  8
Net
  10
-1.9025
  20
0.2
  42
1
  0
SEQEND
  0
POLYLINE
  8
Net
  6
CONTINUOUS
  66
1
  70
0
  40
0.0098
  41
0.0098
  0
VERTEX
  8
Net
  10
-3.25
  20
1.9
  42
0
  0
VERTEX
  8
Net
  10
-3.25
  20
1.7375
  42
0
  0
SEQEND
  0
POLYLINE
  8
Net
  6
CONTINUOUS
  66
1
  70
0
  40
0.0049
  41
0.0049
  0
VERTEX
  8
Net
  10
-3.2525
  20
1.9
  42
1
  0
VERTEX
  8
Net
  10
-3.2475
  20
1.9
  42
1
  0
VERTEX
  8
Net
  10
-3.2525
  20
1.9
  42
1
  0
SEQEND
  0
POLYLINE
  8
Net
  6
CONTINUOUS
  66
1
  70
0
  40
0.0049
  41
0.0049
  0
VERTEX
  8
Net
  10
-3.2525
  20
1.7375
  42
1
  0
VERTEX
  8
Net
  10
-3.2475
  20
1.7375
  42
1
  0
VERTEX
  8
Net
  10
-3.2525
  20
1.7375
  42
1
  0
SEQEND
  0
POLYLINE
  8
Net
  6
CONTINUOUS
  66
1
  70
0
  40
0.0098
  41
0.0098
  0
VERTEX
  8
Net
  10
-3.2598
  20
1.85
  42
0
  0
VERTEX
  8
Net
  10
-3.2594
  20
1.847
  42
0
  0
VERTEX
  8
Net
  10
-3.258
  20
1.8442
  42
0
  0
VERTEX
  8
Net
  10
-3.2558
  20
1.842
  42
0
  0
VERTEX
  8
Net
  10
-3.253
  20
1.8406
  42
0
  0
VERTEX
  8
Net
  10
-3.25
  20
1.8402
  42
0
  0
VERTEX
  8
Net
  10
-3.247
  20
1.8406
  42
0
  0
VERTEX
  8
Net
  10
-3.2442
  20
1.842
  42
0
  0
VERTEX
  8
Net
  10
-3.242
  20
1.8442
  42
0
  0
VERTEX
  8
Net
  10
-3.2406
  20
1.847
  42
0
  0
VERTEX
  8
Net
  10
-3.2402
  20
1.85
  42
0
  0
VERTEX
  8
Net
  10
-3.2406
  20
1.853
  42
0
  0
VERTEX
  8
Net
  10
-3.242
  20
1.8558
  42
0
  0
VERTEX
  8
Net
  10
-3.2442
  20
1.858
  42
0
  0
VERTEX
  8
Net
  10
-3.247
  20
1.8594
  42
0
  0
VERTEX
  8
Net
  10
-3.25
  20
1.8598
  42
0
  0
VERTEX
  8
Net
  10
-3.253
  20
1.8594
  42
0
  0
VERTEX
  8
Net
  10
-3.2558
  20
1.858
  42
0
  0
VERTEX
  8
Net
  10
-3.258
  20
1.8558
  42
0
  0
VERTEX
  8
Net
  10
-3.2594
  20
1.853
  42
0
  0
VERTEX
  8
Net
  10
-3.2598
  20
1.85
  42
0
  0
SEQEND
  0
POLYLINE
  8
Net
  6
CONTINUOUS
  66
1
  70
0
  40
0.0049
  41
0.0049
  0
VERTEX
  8
Net
  10
-3.2623
  20
1.85
  42
1
  0
VERTEX
  8
Net
  10
-3.2574
  20
1.85
  42
1
  0
VERTEX
  8
Net
  10
-3.2623
  20
1.85
  42
1
  0
SEQEND
  0
POLYLINE
  8
Net
  6
CONTINUOUS
  66
1
  70
0
  40
0.0098
  41
0.0098
  0
VERTEX
  8
Net
  10
-1.6
  20
1.8
  42
0
  0
VERTEX
  8
Net
  10
-2.1
  20
1.8
  42
0
  0
SEQEND
  0
POLYLINE
  8
Net
  6
CONTINUOUS
  66
1
  70
0
  40
0.0049
  41
0.0049
  0
VERTEX
  8
Net
  10
-1.6025
  20
1.8
  42
1
  0
VERTEX
  8
Net
  10
-1.5975
  20
1.8
  42
1
  0
VERTEX
  8
Net
  10
-1.6025
  20
1.8
  42
1
  0
SEQEND
  0
POLYLINE
  8
Net
  6
CONTINUOUS
  66
1
  70
0
  40
0.0049
  41
0.0049
  0
VERTEX
  8
Net
  10
-2.1025
  20
1.8
  42
1
  0
VERTEX
  8
Net
  10
-2.0975
  20
1.8
  42
1
  0
VERTEX
  8
Net
  10
-2.1025
  20
1.8
  42
1
  0
SEQEND
  0
POLYLINE
  8
Net
  6
CONTINUOUS
  66
1
  70
0
  40
0.0098
  41
0.0098
  0
VERTEX
  8
Net
  10
-2.1
  20
1.8
  42
0
  0
VERTEX
  8
Net
  10
-2.1
  20
1.65
  42
0
  0
SEQEND
  0
POLYLINE
  8
Net
  6
CONTINUOUS
  66
1
  70
0
  40
0.0049
  41
0.0049
  0
VERTEX
  8
Net
  10
-2.1025
  20
1.8
  42
1
  0
VERTEX
  8
Net
  10
-2.0975
  20
1.8
  42
1
  0
VERTEX
  8
Net
  10
-2.1025
  20
1.8
  42
1
  0
SEQEND
  0
POLYLINE
  8
Net
  6
CONTINUOUS
  66
1
  70
0
  40
0.0049
  41
0.0049
  0
VERTEX
  8
Net
  10
-2.1025
  20
1.65
  42
1
  0
VERTEX
  8
Net
  10
-2.0975
  20
1.65
  42
1
  0
VERTEX
  8
Net
  10
-2.1025
  20
1.65
  42
1
  0
SEQEND
  0
POLYLINE
  8
Net
  6
CONTINUOUS
  66
1
  70
0
  40
0.0098
  41
0.0098
  0
VERTEX
  8
Net
  10
-2.1
  20
1.65
  42
0
  0
VERTEX
  8
Net
  10
-3.05
  20
1.65
  42
0
  0
SEQEND
  0
POLYLINE
  8
Net
  6
CONTINUOUS
  66
1
  70
0
  40
0.0049
  41
0.0049
  0
VERTEX
  8
Net
  10
-2.1025
  20
1.65
  42
1
  0
VERTEX
  8
Net
  10
-2.0975
  20
1.65
  42
1
  0
VERTEX
  8
Net
  10
-2.1025
  20
1.65
  42
1
  0
SEQEND
  0
POLYLINE
  8
Net
  6
CONTINUOUS
  66
1
  70
0
  40
0.0049
  41
0.0049
  0
VERTEX
  8
Net
  10
-3.0525
  20
1.65
  42
1
  0
VERTEX
  8
Net
  10
-3.0475
  20
1.65
  42
1
  0
VERTEX
  8
Net
  10
-3.0525
  20
1.65
  42
1
  0
SEQEND
  0
POLYLINE
  8
Net
  6
CONTINUOUS
  66
1
  70
0
  40
0.0098
  41
0.0098
  0
VERTEX
  8
Net
  10
-3.05
  20
1.65
  42
0
  0
VERTEX
  8
Net
  10
-3.05
  20
1.85
  42
0
  0
SEQEND
  0
POLYLINE
  8
Net
  6
CONTINUOUS
  66
1
  70
0
  40
0.0049
  41
0.0049
  0
VERTEX
  8
Net
  10
-3.0525
  20
1.65
  42
1
  0
VERTEX
  8
Net
  10
-3.0475
  20
1.65
  42
1
  0
VERTEX
  8
Net
  10
-3.0525
  20
1.65
  42
1
  0
SEQEND
  0
POLYLINE
  8
Net
  6
CONTINUOUS
  66
1
  70
0
  40
0.0049
  41
0.0049
  0
VERTEX
  8
Net
  10
-3.0525
  20
1.85
  42
1
  0
VERTEX
  8
Net
  10
-3.0475
  20
1.85
  42
1
  0
VERTEX
  8
Net
  10
-3.0525
  20
1.85
  42
1
  0
SEQEND
  0
POLYLINE
  8
Net
  6
CONTINUOUS
  66
1
  70
0
  40
0.0098
  41
0.0098
  0
VERTEX
  8
Net
  10
-3.05
  20
1.85
  42
0
  0
VERTEX
  8
Net
  10
-3.25
  20
1.85
  42
0
  0
SEQEND
  0
POLYLINE
  8
Net
  6
CONTINUOUS
  66
1
  70
0
  40
0.0049
  41
0.0049
  0
VERTEX
  8
Net
  10
-3.0525
  20
1.85
  42
1
  0
VERTEX
  8
Net
  10
-3.0475
  20
1.85
  42
1
  0
VERTEX
  8
Net
  10
-3.0525
  20
1.85
  42
1
  0
SEQEND
  0
POLYLINE
  8
Net
  6
CONTINUOUS
  66
1
  70
0
  40
0.0049
  41
0.0049
  0
VERTEX
  8
Net
  10
-3.2525
  20
1.85
  42
1
  0
VERTEX
  8
Net
  10
-3.2475
  20
1.85
  42
1
  0
VERTEX
  8
Net
  10
-3.2525
  20
1.85
  42
1
  0
SEQEND
  0
POLYLINE
  8
Net
  6
CONTINUOUS
  66
1
  70
0
  40
0.0098
  41
0.0098
  0
VERTEX
  8
Net
  10
-3.25
  20
-0.2625
  42
0
  0
VERTEX
  8
Net
  10
-3.25
  20
-0.15
  42
0
  0
SEQEND
  0
POLYLINE
  8
Net
  6
CONTINUOUS
  66
1
  70
0
  40
0.0049
  41
0.0049
  0
VERTEX
  8
Net
  10
-3.2525
  20
-0.2625
  42
1
  0
VERTEX
  8
Net
  10
-3.2475
  20
-0.2625
  42
1
  0
VERTEX
  8
Net
  10
-3.2525
  20
-0.2625
  42
1
  0
SEQEND
  0
POLYLINE
  8
Net
  6
CONTINUOUS
  66
1
  70
0
  40
0.0049
  41
0.0049
  0
VERTEX
  8
Net
  10
-3.2525
  20
-0.15
  42
1
  0
VERTEX
  8
Net
  10
-3.2475
  20
-0.15
  42
1
  0
VERTEX
  8
Net
  10
-3.2525
  20
-0.15
  42
1
  0
SEQEND
  0
POLYLINE
  8
Net
  6
CONTINUOUS
  66
1
  70
0
  40
0.0098
  41
0.0098
  0
VERTEX
  8
Net
  10
-3.2598
  20
-0.15
  42
0
  0
VERTEX
  8
Net
  10
-3.2594
  20
-0.153
  42
0
  0
VERTEX
  8
Net
  10
-3.258
  20
-0.1558
  42
0
  0
VERTEX
  8
Net
  10
-3.2558
  20
-0.158
  42
0
  0
VERTEX
  8
Net
  10
-3.253
  20
-0.1594
  42
0
  0
VERTEX
  8
Net
  10
-3.25
  20
-0.1598
  42
0
  0
VERTEX
  8
Net
  10
-3.247
  20
-0.1594
  42
0
  0
VERTEX
  8
Net
  10
-3.2442
  20
-0.158
  42
0
  0
VERTEX
  8
Net
  10
-3.242
  20
-0.1558
  42
0
  0
VERTEX
  8
Net
  10
-3.2406
  20
-0.153
  42
0
  0
VERTEX
  8
Net
  10
-3.2402
  20
-0.15
  42
0
  0
VERTEX
  8
Net
  10
-3.2406
  20
-0.147
  42
0
  0
VERTEX
  8
Net
  10
-3.242
  20
-0.1442
  42
0
  0
VERTEX
  8
Net
  10
-3.2442
  20
-0.142
  42
0
  0
VERTEX
  8
Net
  10
-3.247
  20
-0.1406
  42
0
  0
VERTEX
  8
Net
  10
-3.25
  20
-0.1402
  42
0
  0
VERTEX
  8
Net
  10
-3.253
  20
-0.1406
  42
0
  0
VERTEX
  8
Net
  10
-3.2558
  20
-0.142
  42
0
  0
VERTEX
  8
Net
  10
-3.258
  20
-0.1442
  42
0
  0
VERTEX
  8
Net
  10
-3.2594
  20
-0.147
  42
0
  0
VERTEX
  8
Net
  10
-3.2598
  20
-0.15
  42
0
  0
SEQEND
  0
POLYLINE
  8
Net
  6
CONTINUOUS
  66
1
  70
0
  40
0.0049
  41
0.0049
  0
VERTEX
  8
Net
  10
-3.2623
  20
-0.15
  42
1
  0
VERTEX
  8
Net
  10
-3.2574
  20
-0.15
  42
1
  0
VERTEX
  8
Net
  10
-3.2623
  20
-0.15
  42
1
  0
SEQEND
  0
POLYLINE
  8
Net
  6
CONTINUOUS
  66
1
  70
0
  40
0.0098
  41
0.0098
  0
VERTEX
  8
Net
  10
-1.7
  20
-0.1
  42
0
  0
VERTEX
  8
Net
  10
-2.2
  20
-0.1
  42
0
  0
SEQEND
  0
POLYLINE
  8
Net
  6
CONTINUOUS
  66
1
  70
0
  40
0.0049
  41
0.0049
  0
VERTEX
  8
Net
  10
-1.7025
  20
-0.1
  42
1
  0
VERTEX
  8
Net
  10
-1.6975
  20
-0.1
  42
1
  0
VERTEX
  8
Net
  10
-1.7025
  20
-0.1
  42
1
  0
SEQEND
  0
POLYLINE
  8
Net
  6
CONTINUOUS
  66
1
  70
0
  40
0.0049
  41
0.0049
  0
VERTEX
  8
Net
  10
-2.2025
  20
-0.1
  42
1
  0
VERTEX
  8
Net
  10
-2.1975
  20
-0.1
  42
1
  0
VERTEX
  8
Net
  10
-2.2025
  20
-0.1
  42
1
  0
SEQEND
  0
POLYLINE
  8
Net
  6
CONTINUOUS
  66
1
  70
0
  40
0.0098
  41
0.0098
  0
VERTEX
  8
Net
  10
-2.2
  20
-0.1
  42
0
  0
VERTEX
  8
Net
  10
-2.2
  20
-0.3
  42
0
  0
SEQEND
  0
POLYLINE
  8
Net
  6
CONTINUOUS
  66
1
  70
0
  40
0.0049
  41
0.0049
  0
VERTEX
  8
Net
  10
-2.2025
  20
-0.1
  42
1
  0
VERTEX
  8
Net
  10
-2.1975
  20
-0.1
  42
1
  0
VERTEX
  8
Net
  10
-2.2025
  20
-0.1
  42
1
  0
SEQEND
  0
POLYLINE
  8
Net
  6
CONTINUOUS
  66
1
  70
0
  40
0.0049
  41
0.0049
  0
VERTEX
  8
Net
  10
-2.2025
  20
-0.3
  42
1
  0
VERTEX
  8
Net
  10
-2.1975
  20
-0.3
  42
1
  0
VERTEX
  8
Net
  10
-2.2025
  20
-0.3
  42
1
  0
SEQEND
  0
POLYLINE
  8
Net
  6
CONTINUOUS
  66
1
  70
0
  40
0.0098
  41
0.0098
  0
VERTEX
  8
Net
  10
-2.2
  20
-0.3
  42
0
  0
VERTEX
  8
Net
  10
-3.05
  20
-0.3
  42
0
  0
SEQEND
  0
POLYLINE
  8
Net
  6
CONTINUOUS
  66
1
  70
0
  40
0.0049
  41
0.0049
  0
VERTEX
  8
Net
  10
-2.2025
  20
-0.3
  42
1
  0
VERTEX
  8
Net
  10
-2.1975
  20
-0.3
  42
1
  0
VERTEX
  8
Net
  10
-2.2025
  20
-0.3
  42
1
  0
SEQEND
  0
POLYLINE
  8
Net
  6
CONTINUOUS
  66
1
  70
0
  40
0.0049
  41
0.0049
  0
VERTEX
  8
Net
  10
-3.0525
  20
-0.3
  42
1
  0
VERTEX
  8
Net
  10
-3.0475
  20
-0.3
  42
1
  0
VERTEX
  8
Net
  10
-3.0525
  20
-0.3
  42
1
  0
SEQEND
  0
POLYLINE
  8
Net
  6
CONTINUOUS
  66
1
  70
0
  40
0.0098
  41
0.0098
  0
VERTEX
  8
Net
  10
-3.05
  20
-0.3
  42
0
  0
VERTEX
  8
Net
  10
-3.05
  20
-0.15
  42
0
  0
SEQEND
  0
POLYLINE
  8
Net
  6
CONTINUOUS
  66
1
  70
0
  40
0.0049
  41
0.0049
  0
VERTEX
  8
Net
  10
-3.0525
  20
-0.3
  42
1
  0
VERTEX
  8
Net
  10
-3.0475
  20
-0.3
  42
1
  0
VERTEX
  8
Net
  10
-3.0525
  20
-0.3
  42
1
  0
SEQEND
  0
POLYLINE
  8
Net
  6
CONTINUOUS
  66
1
  70
0
  40
0.0049
  41
0.0049
  0
VERTEX
  8
Net
  10
-3.0525
  20
-0.15
  42
1
  0
VERTEX
  8
Net
  10
-3.0475
  20
-0.15
  42
1
  0
VERTEX
  8
Net
  10
-3.0525
  20
-0.15
  42
1
  0
SEQEND
  0
POLYLINE
  8
Net
  6
CONTINUOUS
  66
1
  70
0
  40
0.0098
  41
0.0098
  0
VERTEX
  8
Net
  10
-3.05
  20
-0.15
  42
0
  0
VERTEX
  8
Net
  10
-3.25
  20
-0.15
  42
0
  0
SEQEND
  0
POLYLINE
  8
Net
  6
CONTINUOUS
  66
1
  70
0
  40
0.0049
  41
0.0049
  0
VERTEX
  8
Net
  10
-3.0525
  20
-0.15
  42
1
  0
VERTEX
  8
Net
  10
-3.0475
  20
-0.15
  42
1
  0
VERTEX
  8
Net
  10
-3.0525
  20
-0.15
  42
1
  0
SEQEND
  0
POLYLINE
  8
Net
  6
CONTINUOUS
  66
1
  70
0
  40
0.0049
  41
0.0049
  0
VERTEX
  8
Net
  10
-3.2525
  20
-0.15
  42
1
  0
VERTEX
  8
Net
  10
-3.2475
  20
-0.15
  42
1
  0
VERTEX
  8
Net
  10
-3.2525
  20
-0.15
  42
1
  0
SEQEND
  0
TEXT
  8
Pin
  10
-3.2981
  20
1.3073
  40
0.0292
  41
0.7
  1
1
  50
90.0
  72
0
  73
3
  7
STANDARD
  71
0
  11
-3.2981
  21
1.3073
  0
POLYLINE
  8
Pin
  6
CONTINUOUS
  66
1
  70
0
  40
0.0098
  41
0.0098
  0
VERTEX
  8
Pin
  10
-3.25
  20
1.35
  42
0
  0
VERTEX
  8
Pin
  10
-3.25
  20
1.2
  42
0
  0
SEQEND
  0
POLYLINE
  8
Pin
  6
CONTINUOUS
  66
1
  70
0
  40
0.0049
  41
0.0049
  0
VERTEX
  8
Pin
  10
-3.2525
  20
1.35
  42
1
  0
VERTEX
  8
Pin
  10
-3.2475
  20
1.35
  42
1
  0
VERTEX
  8
Pin
  10
-3.2525
  20
1.35
  42
1
  0
SEQEND
  0
POLYLINE
  8
Pin
  6
CONTINUOUS
  66
1
  70
0
  40
0.0049
  41
0.0049
  0
VERTEX
  8
Pin
  10
-3.2525
  20
1.2
  42
1
  0
VERTEX
  8
Pin
  10
-3.2475
  20
1.2
  42
1
  0
VERTEX
  8
Pin
  10
-3.2525
  20
1.2
  42
1
  0
SEQEND
  0
TEXT
  8
Pin
  10
-3.2981
  20
1.6137
  40
0.0292
  41
0.7
  1
2
  50
90.0
  72
0
  73
3
  7
STANDARD
  71
0
  11
-3.2981
  21
1.6137
  0
POLYLINE
  8
Pin
  6
CONTINUOUS
  66
1
  70
0
  40
0.0098
  41
0.0098
  0
VERTEX
  8
Pin
  10
-3.25
  20
1.5875
  42
0
  0
VERTEX
  8
Pin
  10
-3.25
  20
1.7375
  42
0
  0
SEQEND
  0
POLYLINE
  8
Pin
  6
CONTINUOUS
  66
1
  70
0
  40
0.0049
  41
0.0049
  0
VERTEX
  8
Pin
  10
-3.2525
  20
1.5875
  42
1
  0
VERTEX
  8
Pin
  10
-3.2475
  20
1.5875
  42
1
  0
VERTEX
  8
Pin
  10
-3.2525
  20
1.5875
  42
1
  0
SEQEND
  0
POLYLINE
  8
Pin
  6
CONTINUOUS
  66
1
  70
0
  40
0.0049
  41
0.0049
  0
VERTEX
  8
Pin
  10
-3.2525
  20
1.7375
  42
1
  0
VERTEX
  8
Pin
  10
-3.2475
  20
1.7375
  42
1
  0
VERTEX
  8
Pin
  10
-3.2525
  20
1.7375
  42
1
  0
SEQEND
  0
TEXT
  8
Pin
  10
-3.2981
  20
2.0073
  40
0.0292
  41
0.7
  1
1
  50
90.0
  72
0
  73
3
  7
STANDARD
  71
0
  11
-3.2981
  21
2.0073
  0
POLYLINE
  8
Pin
  6
CONTINUOUS
  66
1
  70
0
  40
0.0098
  41
0.0098
  0
VERTEX
  8
Pin
  10
-3.25
  20
2.05
  42
0
  0
VERTEX
  8
Pin
  10
-3.25
  20
1.9
  42
0
  0
SEQEND
  0
POLYLINE
  8
Pin
  6
CONTINUOUS
  66
1
  70
0
  40
0.0049
  41
0.0049
  0
VERTEX
  8
Pin
  10
-3.2525
  20
2.05
  42
1
  0
VERTEX
  8
Pin
  10
-3.2475
  20
2.05
  42
1
  0
VERTEX
  8
Pin
  10
-3.2525
  20
2.05
  42
1
  0
SEQEND
  0
POLYLINE
  8
Pin
  6
CONTINUOUS
  66
1
  70
0
  40
0.0049
  41
0.0049
  0
VERTEX
  8
Pin
  10
-3.2525
  20
1.9
  42
1
  0
VERTEX
  8
Pin
  10
-3.2475
  20
1.9
  42
1
  0
VERTEX
  8
Pin
  10
-3.2525
  20
1.9
  42
1
  0
SEQEND
  0
TEXT
  8
Pin
  10
-3.2981
  20
2.3137
  40
0.0292
  41
0.7
  1
2
  50
90.0
  72
0
  73
3
  7
STANDARD
  71
0
  11
-3.2981
  21
2.3137
  0
POLYLINE
  8
Pin
  6
CONTINUOUS
  66
1
  70
0
  40
0.0098
  41
0.0098
  0
VERTEX
  8
Pin
  10
-3.25
  20
2.2875
  42
0
  0
VERTEX
  8
Pin
  10
-3.25
  20
2.4375
  42
0
  0
SEQEND
  0
POLYLINE
  8
Pin
  6
CONTINUOUS
  66
1
  70
0
  40
0.0049
  41
0.0049
  0
VERTEX
  8
Pin
  10
-3.2525
  20
2.2875
  42
1
  0
VERTEX
  8
Pin
  10
-3.2475
  20
2.2875
  42
1
  0
VERTEX
  8
Pin
  10
-3.2525
  20
2.2875
  42
1
  0
SEQEND
  0
POLYLINE
  8
Pin
  6
CONTINUOUS
  66
1
  70
0
  40
0.0049
  41
0.0049
  0
VERTEX
  8
Pin
  10
-3.2525
  20
2.4375
  42
1
  0
VERTEX
  8
Pin
  10
-3.2475
  20
2.4375
  42
1
  0
VERTEX
  8
Pin
  10
-3.2525
  20
2.4375
  42
1
  0
SEQEND
  0
TEXT
  8
Pin
  10
-3.2981
  20
-0.0427
  40
0.0292
  41
0.7
  1
1
  50
90.0
  72
0
  73
3
  7
STANDARD
  71
0
  11
-3.2981
  21
-0.0427
  0
POLYLINE
  8
Pin
  6
CONTINUOUS
  66
1
  70
0
  40
0.0098
  41
0.0098
  0
VERTEX
  8
Pin
  10
-3.25
  20
0.0
  42
0
  0
VERTEX
  8
Pin
  10
-3.25
  20
-0.15
  42
0
  0
SEQEND
  0
POLYLINE
  8
Pin
  6
CONTINUOUS
  66
1
  70
0
  40
0.0049
  41
0.0049
  0
VERTEX
  8
Pin
  10
-3.2525
  20
0.0
  42
1
  0
VERTEX
  8
Pin
  10
-3.2475
  20
0.0
  42
1
  0
VERTEX
  8
Pin
  10
-3.2525
  20
0.0
  42
1
  0
SEQEND
  0
POLYLINE
  8
Pin
  6
CONTINUOUS
  66
1
  70
0
  40
0.0049
  41
0.0049
  0
VERTEX
  8
Pin
  10
-3.2525
  20
-0.15
  42
1
  0
VERTEX
  8
Pin
  10
-3.2475
  20
-0.15
  42
1
  0
VERTEX
  8
Pin
  10
-3.2525
  20
-0.15
  42
1
  0
SEQEND
  0
TEXT
  8
Pin
  10
-3.2981
  20
0.2637
  40
0.0292
  41
0.7
  1
2
  50
90.0
  72
0
  73
3
  7
STANDARD
  71
0
  11
-3.2981
  21
0.2637
  0
POLYLINE
  8
Pin
  6
CONTINUOUS
  66
1
  70
0
  40
0.0098
  41
0.0098
  0
VERTEX
  8
Pin
  10
-3.25
  20
0.2375
  42
0
  0
VERTEX
  8
Pin
  10
-3.25
  20
0.3875
  42
0
  0
SEQEND
  0
POLYLINE
  8
Pin
  6
CONTINUOUS
  66
1
  70
0
  40
0.0049
  41
0.0049
  0
VERTEX
  8
Pin
  10
-3.2525
  20
0.2375
  42
1
  0
VERTEX
  8
Pin
  10
-3.2475
  20
0.2375
  42
1
  0
VERTEX
  8
Pin
  10
-3.2525
  20
0.2375
  42
1
  0
SEQEND
  0
POLYLINE
  8
Pin
  6
CONTINUOUS
  66
1
  70
0
  40
0.0049
  41
0.0049
  0
VERTEX
  8
Pin
  10
-3.2525
  20
0.3875
  42
1
  0
VERTEX
  8
Pin
  10
-3.2475
  20
0.3875
  42
1
  0
VERTEX
  8
Pin
  10
-3.2525
  20
0.3875
  42
1
  0
SEQEND
  0
TEXT
  8
Pin
  10
-3.2981
  20
-0.6927
  40
0.0292
  41
0.7
  1
1
  50
90.0
  72
0
  73
3
  7
STANDARD
  71
0
  11
-3.2981
  21
-0.6927
  0
POLYLINE
  8
Pin
  6
CONTINUOUS
  66
1
  70
0
  40
0.0098
  41
0.0098
  0
VERTEX
  8
Pin
  10
-3.25
  20
-0.65
  42
0
  0
VERTEX
  8
Pin
  10
-3.25
  20
-0.8
  42
0
  0
SEQEND
  0
POLYLINE
  8
Pin
  6
CONTINUOUS
  66
1
  70
0
  40
0.0049
  41
0.0049
  0
VERTEX
  8
Pin
  10
-3.2525
  20
-0.65
  42
1
  0
VERTEX
  8
Pin
  10
-3.2475
  20
-0.65
  42
1
  0
VERTEX
  8
Pin
  10
-3.2525
  20
-0.65
  42
1
  0
SEQEND
  0
POLYLINE
  8
Pin
  6
CONTINUOUS
  66
1
  70
0
  40
0.0049
  41
0.0049
  0
VERTEX
  8
Pin
  10
-3.2525
  20
-0.8
  42
1
  0
VERTEX
  8
Pin
  10
-3.2475
  20
-0.8
  42
1
  0
VERTEX
  8
Pin
  10
-3.2525
  20
-0.8
  42
1
  0
SEQEND
  0
TEXT
  8
Pin
  10
-3.2981
  20
-0.3863
  40
0.0292
  41
0.7
  1
2
  50
90.0
  72
0
  73
3
  7
STANDARD
  71
0
  11
-3.2981
  21
-0.3863
  0
POLYLINE
  8
Pin
  6
CONTINUOUS
  66
1
  70
0
  40
0.0098
  41
0.0098
  0
VERTEX
  8
Pin
  10
-3.25
  20
-0.4125
  42
0
  0
VERTEX
  8
Pin
  10
-3.25
  20
-0.2625
  42
0
  0
SEQEND
  0
POLYLINE
  8
Pin
  6
CONTINUOUS
  66
1
  70
0
  40
0.0049
  41
0.0049
  0
VERTEX
  8
Pin
  10
-3.2525
  20
-0.4125
  42
1
  0
VERTEX
  8
Pin
  10
-3.2475
  20
-0.4125
  42
1
  0
VERTEX
  8
Pin
  10
-3.2525
  20
-0.4125
  42
1
  0
SEQEND
  0
POLYLINE
  8
Pin
  6
CONTINUOUS
  66
1
  70
0
  40
0.0049
  41
0.0049
  0
VERTEX
  8
Pin
  10
-3.2525
  20
-0.2625
  42
1
  0
VERTEX
  8
Pin
  10
-3.2475
  20
-0.2625
  42
1
  0
VERTEX
  8
Pin
  10
-3.2525
  20
-0.2625
  42
1
  0
SEQEND
  0
TEXT
  8
Pin
  10
-3.2981
  20
1.0762
  40
0.0292
  41
0.7
  1
1
  50
90.0
  72
0
  73
3
  7
STANDARD
  71
0
  11
-3.2981
  21
1.0762
  0
POLYLINE
  8
Pin
  6
CONTINUOUS
  66
1
  70
0
  40
0.0098
  41
0.0098
  0
VERTEX
  8
Pin
  10
-3.25
  20
1.05
  42
0
  0
VERTEX
  8
Pin
  10
-3.25
  20
1.2
  42
0
  0
SEQEND
  0
POLYLINE
  8
Pin
  6
CONTINUOUS
  66
1
  70
0
  40
0.0049
  41
0.0049
  0
VERTEX
  8
Pin
  10
-3.2525
  20
1.05
  42
1
  0
VERTEX
  8
Pin
  10
-3.2475
  20
1.05
  42
1
  0
VERTEX
  8
Pin
  10
-3.2525
  20
1.05
  42
1
  0
SEQEND
  0
POLYLINE
  8
Pin
  6
CONTINUOUS
  66
1
  70
0
  40
0.0049
  41
0.0049
  0
VERTEX
  8
Pin
  10
-3.2525
  20
1.2
  42
1
  0
VERTEX
  8
Pin
  10
-3.2475
  20
1.2
  42
1
  0
VERTEX
  8
Pin
  10
-3.2525
  20
1.2
  42
1
  0
SEQEND
  0
TEXT
  8
Pin
  10
-3.2981
  20
-0.8238
  40
0.0292
  41
0.7
  1
1
  50
90.0
  72
0
  73
3
  7
STANDARD
  71
0
  11
-3.2981
  21
-0.8238
  0
POLYLINE
  8
Pin
  6
CONTINUOUS
  66
1
  70
0
  40
0.0098
  41
0.0098
  0
VERTEX
  8
Pin
  10
-3.25
  20
-0.85
  42
0
  0
VERTEX
  8
Pin
  10
-3.25
  20
-0.7
  42
0
  0
SEQEND
  0
POLYLINE
  8
Pin
  6
CONTINUOUS
  66
1
  70
0
  40
0.0049
  41
0.0049
  0
VERTEX
  8
Pin
  10
-3.2525
  20
-0.85
  42
1
  0
VERTEX
  8
Pin
  10
-3.2475
  20
-0.85
  42
1
  0
VERTEX
  8
Pin
  10
-3.2525
  20
-0.85
  42
1
  0
SEQEND
  0
POLYLINE
  8
Pin
  6
CONTINUOUS
  66
1
  70
0
  40
0.0049
  41
0.0049
  0
VERTEX
  8
Pin
  10
-3.2525
  20
-0.7
  42
1
  0
VERTEX
  8
Pin
  10
-3.2475
  20
-0.7
  42
1
  0
VERTEX
  8
Pin
  10
-3.2525
  20
-0.7
  42
1
  0
SEQEND
  0
TEXT
  8
Pin
  10
-2.2476
  20
2.1481
  40
0.0292
  41
0.7
  1
1
  50
0.0
  72
0
  73
3
  7
STANDARD
  71
0
  11
-2.2476
  21
2.1481
  0
POLYLINE
  8
Pin
  6
CONTINUOUS
  66
1
  70
0
  40
0.0098
  41
0.0098
  0
VERTEX
  8
Pin
  10
-2.2
  20
2.1
  42
0
  0
VERTEX
  8
Pin
  10
-2.35
  20
2.1
  42
0
  0
SEQEND
  0
POLYLINE
  8
Pin
  6
CONTINUOUS
  66
1
  70
0
  40
0.0049
  41
0.0049
  0
VERTEX
  8
Pin
  10
-2.2025
  20
2.1
  42
1
  0
VERTEX
  8
Pin
  10
-2.1975
  20
2.1
  42
1
  0
VERTEX
  8
Pin
  10
-2.2025
  20
2.1
  42
1
  0
SEQEND
  0
POLYLINE
  8
Pin
  6
CONTINUOUS
  66
1
  70
0
  40
0.0049
  41
0.0049
  0
VERTEX
  8
Pin
  10
-2.3525
  20
2.1
  42
1
  0
VERTEX
  8
Pin
  10
-2.3475
  20
2.1
  42
1
  0
VERTEX
  8
Pin
  10
-2.3525
  20
2.1
  42
1
  0
SEQEND
  0
TEXT
  8
Pin
  10
-1.9988
  20
2.1481
  40
0.0292
  41
0.7
  1
2
  50
0.0
  72
0
  73
3
  7
STANDARD
  71
0
  11
-1.9988
  21
2.1481
  0
POLYLINE
  8
Pin
  6
CONTINUOUS
  66
1
  70
0
  40
0.0098
  41
0.0098
  0
VERTEX
  8
Pin
  10
-2.025
  20
2.1
  42
0
  0
VERTEX
  8
Pin
  10
-1.875
  20
2.1
  42
0
  0
SEQEND
  0
POLYLINE
  8
Pin
  6
CONTINUOUS
  66
1
  70
0
  40
0.0049
  41
0.0049
  0
VERTEX
  8
Pin
  10
-2.0275
  20
2.1
  42
1
  0
VERTEX
  8
Pin
  10
-2.0225
  20
2.1
  42
1
  0
VERTEX
  8
Pin
  10
-2.0275
  20
2.1
  42
1
  0
SEQEND
  0
POLYLINE
  8
Pin
  6
CONTINUOUS
  66
1
  70
0
  40
0.0049
  41
0.0049
  0
VERTEX
  8
Pin
  10
-1.8775
  20
2.1
  42
1
  0
VERTEX
  8
Pin
  10
-1.8725
  20
2.1
  42
1
  0
VERTEX
  8
Pin
  10
-1.8775
  20
2.1
  42
1
  0
SEQEND
  0
TEXT
  8
Pin
  10
-1.4976
  20
2.6981
  40
0.0292
  41
0.7
  1
1
  50
0.0
  72
0
  73
3
  7
STANDARD
  71
0
  11
-1.4976
  21
2.6981
  0
POLYLINE
  8
Pin
  6
CONTINUOUS
  66
1
  70
0
  40
0.0098
  41
0.0098
  0
VERTEX
  8
Pin
  10
-1.45
  20
2.65
  42
0
  0
VERTEX
  8
Pin
  10
-1.6
  20
2.65
  42
0
  0
SEQEND
  0
POLYLINE
  8
Pin
  6
CONTINUOUS
  66
1
  70
0
  40
0.0049
  41
0.0049
  0
VERTEX
  8
Pin
  10
-1.4525
  20
2.65
  42
1
  0
VERTEX
  8
Pin
  10
-1.4475
  20
2.65
  42
1
  0
VERTEX
  8
Pin
  10
-1.4525
  20
2.65
  42
1
  0
SEQEND
  0
POLYLINE
  8
Pin
  6
CONTINUOUS
  66
1
  70
0
  40
0.0049
  41
0.0049
  0
VERTEX
  8
Pin
  10
-1.6025
  20
2.65
  42
1
  0
VERTEX
  8
Pin
  10
-1.5975
  20
2.65
  42
1
  0
VERTEX
  8
Pin
  10
-1.6025
  20
2.65
  42
1
  0
SEQEND
  0
TEXT
  8
Pin
  10
-1.2488
  20
2.6981
  40
0.0292
  41
0.7
  1
2
  50
0.0
  72
0
  73
3
  7
STANDARD
  71
0
  11
-1.2488
  21
2.6981
  0
POLYLINE
  8
Pin
  6
CONTINUOUS
  66
1
  70
0
  40
0.0098
  41
0.0098
  0
VERTEX
  8
Pin
  10
-1.275
  20
2.65
  42
0
  0
VERTEX
  8
Pin
  10
-1.125
  20
2.65
  42
0
  0
SEQEND
  0
POLYLINE
  8
Pin
  6
CONTINUOUS
  66
1
  70
0
  40
0.0049
  41
0.0049
  0
VERTEX
  8
Pin
  10
-1.2775
  20
2.65
  42
1
  0
VERTEX
  8
Pin
  10
-1.2725
  20
2.65
  42
1
  0
VERTEX
  8
Pin
  10
-1.2775
  20
2.65
  42
1
  0
SEQEND
  0
POLYLINE
  8
Pin
  6
CONTINUOUS
  66
1
  70
0
  40
0.0049
  41
0.0049
  0
VERTEX
  8
Pin
  10
-1.1275
  20
2.65
  42
1
  0
VERTEX
  8
Pin
  10
-1.1225
  20
2.65
  42
1
  0
VERTEX
  8
Pin
  10
-1.1275
  20
2.65
  42
1
  0
SEQEND
  0
TEXT
  8
Pin
  10
-1.4976
  20
0.7481
  40
0.0292
  41
0.7
  1
1
  50
0.0
  72
0
  73
3
  7
STANDARD
  71
0
  11
-1.4976
  21
0.7481
  0
POLYLINE
  8
Pin
  6
CONTINUOUS
  66
1
  70
0
  40
0.0098
  41
0.0098
  0
VERTEX
  8
Pin
  10
-1.45
  20
0.7
  42
0
  0
VERTEX
  8
Pin
  10
-1.6
  20
0.7
  42
0
  0
SEQEND
  0
POLYLINE
  8
Pin
  6
CONTINUOUS
  66
1
  70
0
  40
0.0049
  41
0.0049
  0
VERTEX
  8
Pin
  10
-1.4525
  20
0.7
  42
1
  0
VERTEX
  8
Pin
  10
-1.4475
  20
0.7
  42
1
  0
VERTEX
  8
Pin
  10
-1.4525
  20
0.7
  42
1
  0
SEQEND
  0
POLYLINE
  8
Pin
  6
CONTINUOUS
  66
1
  70
0
  40
0.0049
  41
0.0049
  0
VERTEX
  8
Pin
  10
-1.6025
  20
0.7
  42
1
  0
VERTEX
  8
Pin
  10
-1.5975
  20
0.7
  42
1
  0
VERTEX
  8
Pin
  10
-1.6025
  20
0.7
  42
1
  0
SEQEND
  0
TEXT
  8
Pin
  10
-1.2488
  20
0.7481
  40
0.0292
  41
0.7
  1
2
  50
0.0
  72
0
  73
3
  7
STANDARD
  71
0
  11
-1.2488
  21
0.7481
  0
POLYLINE
  8
Pin
  6
CONTINUOUS
  66
1
  70
0
  40
0.0098
  41
0.0098
  0
VERTEX
  8
Pin
  10
-1.275
  20
0.7
  42
0
  0
VERTEX
  8
Pin
  10
-1.125
  20
0.7
  42
0
  0
SEQEND
  0
POLYLINE
  8
Pin
  6
CONTINUOUS
  66
1
  70
0
  40
0.0049
  41
0.0049
  0
VERTEX
  8
Pin
  10
-1.2775
  20
0.7
  42
1
  0
VERTEX
  8
Pin
  10
-1.2725
  20
0.7
  42
1
  0
VERTEX
  8
Pin
  10
-1.2775
  20
0.7
  42
1
  0
SEQEND
  0
POLYLINE
  8
Pin
  6
CONTINUOUS
  66
1
  70
0
  40
0.0049
  41
0.0049
  0
VERTEX
  8
Pin
  10
-1.1275
  20
0.7
  42
1
  0
VERTEX
  8
Pin
  10
-1.1225
  20
0.7
  42
1
  0
VERTEX
  8
Pin
  10
-1.1275
  20
0.7
  42
1
  0
SEQEND
  0
TEXT
  8
Pin
  10
-2.3476
  20
0.2481
  40
0.0292
  41
0.7
  1
1
  50
0.0
  72
0
  73
3
  7
STANDARD
  71
0
  11
-2.3476
  21
0.2481
  0
POLYLINE
  8
Pin
  6
CONTINUOUS
  66
1
  70
0
  40
0.0098
  41
0.0098
  0
VERTEX
  8
Pin
  10
-2.3
  20
0.2
  42
0
  0
VERTEX
  8
Pin
  10
-2.45
  20
0.2
  42
0
  0
SEQEND
  0
POLYLINE
  8
Pin
  6
CONTINUOUS
  66
1
  70
0
  40
0.0049
  41
0.0049
  0
VERTEX
  8
Pin
  10
-2.3025
  20
0.2
  42
1
  0
VERTEX
  8
Pin
  10
-2.2975
  20
0.2
  42
1
  0
VERTEX
  8
Pin
  10
-2.3025
  20
0.2
  42
1
  0
SEQEND
  0
POLYLINE
  8
Pin
  6
CONTINUOUS
  66
1
  70
0
  40
0.0049
  41
0.0049
  0
VERTEX
  8
Pin
  10
-2.4525
  20
0.2
  42
1
  0
VERTEX
  8
Pin
  10
-2.4475
  20
0.2
  42
1
  0
VERTEX
  8
Pin
  10
-2.4525
  20
0.2
  42
1
  0
SEQEND
  0
TEXT
  8
Pin
  10
-2.0988
  20
0.2481
  40
0.0292
  41
0.7
  1
2
  50
0.0
  72
0
  73
3
  7
STANDARD
  71
0
  11
-2.0988
  21
0.2481
  0
POLYLINE
  8
Pin
  6
CONTINUOUS
  66
1
  70
0
  40
0.0098
  41
0.0098
  0
VERTEX
  8
Pin
  10
-2.125
  20
0.2
  42
0
  0
VERTEX
  8
Pin
  10
-1.975
  20
0.2
  42
0
  0
SEQEND
  0
POLYLINE
  8
Pin
  6
CONTINUOUS
  66
1
  70
0
  40
0.0049
  41
0.0049
  0
VERTEX
  8
Pin
  10
-2.1275
  20
0.2
  42
1
  0
VERTEX
  8
Pin
  10
-2.1225
  20
0.2
  42
1
  0
VERTEX
  8
Pin
  10
-2.1275
  20
0.2
  42
1
  0
SEQEND
  0
POLYLINE
  8
Pin
  6
CONTINUOUS
  66
1
  70
0
  40
0.0049
  41
0.0049
  0
VERTEX
  8
Pin
  10
-1.9775
  20
0.2
  42
1
  0
VERTEX
  8
Pin
  10
-1.9725
  20
0.2
  42
1
  0
VERTEX
  8
Pin
  10
-1.9775
  20
0.2
  42
1
  0
SEQEND
  0
TEXT
  8
Pin
  10
-2.3981
  20
1.8762
  40
0.0292
  41
0.7
  1
1
  50
90.0
  72
0
  73
3
  7
STANDARD
  71
0
  11
-2.3981
  21
1.8762
  0
POLYLINE
  8
Pin
  6
CONTINUOUS
  66
1
  70
0
  40
0.0098
  41
0.0098
  0
VERTEX
  8
Pin
  10
-2.35
  20
1.85
  42
0
  0
VERTEX
  8
Pin
  10
-2.35
  20
2.0
  42
0
  0
SEQEND
  0
POLYLINE
  8
Pin
  6
CONTINUOUS
  66
1
  70
0
  40
0.0049
  41
0.0049
  0
VERTEX
  8
Pin
  10
-2.3525
  20
1.85
  42
1
  0
VERTEX
  8
Pin
  10
-2.3475
  20
1.85
  42
1
  0
VERTEX
  8
Pin
  10
-2.3525
  20
1.85
  42
1
  0
SEQEND
  0
POLYLINE
  8
Pin
  6
CONTINUOUS
  66
1
  70
0
  40
0.0049
  41
0.0049
  0
VERTEX
  8
Pin
  10
-2.3525
  20
2.0
  42
1
  0
VERTEX
  8
Pin
  10
-2.3475
  20
2.0
  42
1
  0
VERTEX
  8
Pin
  10
-2.3525
  20
2.0
  42
1
  0
SEQEND
  0
TEXT
  8
Pin
  10
-2.4981
  20
-0.0238
  40
0.0292
  41
0.7
  1
1
  50
90.0
  72
0
  73
3
  7
STANDARD
  71
0
  11
-2.4981
  21
-0.0238
  0
POLYLINE
  8
Pin
  6
CONTINUOUS
  66
1
  70
0
  40
0.0098
  41
0.0098
  0
VERTEX
  8
Pin
  10
-2.45
  20
-0.05
  42
0
  0
VERTEX
  8
Pin
  10
-2.45
  20
0.1
  42
0
  0
SEQEND
  0
POLYLINE
  8
Pin
  6
CONTINUOUS
  66
1
  70
0
  40
0.0049
  41
0.0049
  0
VERTEX
  8
Pin
  10
-2.4525
  20
-0.05
  42
1
  0
VERTEX
  8
Pin
  10
-2.4475
  20
-0.05
  42
1
  0
VERTEX
  8
Pin
  10
-2.4525
  20
-0.05
  42
1
  0
SEQEND
  0
POLYLINE
  8
Pin
  6
CONTINUOUS
  66
1
  70
0
  40
0.0049
  41
0.0049
  0
VERTEX
  8
Pin
  10
-2.4525
  20
0.1
  42
1
  0
VERTEX
  8
Pin
  10
-2.4475
  20
0.1
  42
1
  0
VERTEX
  8
Pin
  10
-2.4525
  20
0.1
  42
1
  0
SEQEND
  0
TEXT
  8
Pin
  10
-0.9481
  20
-0.9238
  40
0.0292
  41
0.7
  1
1
  50
90.0
  72
0
  73
3
  7
STANDARD
  71
0
  11
-0.9481
  21
-0.9238
  0
POLYLINE
  8
Pin
  6
CONTINUOUS
  66
1
  70
0
  40
0.0098
  41
0.0098
  0
VERTEX
  8
Pin
  10
-0.9
  20
-0.95
  42
0
  0
VERTEX
  8
Pin
  10
-0.9
  20
-0.8
  42
0
  0
SEQEND
  0
POLYLINE
  8
Pin
  6
CONTINUOUS
  66
1
  70
0
  40
0.0049
  41
0.0049
  0
VERTEX
  8
Pin
  10
-0.9025
  20
-0.95
  42
1
  0
VERTEX
  8
Pin
  10
-0.8975
  20
-0.95
  42
1
  0
VERTEX
  8
Pin
  10
-0.9025
  20
-0.95
  42
1
  0
SEQEND
  0
POLYLINE
  8
Pin
  6
CONTINUOUS
  66
1
  70
0
  40
0.0049
  41
0.0049
  0
VERTEX
  8
Pin
  10
-0.9025
  20
-0.8
  42
1
  0
VERTEX
  8
Pin
  10
-0.8975
  20
-0.8
  42
1
  0
VERTEX
  8
Pin
  10
-0.9025
  20
-0.8
  42
1
  0
SEQEND
  0
TEXT
  8
Pin
  10
-1.4106
  20
2.1208
  40
0.0365
  41
0.7
  1
INB-
  50
0.0
  72
0
  73
3
  7
STANDARD
  71
0
  11
-1.4106
  21
2.1208
  0
TEXT
  8
Pin
  10
-1.4976
  20
2.1481
  40
0.0292
  41
0.7
  1
2
  50
0.0
  72
0
  73
3
  7
STANDARD
  71
0
  11
-1.4976
  21
2.1481
  0
POLYLINE
  8
Pin
  6
CONTINUOUS
  66
1
  70
0
  40
0.0098
  41
0.0098
  0
VERTEX
  8
Pin
  10
-1.45
  20
2.1
  42
0
  0
VERTEX
  8
Pin
  10
-1.6
  20
2.1
  42
0
  0
SEQEND
  0
POLYLINE
  8
Pin
  6
CONTINUOUS
  66
1
  70
0
  40
0.0049
  41
0.0049
  0
VERTEX
  8
Pin
  10
-1.4525
  20
2.1
  42
1
  0
VERTEX
  8
Pin
  10
-1.4475
  20
2.1
  42
1
  0
VERTEX
  8
Pin
  10
-1.4525
  20
2.1
  42
1
  0
SEQEND
  0
POLYLINE
  8
Pin
  6
CONTINUOUS
  66
1
  70
0
  40
0.0049
  41
0.0049
  0
VERTEX
  8
Pin
  10
-1.6025
  20
2.1
  42
1
  0
VERTEX
  8
Pin
  10
-1.5975
  20
2.1
  42
1
  0
VERTEX
  8
Pin
  10
-1.6025
  20
2.1
  42
1
  0
SEQEND
  0
POLYLINE
  8
Pin
  6
CONTINUOUS
  66
1
  70
0
  40
0.0098
  41
0.0098
  0
VERTEX
  8
Pin
  10
-1.4238
  20
2.1
  42
0
  0
VERTEX
  8
Pin
  10
-1.425
  20
2.1081
  42
0
  0
VERTEX
  8
Pin
  10
-1.4288
  20
2.1154
  42
0
  0
VERTEX
  8
Pin
  10
-1.4346
  20
2.1212
  42
0
  0
VERTEX
  8
Pin
  10
-1.4419
  20
2.125
  42
0
  0
VERTEX
  8
Pin
  10
-1.45
  20
2.1262
  42
0
  0
VERTEX
  8
Pin
  10
-1.4581
  20
2.125
  42
0
  0
VERTEX
  8
Pin
  10
-1.4654
  20
2.1212
  42
0
  0
VERTEX
  8
Pin
  10
-1.4712
  20
2.1154
  42
0
  0
VERTEX
  8
Pin
  10
-1.475
  20
2.1081
  42
0
  0
VERTEX
  8
Pin
  10
-1.4762
  20
2.1
  42
0
  0
VERTEX
  8
Pin
  10
-1.475
  20
2.0919
  42
0
  0
VERTEX
  8
Pin
  10
-1.4712
  20
2.0846
  42
0
  0
VERTEX
  8
Pin
  10
-1.4654
  20
2.0788
  42
0
  0
VERTEX
  8
Pin
  10
-1.4581
  20
2.075
  42
0
  0
VERTEX
  8
Pin
  10
-1.45
  20
2.0738
  42
0
  0
VERTEX
  8
Pin
  10
-1.4419
  20
2.075
  42
0
  0
VERTEX
  8
Pin
  10
-1.4346
  20
2.0788
  42
0
  0
VERTEX
  8
Pin
  10
-1.4288
  20
2.0846
  42
0
  0
VERTEX
  8
Pin
  10
-1.425
  20
2.0919
  42
0
  0
VERTEX
  8
Pin
  10
-1.4238
  20
2.1
  42
0
  0
SEQEND
  0
POLYLINE
  8
Pin
  6
CONTINUOUS
  66
1
  70
0
  40
0.0049
  41
0.0049
  0
VERTEX
  8
Pin
  10
-1.4262
  20
2.1
  42
1
  0
VERTEX
  8
Pin
  10
-1.4213
  20
2.1
  42
1
  0
VERTEX
  8
Pin
  10
-1.4262
  20
2.1
  42
1
  0
SEQEND
  0
TEXT
  8
Pin
  10
-1.4106
  20
1.8208
  40
0.0365
  41
0.7
  1
INB+
  50
0.0
  72
0
  73
3
  7
STANDARD
  71
0
  11
-1.4106
  21
1.8208
  0
TEXT
  8
Pin
  10
-1.4976
  20
1.8481
  40
0.0292
  41
0.7
  1
3
  50
0.0
  72
0
  73
3
  7
STANDARD
  71
0
  11
-1.4976
  21
1.8481
  0
POLYLINE
  8
Pin
  6
CONTINUOUS
  66
1
  70
0
  40
0.0098
  41
0.0098
  0
VERTEX
  8
Pin
  10
-1.45
  20
1.8
  42
0
  0
VERTEX
  8
Pin
  10
-1.6
  20
1.8
  42
0
  0
SEQEND
  0
POLYLINE
  8
Pin
  6
CONTINUOUS
  66
1
  70
0
  40
0.0049
  41
0.0049
  0
VERTEX
  8
Pin
  10
-1.4525
  20
1.8
  42
1
  0
VERTEX
  8
Pin
  10
-1.4475
  20
1.8
  42
1
  0
VERTEX
  8
Pin
  10
-1.4525
  20
1.8
  42
1
  0
SEQEND
  0
POLYLINE
  8
Pin
  6
CONTINUOUS
  66
1
  70
0
  40
0.0049
  41
0.0049
  0
VERTEX
  8
Pin
  10
-1.6025
  20
1.8
  42
1
  0
VERTEX
  8
Pin
  10
-1.5975
  20
1.8
  42
1
  0
VERTEX
  8
Pin
  10
-1.6025
  20
1.8
  42
1
  0
SEQEND
  0
TEXT
  8
Pin
  10
-1.1411
  20
1.9708
  40
0.0365
  41
0.7
  1
OUTB
  50
0.0
  72
0
  73
3
  7
STANDARD
  71
0
  11
-1.1411
  21
1.9708
  0
TEXT
  8
Pin
  10
-0.9738
  20
1.9981
  40
0.0292
  41
0.7
  1
1
  50
0.0
  72
0
  73
3
  7
STANDARD
  71
0
  11
-0.9738
  21
1.9981
  0
POLYLINE
  8
Pin
  6
CONTINUOUS
  66
1
  70
0
  40
0.0098
  41
0.0098
  0
VERTEX
  8
Pin
  10
-1.0
  20
1.95
  42
0
  0
VERTEX
  8
Pin
  10
-0.85
  20
1.95
  42
0
  0
SEQEND
  0
POLYLINE
  8
Pin
  6
CONTINUOUS
  66
1
  70
0
  40
0.0049
  41
0.0049
  0
VERTEX
  8
Pin
  10
-1.0025
  20
1.95
  42
1
  0
VERTEX
  8
Pin
  10
-0.9975
  20
1.95
  42
1
  0
VERTEX
  8
Pin
  10
-1.0025
  20
1.95
  42
1
  0
SEQEND
  0
POLYLINE
  8
Pin
  6
CONTINUOUS
  66
1
  70
0
  40
0.0049
  41
0.0049
  0
VERTEX
  8
Pin
  10
-0.8525
  20
1.95
  42
1
  0
VERTEX
  8
Pin
  10
-0.8475
  20
1.95
  42
1
  0
VERTEX
  8
Pin
  10
-0.8525
  20
1.95
  42
1
  0
SEQEND
  0
TEXT
  8
Pin
  10
-1.5106
  20
0.2208
  40
0.0365
  41
0.7
  1
INB-
  50
0.0
  72
0
  73
3
  7
STANDARD
  71
0
  11
-1.5106
  21
0.2208
  0
TEXT
  8
Pin
  10
-1.5976
  20
0.2481
  40
0.0292
  41
0.7
  1
6
  50
0.0
  72
0
  73
3
  7
STANDARD
  71
0
  11
-1.5976
  21
0.2481
  0
POLYLINE
  8
Pin
  6
CONTINUOUS
  66
1
  70
0
  40
0.0098
  41
0.0098
  0
VERTEX
  8
Pin
  10
-1.55
  20
0.2
  42
0
  0
VERTEX
  8
Pin
  10
-1.7
  20
0.2
  42
0
  0
SEQEND
  0
POLYLINE
  8
Pin
  6
CONTINUOUS
  66
1
  70
0
  40
0.0049
  41
0.0049
  0
VERTEX
  8
Pin
  10
-1.5525
  20
0.2
  42
1
  0
VERTEX
  8
Pin
  10
-1.5475
  20
0.2
  42
1
  0
VERTEX
  8
Pin
  10
-1.5525
  20
0.2
  42
1
  0
SEQEND
  0
POLYLINE
  8
Pin
  6
CONTINUOUS
  66
1
  70
0
  40
0.0049
  41
0.0049
  0
VERTEX
  8
Pin
  10
-1.7025
  20
0.2
  42
1
  0
VERTEX
  8
Pin
  10
-1.6975
  20
0.2
  42
1
  0
VERTEX
  8
Pin
  10
-1.7025
  20
0.2
  42
1
  0
SEQEND
  0
POLYLINE
  8
Pin
  6
CONTINUOUS
  66
1
  70
0
  40
0.0098
  41
0.0098
  0
VERTEX
  8
Pin
  10
-1.5238
  20
0.2
  42
0
  0
VERTEX
  8
Pin
  10
-1.525
  20
0.2081
  42
0
  0
VERTEX
  8
Pin
  10
-1.5288
  20
0.2154
  42
0
  0
VERTEX
  8
Pin
  10
-1.5346
  20
0.2212
  42
0
  0
VERTEX
  8
Pin
  10
-1.5419
  20
0.225
  42
0
  0
VERTEX
  8
Pin
  10
-1.55
  20
0.2262
  42
0
  0
VERTEX
  8
Pin
  10
-1.5581
  20
0.225
  42
0
  0
VERTEX
  8
Pin
  10
-1.5654
  20
0.2212
  42
0
  0
VERTEX
  8
Pin
  10
-1.5712
  20
0.2154
  42
0
  0
VERTEX
  8
Pin
  10
-1.575
  20
0.2081
  42
0
  0
VERTEX
  8
Pin
  10
-1.5762
  20
0.2
  42
0
  0
VERTEX
  8
Pin
  10
-1.575
  20
0.1919
  42
0
  0
VERTEX
  8
Pin
  10
-1.5712
  20
0.1846
  42
0
  0
VERTEX
  8
Pin
  10
-1.5654
  20
0.1788
  42
0
  0
VERTEX
  8
Pin
  10
-1.5581
  20
0.175
  42
0
  0
VERTEX
  8
Pin
  10
-1.55
  20
0.1738
  42
0
  0
VERTEX
  8
Pin
  10
-1.5419
  20
0.175
  42
0
  0
VERTEX
  8
Pin
  10
-1.5346
  20
0.1788
  42
0
  0
VERTEX
  8
Pin
  10
-1.5288
  20
0.1846
  42
0
  0
VERTEX
  8
Pin
  10
-1.525
  20
0.1919
  42
0
  0
VERTEX
  8
Pin
  10
-1.5238
  20
0.2
  42
0
  0
SEQEND
  0
POLYLINE
  8
Pin
  6
CONTINUOUS
  66
1
  70
0
  40
0.0049
  41
0.0049
  0
VERTEX
  8
Pin
  10
-1.5262
  20
0.2
  42
1
  0
VERTEX
  8
Pin
  10
-1.5213
  20
0.2
  42
1
  0
VERTEX
  8
Pin
  10
-1.5262
  20
0.2
  42
1
  0
SEQEND
  0
TEXT
  8
Pin
  10
-1.5106
  20
-0.0792
  40
0.0365
  41
0.7
  1
INB+
  50
0.0
  72
0
  73
3
  7
STANDARD
  71
0
  11
-1.5106
  21
-0.0792
  0
TEXT
  8
Pin
  10
-1.5976
  20
-0.0519
  40
0.0292
  41
0.7
  1
5
  50
0.0
  72
0
  73
3
  7
STANDARD
  71
0
  11
-1.5976
  21
-0.0519
  0
POLYLINE
  8
Pin
  6
CONTINUOUS
  66
1
  70
0
  40
0.0098
  41
0.0098
  0
VERTEX
  8
Pin
  10
-1.55
  20
-0.1
  42
0
  0
VERTEX
  8
Pin
  10
-1.7
  20
-0.1
  42
0
  0
SEQEND
  0
POLYLINE
  8
Pin
  6
CONTINUOUS
  66
1
  70
0
  40
0.0049
  41
0.0049
  0
VERTEX
  8
Pin
  10
-1.5525
  20
-0.1
  42
1
  0
VERTEX
  8
Pin
  10
-1.5475
  20
-0.1
  42
1
  0
VERTEX
  8
Pin
  10
-1.5525
  20
-0.1
  42
1
  0
SEQEND
  0
POLYLINE
  8
Pin
  6
CONTINUOUS
  66
1
  70
0
  40
0.0049
  41
0.0049
  0
VERTEX
  8
Pin
  10
-1.7025
  20
-0.1
  42
1
  0
VERTEX
  8
Pin
  10
-1.6975
  20
-0.1
  42
1
  0
VERTEX
  8
Pin
  10
-1.7025
  20
-0.1
  42
1
  0
SEQEND
  0
TEXT
  8
Pin
  10
-1.2411
  20
0.0708
  40
0.0365
  41
0.7
  1
OUTB
  50
0.0
  72
0
  73
3
  7
STANDARD
  71
0
  11
-1.2411
  21
0.0708
  0
TEXT
  8
Pin
  10
-1.0738
  20
0.0981
  40
0.0292
  41
0.7
  1
7
  50
0.0
  72
0
  73
3
  7
STANDARD
  71
0
  11
-1.0738
  21
0.0981
  0
POLYLINE
  8
Pin
  6
CONTINUOUS
  66
1
  70
0
  40
0.0098
  41
0.0098
  0
VERTEX
  8
Pin
  10
-1.1
  20
0.05
  42
0
  0
VERTEX
  8
Pin
  10
-0.95
  20
0.05
  42
0
  0
SEQEND
  0
POLYLINE
  8
Pin
  6
CONTINUOUS
  66
1
  70
0
  40
0.0049
  41
0.0049
  0
VERTEX
  8
Pin
  10
-1.1025
  20
0.05
  42
1
  0
VERTEX
  8
Pin
  10
-1.0975
  20
0.05
  42
1
  0
VERTEX
  8
Pin
  10
-1.1025
  20
0.05
  42
1
  0
SEQEND
  0
POLYLINE
  8
Pin
  6
CONTINUOUS
  66
1
  70
0
  40
0.0049
  41
0.0049
  0
VERTEX
  8
Pin
  10
-0.9525
  20
0.05
  42
1
  0
VERTEX
  8
Pin
  10
-0.9475
  20
0.05
  42
1
  0
VERTEX
  8
Pin
  10
-0.9525
  20
0.05
  42
1
  0
SEQEND
  0
TEXT
  8
Pin
  10
-1.2842
  20
-0.5292
  40
0.0365
  41
0.7
  1
+V
  50
0.0
  72
0
  73
3
  7
STANDARD
  71
0
  11
-1.2842
  21
-0.5292
  0
TEXT
  8
Pin
  10
-1.1738
  20
-0.5019
  40
0.0292
  41
0.7
  1
8
  50
0.0
  72
0
  73
3
  7
STANDARD
  71
0
  11
-1.1738
  21
-0.5019
  0
POLYLINE
  8
Pin
  6
CONTINUOUS
  66
1
  70
0
  40
0.0098
  41
0.0098
  0
VERTEX
  8
Pin
  10
-1.2
  20
-0.55
  42
0
  0
VERTEX
  8
Pin
  10
-1.05
  20
-0.55
  42
0
  0
SEQEND
  0
POLYLINE
  8
Pin
  6
CONTINUOUS
  66
1
  70
0
  40
0.0049
  41
0.0049
  0
VERTEX
  8
Pin
  10
-1.2025
  20
-0.55
  42
1
  0
VERTEX
  8
Pin
  10
-1.1975
  20
-0.55
  42
1
  0
VERTEX
  8
Pin
  10
-1.2025
  20
-0.55
  42
1
  0
SEQEND
  0
POLYLINE
  8
Pin
  6
CONTINUOUS
  66
1
  70
0
  40
0.0049
  41
0.0049
  0
VERTEX
  8
Pin
  10
-1.0525
  20
-0.55
  42
1
  0
VERTEX
  8
Pin
  10
-1.0475
  20
-0.55
  42
1
  0
VERTEX
  8
Pin
  10
-1.0525
  20
-0.55
  42
1
  0
SEQEND
  0
POLYLINE
  8
Pin
  6
CONTINUOUS
  66
1
  70
0
  40
0.0098
  41
0.0098
  0
VERTEX
  8
Pin
  10
-1.0631
  20
-0.5238
  42
0
  0
VERTEX
  8
Pin
  10
-1.0106
  20
-0.55
  42
0
  0
SEQEND
  0
POLYLINE
  8
Pin
  6
CONTINUOUS
  66
1
  70
0
  40
0.0049
  41
0.0049
  0
VERTEX
  8
Pin
  10
-1.0656
  20
-0.5238
  42
1
  0
VERTEX
  8
Pin
  10
-1.0607
  20
-0.5238
  42
1
  0
VERTEX
  8
Pin
  10
-1.0656
  20
-0.5238
  42
1
  0
SEQEND
  0
POLYLINE
  8
Pin
  6
CONTINUOUS
  66
1
  70
0
  40
0.0049
  41
0.0049
  0
VERTEX
  8
Pin
  10
-1.0131
  20
-0.55
  42
1
  0
VERTEX
  8
Pin
  10
-1.0082
  20
-0.55
  42
1
  0
VERTEX
  8
Pin
  10
-1.0131
  20
-0.55
  42
1
  0
SEQEND
  0
POLYLINE
  8
Pin
  6
CONTINUOUS
  66
1
  70
0
  40
0.0098
  41
0.0098
  0
VERTEX
  8
Pin
  10
-1.0631
  20
-0.5762
  42
0
  0
VERTEX
  8
Pin
  10
-1.0106
  20
-0.55
  42
0
  0
SEQEND
  0
POLYLINE
  8
Pin
  6
CONTINUOUS
  66
1
  70
0
  40
0.0049
  41
0.0049
  0
VERTEX
  8
Pin
  10
-1.0656
  20
-0.5762
  42
1
  0
VERTEX
  8
Pin
  10
-1.0607
  20
-0.5762
  42
1
  0
VERTEX
  8
Pin
  10
-1.0656
  20
-0.5762
  42
1
  0
SEQEND
  0
POLYLINE
  8
Pin
  6
CONTINUOUS
  66
1
  70
0
  40
0.0049
  41
0.0049
  0
VERTEX
  8
Pin
  10
-1.0131
  20
-0.55
  42
1
  0
VERTEX
  8
Pin
  10
-1.0082
  20
-0.55
  42
1
  0
VERTEX
  8
Pin
  10
-1.0131
  20
-0.55
  42
1
  0
SEQEND
  0
POLYLINE
  8
Pin
  6
CONTINUOUS
  66
1
  70
0
  40
0.0098
  41
0.0098
  0
VERTEX
  8
Pin
  10
-1.05
  20
-0.55
  42
0
  0
VERTEX
  8
Pin
  10
-1.0106
  20
-0.55
  42
0
  0
SEQEND
  0
POLYLINE
  8
Pin
  6
CONTINUOUS
  66
1
  70
0
  40
0.0049
  41
0.0049
  0
VERTEX
  8
Pin
  10
-1.0525
  20
-0.55
  42
1
  0
VERTEX
  8
Pin
  10
-1.0475
  20
-0.55
  42
1
  0
VERTEX
  8
Pin
  10
-1.0525
  20
-0.55
  42
1
  0
SEQEND
  0
POLYLINE
  8
Pin
  6
CONTINUOUS
  66
1
  70
0
  40
0.0049
  41
0.0049
  0
VERTEX
  8
Pin
  10
-1.0131
  20
-0.55
  42
1
  0
VERTEX
  8
Pin
  10
-1.0082
  20
-0.55
  42
1
  0
VERTEX
  8
Pin
  10
-1.0131
  20
-0.55
  42
1
  0
SEQEND
  0
TEXT
  8
Pin
  10
-0.9975
  20
-0.5281
  40
0.0437
  41
0.7
  1
+3.3V
  50
0.0
  72
0
  73
3
  7
STANDARD
  71
0
  11
-0.9975
  21
-0.5281
  0
TEXT
  8
Pin
  10
-1.2755
  20
-0.6792
  40
0.0365
  41
0.7
  1
-V
  50
0.0
  72
0
  73
3
  7
STANDARD
  71
0
  11
-1.2755
  21
-0.6792
  0
TEXT
  8
Pin
  10
-1.1738
  20
-0.6519
  40
0.0292
  41
0.7
  1
4
  50
0.0
  72
0
  73
3
  7
STANDARD
  71
0
  11
-1.1738
  21
-0.6519
  0
POLYLINE
  8
Pin
  6
CONTINUOUS
  66
1
  70
0
  40
0.0098
  41
0.0098
  0
VERTEX
  8
Pin
  10
-1.2
  20
-0.7
  42
0
  0
VERTEX
  8
Pin
  10
-1.05
  20
-0.7
  42
0
  0
SEQEND
  0
POLYLINE
  8
Pin
  6
CONTINUOUS
  66
1
  70
0
  40
0.0049
  41
0.0049
  0
VERTEX
  8
Pin
  10
-1.2025
  20
-0.7
  42
1
  0
VERTEX
  8
Pin
  10
-1.1975
  20
-0.7
  42
1
  0
VERTEX
  8
Pin
  10
-1.2025
  20
-0.7
  42
1
  0
SEQEND
  0
POLYLINE
  8
Pin
  6
CONTINUOUS
  66
1
  70
0
  40
0.0049
  41
0.0049
  0
VERTEX
  8
Pin
  10
-1.0525
  20
-0.7
  42
1
  0
VERTEX
  8
Pin
  10
-1.0475
  20
-0.7
  42
1
  0
VERTEX
  8
Pin
  10
-1.0525
  20
-0.7
  42
1
  0
SEQEND
  0
POLYLINE
  8
Titles
  6
CONTINUOUS
  66
1
  70
0
  40
0.0131
  41
0.0131
  0
VERTEX
  8
Titles
  10
5.664
  20
-3.9517
  42
0
  0
VERTEX
  8
Titles
  10
-5.0734
  20
-3.9517
  42
0
  0
VERTEX
  8
Titles
  10
-5.0734
  20
3.9517
  42
0
  0
VERTEX
  8
Titles
  10
5.664
  20
3.9517
  42
0
  0
VERTEX
  8
Titles
  10
5.664
  20
-3.9517
  42
0
  0
SEQEND
  0
TEXT
  8
Titles
  10
2.7034
  20
-2.9967
  40
0.0583
  41
0.7
  1
Title
  50
0.0
  72
0
  73
3
  7
STANDARD
  71
0
  11
2.7034
  21
-2.9967
  0
TEXT
  8
Titles
  10
2.7034
  20
-3.1017
  40
0.0583
  41
0.7
  1
 
  50
0.0
  72
0
  73
3
  7
STANDARD
  71
0
  11
2.7034
  21
-3.1017
  0
TEXT
  8
Titles
  10
2.7034
  20
-3.2742
  40
0.0583
  41
0.7
  1
Size
  50
0.0
  72
0
  73
3
  7
STANDARD
  71
0
  11
2.7034
  21
-3.2742
  0
TEXT
  8
Titles
  10
3.2034
  20
-3.2742
  40
0.0583
  41
0.7
  1
Number
  50
0.0
  72
0
  73
3
  7
STANDARD
  71
0
  11
3.2034
  21
-3.2742
  0
TEXT
  8
Titles
  10
5.2034
  20
-3.2742
  40
0.0583
  41
0.7
  1
Rev
  50
0.0
  72
0
  73
3
  7
STANDARD
  71
0
  11
5.2034
  21
-3.2742
  0
TEXT
  8
Titles
  10
2.7034
  20
-3.6742
  40
0.0583
  41
0.7
  1
Date
  50
0.0
  72
0
  73
3
  7
STANDARD
  71
0
  11
2.7034
  21
-3.6742
  0
TEXT
  8
Titles
  10
4.5034
  20
-3.6742
  40
0.0583
  41
0.7
  1
Drawn by
  50
0.0
  72
0
  73
3
  7
STANDARD
  71
0
  11
4.5034
  21
-3.6742
  0
TEXT
  8
Titles
  10
2.7034
  20
-3.8242
  40
0.0583
  41
0.7
  1
Filename
  50
0.0
  72
0
  73
3
  7
STANDARD
  71
0
  11
2.7034
  21
-3.8242
  0
TEXT
  8
Titles
  10
4.5034
  20
-3.8242
  40
0.0583
  41
0.7
  1
Sheet
  50
0.0
  72
0
  73
3
  7
STANDARD
  71
0
  11
4.5034
  21
-3.8242
  0
POLYLINE
  8
Titles
  6
CONTINUOUS
  66
1
  70
0
  40
0.0131
  41
0.0131
  0
VERTEX
  8
Titles
  10
2.664
  20
-2.9517
  42
0
  0
VERTEX
  8
Titles
  10
3.164
  20
-2.9517
  42
0
  0
SEQEND
  0
POLYLINE
  8
Titles
  6
CONTINUOUS
  66
1
  70
0
  40
0.0131
  41
0.0131
  0
VERTEX
  8
Titles
  10
2.664
  20
-3.2517
  42
0
  0
VERTEX
  8
Titles
  10
3.164
  20
-3.2517
  42
0
  0
SEQEND
  0
POLYLINE
  8
Titles
  6
CONTINUOUS
  66
1
  70
0
  40
0.0131
  41
0.0131
  0
VERTEX
  8
Titles
  10
2.664
  20
-2.9517
  42
0
  0
VERTEX
  8
Titles
  10
2.664
  20
-3.2517
  42
0
  0
SEQEND
  0
POLYLINE
  8
Titles
  6
CONTINUOUS
  66
1
  70
0
  40
0.0131
  41
0.0131
  0
VERTEX
  8
Titles
  10
2.664
  20
-3.2517
  42
0
  0
VERTEX
  8
Titles
  10
3.164
  20
-3.2517
  42
0
  0
SEQEND
  0
POLYLINE
  8
Titles
  6
CONTINUOUS
  66
1
  70
0
  40
0.0131
  41
0.0131
  0
VERTEX
  8
Titles
  10
2.664
  20
-3.2517
  42
0
  0
VERTEX
  8
Titles
  10
2.664
  20
-3.4017
  42
0
  0
SEQEND
  0
POLYLINE
  8
Titles
  6
CONTINUOUS
  66
1
  70
0
  40
0.0131
  41
0.0131
  0
VERTEX
  8
Titles
  10
3.164
  20
-3.2517
  42
0
  0
VERTEX
  8
Titles
  10
3.164
  20
-3.4017
  42
0
  0
SEQEND
  0
POLYLINE
  8
Titles
  6
CONTINUOUS
  66
1
  70
0
  40
0.0131
  41
0.0131
  0
VERTEX
  8
Titles
  10
2.664
  20
-3.6517
  42
0
  0
VERTEX
  8
Titles
  10
3.164
  20
-3.6517
  42
0
  0
SEQEND
  0
POLYLINE
  8
Titles
  6
CONTINUOUS
  66
1
  70
0
  40
0.0131
  41
0.0131
  0
VERTEX
  8
Titles
  10
2.664
  20
-3.4017
  42
0
  0
VERTEX
  8
Titles
  10
2.664
  20
-3.6517
  42
0
  0
SEQEND
  0
POLYLINE
  8
Titles
  6
CONTINUOUS
  66
1
  70
0
  40
0.0131
  41
0.0131
  0
VERTEX
  8
Titles
  10
3.164
  20
-3.4017
  42
0
  0
VERTEX
  8
Titles
  10
3.164
  20
-3.6517
  42
0
  0
SEQEND
  0
POLYLINE
  8
Titles
  6
CONTINUOUS
  66
1
  70
0
  40
0.0131
  41
0.0131
  0
VERTEX
  8
Titles
  10
2.664
  20
-3.6517
  42
0
  0
VERTEX
  8
Titles
  10
3.164
  20
-3.6517
  42
0
  0
SEQEND
  0
POLYLINE
  8
Titles
  6
CONTINUOUS
  66
1
  70
0
  40
0.0131
  41
0.0131
  0
VERTEX
  8
Titles
  10
2.664
  20
-3.8017
  42
0
  0
VERTEX
  8
Titles
  10
3.164
  20
-3.8017
  42
0
  0
SEQEND
  0
POLYLINE
  8
Titles
  6
CONTINUOUS
  66
1
  70
0
  40
0.0131
  41
0.0131
  0
VERTEX
  8
Titles
  10
2.664
  20
-3.6517
  42
0
  0
VERTEX
  8
Titles
  10
2.664
  20
-3.8017
  42
0
  0
SEQEND
  0
POLYLINE
  8
Titles
  6
CONTINUOUS
  66
1
  70
0
  40
0.0131
  41
0.0131
  0
VERTEX
  8
Titles
  10
2.664
  20
-3.8017
  42
0
  0
VERTEX
  8
Titles
  10
3.164
  20
-3.8017
  42
0
  0
SEQEND
  0
POLYLINE
  8
Titles
  6
CONTINUOUS
  66
1
  70
0
  40
0.0131
  41
0.0131
  0
VERTEX
  8
Titles
  10
2.664
  20
-3.9517
  42
0
  0
VERTEX
  8
Titles
  10
3.164
  20
-3.9517
  42
0
  0
SEQEND
  0
POLYLINE
  8
Titles
  6
CONTINUOUS
  66
1
  70
0
  40
0.0131
  41
0.0131
  0
VERTEX
  8
Titles
  10
2.664
  20
-3.8017
  42
0
  0
VERTEX
  8
Titles
  10
2.664
  20
-3.9517
  42
0
  0
SEQEND
  0
POLYLINE
  8
Titles
  6
CONTINUOUS
  66
1
  70
0
  40
0.0131
  41
0.0131
  0
VERTEX
  8
Titles
  10
3.164
  20
-2.9517
  42
0
  0
VERTEX
  8
Titles
  10
4.464
  20
-2.9517
  42
0
  0
SEQEND
  0
POLYLINE
  8
Titles
  6
CONTINUOUS
  66
1
  70
0
  40
0.0131
  41
0.0131
  0
VERTEX
  8
Titles
  10
3.164
  20
-3.2517
  42
0
  0
VERTEX
  8
Titles
  10
4.464
  20
-3.2517
  42
0
  0
SEQEND
  0
POLYLINE
  8
Titles
  6
CONTINUOUS
  66
1
  70
0
  40
0.0131
  41
0.0131
  0
VERTEX
  8
Titles
  10
3.164
  20
-3.2517
  42
0
  0
VERTEX
  8
Titles
  10
4.464
  20
-3.2517
  42
0
  0
SEQEND
  0
POLYLINE
  8
Titles
  6
CONTINUOUS
  66
1
  70
0
  40
0.0131
  41
0.0131
  0
VERTEX
  8
Titles
  10
3.164
  20
-3.2517
  42
0
  0
VERTEX
  8
Titles
  10
3.164
  20
-3.4017
  42
0
  0
SEQEND
  0
POLYLINE
  8
Titles
  6
CONTINUOUS
  66
1
  70
0
  40
0.0131
  41
0.0131
  0
VERTEX
  8
Titles
  10
3.164
  20
-3.6517
  42
0
  0
VERTEX
  8
Titles
  10
4.464
  20
-3.6517
  42
0
  0
SEQEND
  0
POLYLINE
  8
Titles
  6
CONTINUOUS
  66
1
  70
0
  40
0.0131
  41
0.0131
  0
VERTEX
  8
Titles
  10
3.164
  20
-3.4017
  42
0
  0
VERTEX
  8
Titles
  10
3.164
  20
-3.6517
  42
0
  0
SEQEND
  0
POLYLINE
  8
Titles
  6
CONTINUOUS
  66
1
  70
0
  40
0.0131
  41
0.0131
  0
VERTEX
  8
Titles
  10
3.164
  20
-3.6517
  42
0
  0
VERTEX
  8
Titles
  10
4.464
  20
-3.6517
  42
0
  0
SEQEND
  0
POLYLINE
  8
Titles
  6
CONTINUOUS
  66
1
  70
0
  40
0.0131
  41
0.0131
  0
VERTEX
  8
Titles
  10
3.164
  20
-3.8017
  42
0
  0
VERTEX
  8
Titles
  10
4.464
  20
-3.8017
  42
0
  0
SEQEND
  0
POLYLINE
  8
Titles
  6
CONTINUOUS
  66
1
  70
0
  40
0.0131
  41
0.0131
  0
VERTEX
  8
Titles
  10
4.464
  20
-3.6517
  42
0
  0
VERTEX
  8
Titles
  10
4.464
  20
-3.8017
  42
0
  0
SEQEND
  0
POLYLINE
  8
Titles
  6
CONTINUOUS
  66
1
  70
0
  40
0.0131
  41
0.0131
  0
VERTEX
  8
Titles
  10
3.164
  20
-3.8017
  42
0
  0
VERTEX
  8
Titles
  10
4.464
  20
-3.8017
  42
0
  0
SEQEND
  0
POLYLINE
  8
Titles
  6
CONTINUOUS
  66
1
  70
0
  40
0.0131
  41
0.0131
  0
VERTEX
  8
Titles
  10
3.164
  20
-3.9517
  42
0
  0
VERTEX
  8
Titles
  10
4.464
  20
-3.9517
  42
0
  0
SEQEND
  0
POLYLINE
  8
Titles
  6
CONTINUOUS
  66
1
  70
0
  40
0.0131
  41
0.0131
  0
VERTEX
  8
Titles
  10
4.464
  20
-3.8017
  42
0
  0
VERTEX
  8
Titles
  10
4.464
  20
-3.9517
  42
0
  0
SEQEND
  0
POLYLINE
  8
Titles
  6
CONTINUOUS
  66
1
  70
0
  40
0.0131
  41
0.0131
  0
VERTEX
  8
Titles
  10
4.464
  20
-2.9517
  42
0
  0
VERTEX
  8
Titles
  10
5.164
  20
-2.9517
  42
0
  0
SEQEND
  0
POLYLINE
  8
Titles
  6
CONTINUOUS
  66
1
  70
0
  40
0.0131
  41
0.0131
  0
VERTEX
  8
Titles
  10
4.464
  20
-3.2517
  42
0
  0
VERTEX
  8
Titles
  10
5.164
  20
-3.2517
  42
0
  0
SEQEND
  0
POLYLINE
  8
Titles
  6
CONTINUOUS
  66
1
  70
0
  40
0.0131
  41
0.0131
  0
VERTEX
  8
Titles
  10
4.464
  20
-3.2517
  42
0
  0
VERTEX
  8
Titles
  10
5.164
  20
-3.2517
  42
0
  0
SEQEND
  0
POLYLINE
  8
Titles
  6
CONTINUOUS
  66
1
  70
0
  40
0.0131
  41
0.0131
  0
VERTEX
  8
Titles
  10
5.164
  20
-3.2517
  42
0
  0
VERTEX
  8
Titles
  10
5.164
  20
-3.4017
  42
0
  0
SEQEND
  0
POLYLINE
  8
Titles
  6
CONTINUOUS
  66
1
  70
0
  40
0.0131
  41
0.0131
  0
VERTEX
  8
Titles
  10
4.464
  20
-3.6517
  42
0
  0
VERTEX
  8
Titles
  10
5.164
  20
-3.6517
  42
0
  0
SEQEND
  0
POLYLINE
  8
Titles
  6
CONTINUOUS
  66
1
  70
0
  40
0.0131
  41
0.0131
  0
VERTEX
  8
Titles
  10
5.164
  20
-3.4017
  42
0
  0
VERTEX
  8
Titles
  10
5.164
  20
-3.6517
  42
0
  0
SEQEND
  0
POLYLINE
  8
Titles
  6
CONTINUOUS
  66
1
  70
0
  40
0.0131
  41
0.0131
  0
VERTEX
  8
Titles
  10
4.464
  20
-3.6517
  42
0
  0
VERTEX
  8
Titles
  10
5.164
  20
-3.6517
  42
0
  0
SEQEND
  0
POLYLINE
  8
Titles
  6
CONTINUOUS
  66
1
  70
0
  40
0.0131
  41
0.0131
  0
VERTEX
  8
Titles
  10
4.464
  20
-3.8017
  42
0
  0
VERTEX
  8
Titles
  10
5.164
  20
-3.8017
  42
0
  0
SEQEND
  0
POLYLINE
  8
Titles
  6
CONTINUOUS
  66
1
  70
0
  40
0.0131
  41
0.0131
  0
VERTEX
  8
Titles
  10
4.464
  20
-3.6517
  42
0
  0
VERTEX
  8
Titles
  10
4.464
  20
-3.8017
  42
0
  0
SEQEND
  0
POLYLINE
  8
Titles
  6
CONTINUOUS
  66
1
  70
0
  40
0.0131
  41
0.0131
  0
VERTEX
  8
Titles
  10
4.464
  20
-3.8017
  42
0
  0
VERTEX
  8
Titles
  10
5.164
  20
-3.8017
  42
0
  0
SEQEND
  0
POLYLINE
  8
Titles
  6
CONTINUOUS
  66
1
  70
0
  40
0.0131
  41
0.0131
  0
VERTEX
  8
Titles
  10
4.464
  20
-3.9517
  42
0
  0
VERTEX
  8
Titles
  10
5.164
  20
-3.9517
  42
0
  0
SEQEND
  0
POLYLINE
  8
Titles
  6
CONTINUOUS
  66
1
  70
0
  40
0.0131
  41
0.0131
  0
VERTEX
  8
Titles
  10
4.464
  20
-3.8017
  42
0
  0
VERTEX
  8
Titles
  10
4.464
  20
-3.9517
  42
0
  0
SEQEND
  0
POLYLINE
  8
Titles
  6
CONTINUOUS
  66
1
  70
0
  40
0.0131
  41
0.0131
  0
VERTEX
  8
Titles
  10
5.164
  20
-2.9517
  42
0
  0
VERTEX
  8
Titles
  10
5.664
  20
-2.9517
  42
0
  0
SEQEND
  0
POLYLINE
  8
Titles
  6
CONTINUOUS
  66
1
  70
0
  40
0.0131
  41
0.0131
  0
VERTEX
  8
Titles
  10
5.164
  20
-3.2517
  42
0
  0
VERTEX
  8
Titles
  10
5.664
  20
-3.2517
  42
0
  0
SEQEND
  0
POLYLINE
  8
Titles
  6
CONTINUOUS
  66
1
  70
0
  40
0.0131
  41
0.0131
  0
VERTEX
  8
Titles
  10
5.664
  20
-2.9517
  42
0
  0
VERTEX
  8
Titles
  10
5.664
  20
-3.2517
  42
0
  0
SEQEND
  0
POLYLINE
  8
Titles
  6
CONTINUOUS
  66
1
  70
0
  40
0.0131
  41
0.0131
  0
VERTEX
  8
Titles
  10
5.164
  20
-3.2517
  42
0
  0
VERTEX
  8
Titles
  10
5.664
  20
-3.2517
  42
0
  0
SEQEND
  0
POLYLINE
  8
Titles
  6
CONTINUOUS
  66
1
  70
0
  40
0.0131
  41
0.0131
  0
VERTEX
  8
Titles
  10
5.164
  20
-3.2517
  42
0
  0
VERTEX
  8
Titles
  10
5.164
  20
-3.4017
  42
0
  0
SEQEND
  0
POLYLINE
  8
Titles
  6
CONTINUOUS
  66
1
  70
0
  40
0.0131
  41
0.0131
  0
VERTEX
  8
Titles
  10
5.664
  20
-3.2517
  42
0
  0
VERTEX
  8
Titles
  10
5.664
  20
-3.4017
  42
0
  0
SEQEND
  0
POLYLINE
  8
Titles
  6
CONTINUOUS
  66
1
  70
0
  40
0.0131
  41
0.0131
  0
VERTEX
  8
Titles
  10
5.164
  20
-3.6517
  42
0
  0
VERTEX
  8
Titles
  10
5.664
  20
-3.6517
  42
0
  0
SEQEND
  0
POLYLINE
  8
Titles
  6
CONTINUOUS
  66
1
  70
0
  40
0.0131
  41
0.0131
  0
VERTEX
  8
Titles
  10
5.164
  20
-3.4017
  42
0
  0
VERTEX
  8
Titles
  10
5.164
  20
-3.6517
  42
0
  0
SEQEND
  0
POLYLINE
  8
Titles
  6
CONTINUOUS
  66
1
  70
0
  40
0.0131
  41
0.0131
  0
VERTEX
  8
Titles
  10
5.664
  20
-3.4017
  42
0
  0
VERTEX
  8
Titles
  10
5.664
  20
-3.6517
  42
0
  0
SEQEND
  0
POLYLINE
  8
Titles
  6
CONTINUOUS
  66
1
  70
0
  40
0.0131
  41
0.0131
  0
VERTEX
  8
Titles
  10
5.164
  20
-3.6517
  42
0
  0
VERTEX
  8
Titles
  10
5.664
  20
-3.6517
  42
0
  0
SEQEND
  0
POLYLINE
  8
Titles
  6
CONTINUOUS
  66
1
  70
0
  40
0.0131
  41
0.0131
  0
VERTEX
  8
Titles
  10
5.164
  20
-3.8017
  42
0
  0
VERTEX
  8
Titles
  10
5.664
  20
-3.8017
  42
0
  0
SEQEND
  0
POLYLINE
  8
Titles
  6
CONTINUOUS
  66
1
  70
0
  40
0.0131
  41
0.0131
  0
VERTEX
  8
Titles
  10
5.664
  20
-3.6517
  42
0
  0
VERTEX
  8
Titles
  10
5.664
  20
-3.8017
  42
0
  0
SEQEND
  0
POLYLINE
  8
Titles
  6
CONTINUOUS
  66
1
  70
0
  40
0.0131
  41
0.0131
  0
VERTEX
  8
Titles
  10
5.164
  20
-3.8017
  42
0
  0
VERTEX
  8
Titles
  10
5.664
  20
-3.8017
  42
0
  0
SEQEND
  0
POLYLINE
  8
Titles
  6
CONTINUOUS
  66
1
  70
0
  40
0.0131
  41
0.0131
  0
VERTEX
  8
Titles
  10
5.164
  20
-3.9517
  42
0
  0
VERTEX
  8
Titles
  10
5.664
  20
-3.9517
  42
0
  0
SEQEND
  0
POLYLINE
  8
Titles
  6
CONTINUOUS
  66
1
  70
0
  40
0.0131
  41
0.0131
  0
VERTEX
  8
Titles
  10
5.664
  20
-3.8017
  42
0
  0
VERTEX
  8
Titles
  10
5.664
  20
-3.9517
  42
0
  0
SEQEND
  0
ENDSEC
  0
EOF
