G04 DipTrace 2.4.0.2*
%INBottomMask.gbs*%
%MOMM*%
%ADD36C,0.9*%
%ADD41O,2.1X1.7*%
%ADD49C,1.7*%
%ADD51R,1.8X1.8*%
%FSLAX53Y53*%
G04*
G71*
G90*
G75*
G01*
%LNBotMask*%
%LPD*%
G36*
X15338Y34833D2*
X15946Y35441D1*
X16806D1*
X17415Y34833D1*
Y33972D1*
X16806Y33364D1*
X15946D1*
X15338Y33972D1*
Y34833D1*
G37*
G36*
X10954Y30449D2*
X11562Y31057D1*
X12422D1*
X13031Y30449D1*
Y29588D1*
X12422Y28980D1*
X11562D1*
X10954Y29588D1*
Y30449D1*
G37*
D36*
X15107Y18197D3*
Y13797D3*
D51*
X38544Y26320D3*
G36*
X37705Y23432D2*
Y24128D1*
X38196Y24619D1*
X38892D1*
X39383Y24128D1*
Y23432D1*
X38892Y22941D1*
X38196D1*
X37705Y23432D1*
G37*
G36*
Y20892D2*
Y21588D1*
X38196Y22079D1*
X38892D1*
X39383Y21588D1*
Y20892D1*
X38892Y20401D1*
X38196D1*
X37705Y20892D1*
G37*
G36*
Y18352D2*
Y19048D1*
X38196Y19539D1*
X38892D1*
X39383Y19048D1*
Y18352D1*
X38892Y17861D1*
X38196D1*
X37705Y18352D1*
G37*
G36*
X45392Y12856D2*
Y12008D1*
X44792Y11408D1*
X43944D1*
X43344Y12008D1*
Y12856D1*
X43944Y13456D1*
X44792D1*
X45392Y12856D1*
G37*
G36*
Y16666D2*
Y15818D1*
X44792Y15218D1*
X43944D1*
X43344Y15818D1*
Y16666D1*
X43944Y17266D1*
X44792D1*
X45392Y16666D1*
G37*
G36*
X43472Y33512D2*
Y34360D1*
X44072Y34960D1*
X44920D1*
X45520Y34360D1*
Y33512D1*
X44920Y32912D1*
X44072D1*
X43472Y33512D1*
G37*
G36*
Y29702D2*
Y30550D1*
X44072Y31150D1*
X44920D1*
X45520Y30550D1*
Y29702D1*
X44920Y29102D1*
X44072D1*
X43472Y29702D1*
G37*
D49*
X23632Y29968D3*
X20432Y27600D3*
X26448Y18256D3*
X28368Y17616D3*
X13581Y27953D3*
X15952Y27920D3*
G36*
X12468Y23720D2*
Y23032D1*
X12110Y22545D1*
X11603D1*
X11244Y23032D1*
Y23720D1*
X11603Y24208D1*
X12110D1*
X12468Y23720D1*
G37*
G36*
Y26260D2*
Y25572D1*
X12110Y25085D1*
X11603D1*
X11244Y25572D1*
Y26260D1*
X11603Y26748D1*
X12110D1*
X12468Y26260D1*
G37*
D41*
X23696Y33616D3*
X28522D3*
M02*
