M48
METRIC,0000.00
T01C0.5
T02C0.813
T03C0.9
T04C1.0
T05C1.016
T06C1.118
%
T01
X+003722Y+002767
X+003807Y+003138
X+003928Y+003258
X+003313Y+003256
X+002936Y+002710
X+002933Y+002428
X+003076Y+002283
X+002638Y+002395
X+002184Y+002626
X+002127Y+002262
X+001513Y+001617
X+001236Y+001597
X+002594Y+001147
X+003067Y+001427
X+004469Y+002523
T02
X+001186Y+002338
X+001186Y+002592
T03
X+001511Y+001820
X+001511Y+001380
X+002645Y+001826
X+002837Y+001762
X+002043Y+002760
X+002363Y+002997
X+002370Y+003362
X+002852Y+003362
X+001595Y+002792
X+001358Y+002795
T04
X+003854Y+002632
T05
X+003854Y+002378
X+003854Y+002124
X+003854Y+001870
X+004437Y+001624
X+004437Y+001243
X+004450Y+003013
X+004450Y+003394
T06
X+001638Y+003440
X+001199Y+003002
T00
M30
