G04 DipTrace 2.4.0.2*
%INTop.gtl*%
%MOMM*%
%ADD14C,0.5*%
%ADD15C,0.3*%
%ADD16C,0.7*%
%ADD17C,0.2*%
%ADD18C,0.6*%
%ADD19C,0.8*%
%ADD21R,1.75X1.7*%
%ADD22R,1.7X1.75*%
%ADD23R,2.25X0.5*%
%ADD24R,2.5X2.0*%
%ADD25R,2.286X2.0*%
%ADD26R,1.6X1.6*%
%ADD27C,1.5*%
%ADD29R,0.95X2.15*%
%ADD30R,3.25X2.15*%
%ADD31R,2.0X0.6*%
%ADD34O,1.9X1.5*%
%ADD35C,1.0*%
%FSLAX53Y53*%
G04*
G71*
G90*
G75*
G01*
%LNTop*%
%LPD*%
X41638Y27024D2*
D14*
Y23590D1*
X41616Y23568D1*
X44368Y16242D2*
X39116D1*
X37405Y14531D1*
Y12581D1*
X37384Y12560D1*
X44368Y16242D2*
X43120D1*
Y23637D1*
X41547D1*
X41616Y23568D1*
X30586Y11472D2*
X31456D1*
X32142Y10786D1*
X37055D1*
X37427Y11158D1*
Y12517D1*
X37384Y12560D1*
X31632Y20418D2*
D15*
X36339D1*
X37161Y21240D1*
X38544D1*
X41616Y21264D2*
D14*
Y19046D1*
X41638Y19024D1*
X38544Y21240D2*
X41616Y21264D1*
X35084Y12560D2*
D15*
Y15027D1*
X31637Y18475D1*
Y20413D1*
X31632Y20418D1*
X30759Y22826D2*
X27629D1*
Y22123D1*
X24427D1*
X33129Y32559D2*
D17*
X33137D1*
D15*
Y27623D1*
D17*
X33337D1*
X37224Y27672D2*
D14*
X38210D1*
X39317Y28779D1*
Y30116D1*
Y32575D1*
D17*
X39278D1*
X35920Y30116D2*
D14*
X39317D1*
X27632Y29328D2*
D15*
X27629Y22826D1*
X17857Y17597D2*
D14*
X20938D1*
X21292Y17951D1*
X24384Y11487D2*
X25936Y11472D1*
X27536D1*
X15129Y16172D2*
X16554Y17597D1*
X17857D1*
X24427Y25123D2*
D15*
X21181D1*
X20368Y25936D1*
X18298D1*
X18234Y25872D1*
X11992Y30018D2*
D14*
X16755D1*
X18331Y28442D1*
Y25969D1*
X18234Y25872D1*
X41320Y31386D2*
D18*
X42650D1*
X43280Y32016D1*
Y32720D1*
X44496Y33936D1*
X41320Y30116D2*
X44496Y30126D1*
X33337Y26123D2*
D15*
X35211D1*
X35920Y26832D1*
Y28846D1*
X33337Y26623D2*
X34367D1*
X34768Y27024D1*
Y27728D1*
X34128Y28368D1*
Y32144D1*
X34640Y32656D1*
X35920D1*
X33337Y22123D2*
X34731D1*
X34960Y22352D1*
Y24336D1*
X36944Y26320D1*
X38544D1*
X17857Y15997D2*
D14*
X19101D1*
X19688Y15411D1*
Y13966D1*
X20012Y13642D1*
X21270D1*
X21292Y13663D1*
Y11529D1*
X21334Y11487D1*
X21292Y15775D2*
X20429D1*
X19409Y16795D1*
X17859D1*
X17857Y16797D1*
X44688Y27024D2*
D16*
Y25230D1*
X44666D1*
Y23568D1*
Y21264D1*
Y19046D1*
X44688Y19024D1*
X21270Y19999D2*
D14*
Y20304D1*
X17750D1*
X17607Y20447D1*
X11856Y25916D2*
D19*
X15140D1*
D14*
X15184Y25872D1*
X32784Y12560D2*
D15*
Y14272D1*
Y16367D1*
X31132Y18019D1*
Y20418D1*
X30673Y14272D2*
X32784D1*
X17857Y14397D2*
D14*
Y11797D1*
X17607Y11547D1*
X12357D1*
Y15966D1*
Y20447D1*
X17607D1*
X29359Y27103D2*
D15*
X28569D1*
X28132Y27540D1*
Y29328D1*
X21270Y19999D2*
D14*
Y22623D1*
D15*
X24427D1*
X33337Y27123D2*
X29329D1*
D14*
Y24284D1*
X28132Y29328D2*
D15*
Y30659D1*
X27329Y31462D1*
D19*
X19536D1*
X38068Y31376D2*
D14*
X35920D1*
Y31386D1*
X29329Y24284D2*
D15*
X30502D1*
X31841Y25623D1*
X33337D1*
X38118Y34704D2*
D14*
Y31846D1*
D17*
X38068Y31796D1*
Y31376D1*
X35600Y34704D2*
D14*
X38118D1*
X44368Y12432D2*
D18*
X42448D1*
D15*
X42256Y12240D1*
X35600Y34704D2*
D18*
X35456D1*
D15*
X35600D1*
X38544Y23780D2*
D14*
X36708D1*
X35856Y22928D1*
Y22096D1*
X35367Y21607D1*
D17*
X30887D1*
X30632Y21352D1*
Y20418D1*
X29632Y29328D2*
D15*
Y32506D1*
X28522Y33616D1*
X32550Y34704D2*
D14*
X29610D1*
X28522Y33616D1*
X29132Y29328D2*
D15*
Y30804D1*
X26320Y33616D1*
X23696D1*
X19536Y34512D2*
D14*
X22800D1*
X23696Y33616D1*
X24427Y24123D2*
D15*
X21179D1*
X20176Y23120D1*
X18192D1*
X11856Y23376D2*
D14*
X14886D1*
X15142Y23120D1*
X24320Y19999D2*
Y17973D1*
X24342Y17951D1*
X26132Y20418D2*
D15*
X24738D1*
X24320Y19999D1*
X41168Y34704D2*
D14*
Y32808D1*
D15*
X41320Y32656D1*
X30132Y20418D2*
Y16519D1*
X27268Y13656D1*
X24349D1*
X24342Y13663D1*
X29632Y20418D2*
Y16896D1*
X28511Y15775D1*
X24342D1*
X24427Y27623D2*
X20455D1*
X20432Y27600D1*
X26132Y29328D2*
X24272D1*
X23632Y29968D1*
X27132Y29328D2*
Y24700D1*
X26384Y23952D1*
X24427Y25623D2*
X22473D1*
X21840Y26256D1*
X26632Y20418D2*
Y18440D1*
D17*
X26448Y18256D1*
X28132Y20418D2*
D15*
Y17852D1*
D17*
X28368Y17616D1*
D35*
X15129Y16172D3*
X25936Y11472D3*
X44688Y25230D3*
X30673Y14272D3*
X12357Y15966D3*
X21270Y22623D3*
X26384Y23952D3*
X21840Y26256D3*
X37224Y27672D3*
X30759Y22826D3*
X29359Y27103D3*
X38068Y31376D3*
X29329Y24284D3*
X30673Y14272D3*
X33129Y32559D3*
X39278Y32575D3*
X11246Y34953D2*
D15*
X14768D1*
X24376D2*
X27841D1*
X10979Y34657D2*
X14744D1*
X24878D2*
X27340D1*
X10843Y34360D2*
X14744D1*
X26673D2*
X27091D1*
X10796Y34063D2*
X14744D1*
X10782Y33767D2*
X14796D1*
X10782Y33470D2*
X15016D1*
X17739D2*
X17993D1*
X21076D2*
X22061D1*
X10782Y33173D2*
X15311D1*
X17439D2*
X17993D1*
X21076D2*
X22127D1*
X10782Y32877D2*
X15654D1*
X17101D2*
X17993D1*
X21076D2*
X22263D1*
X10782Y32580D2*
X17993D1*
X21076D2*
X22507D1*
X24887D2*
X26177D1*
X10782Y32283D2*
X17993D1*
X21076D2*
X22999D1*
X24390D2*
X26477D1*
X10782Y31987D2*
X17993D1*
X21076D2*
X26772D1*
X10782Y31690D2*
X17993D1*
X21076D2*
X27068D1*
X10782Y31393D2*
X11074D1*
X12910D2*
X17993D1*
X21076D2*
X27363D1*
X13206Y31097D2*
X17993D1*
X21076D2*
X22755D1*
X24512D2*
X27663D1*
X17256Y30800D2*
X17993D1*
X21076D2*
X22460D1*
X24803D2*
X27958D1*
X17589Y30503D2*
X17993D1*
X21076D2*
X22296D1*
X24967D2*
X25408D1*
X17884Y30207D2*
X17997D1*
X21076D2*
X22211D1*
X25051D2*
X25296D1*
X18184Y29910D2*
X22193D1*
X18479Y29613D2*
X22235D1*
X18775Y29317D2*
X22347D1*
X19065Y29020D2*
X22558D1*
X10782Y28723D2*
X10997D1*
X19229D2*
X19549D1*
X21315D2*
X22938D1*
X10782Y28427D2*
X11468D1*
X10782Y28130D2*
X12152D1*
X10782Y27833D2*
X12143D1*
X10782Y27537D2*
X12204D1*
X10782Y27240D2*
X11130D1*
X10782Y26943D2*
X10894D1*
X42578Y25460D2*
X45222D1*
X42578Y25163D2*
X45222D1*
X14190Y21603D2*
X15663D1*
X14190Y21307D2*
X15663D1*
X14190Y21010D2*
X15663D1*
X14190Y20713D2*
X15663D1*
X14190Y20417D2*
X15663D1*
X14190Y20120D2*
X15663D1*
X14190Y19823D2*
X15663D1*
X14190Y19527D2*
X15663D1*
X14190Y19230D2*
X14665D1*
X15550D2*
X15667D1*
X10782Y18637D2*
X14055D1*
X10782Y18340D2*
X13975D1*
X10782Y18043D2*
X13975D1*
X10782Y17747D2*
X14060D1*
X10782Y17450D2*
X14252D1*
X10782Y17153D2*
X14477D1*
X10782Y16857D2*
X14158D1*
X10782Y16560D2*
X14004D1*
X10782Y16263D2*
X13943D1*
X10782Y15967D2*
X13957D1*
X10782Y15670D2*
X14050D1*
X10782Y15373D2*
X14257D1*
X10782Y15077D2*
X14711D1*
X15545D2*
X16038D1*
X39268D2*
X43263D1*
X10782Y14780D2*
X14557D1*
X15657D2*
X16038D1*
X38973D2*
X43572D1*
X10782Y14483D2*
X14200D1*
X38678D2*
X45222D1*
X10782Y14187D2*
X14036D1*
X38551D2*
X45222D1*
X10782Y13890D2*
X13971D1*
X38551D2*
X43563D1*
X10782Y13593D2*
X13985D1*
X38551D2*
X43258D1*
X10782Y13297D2*
X14083D1*
X38551D2*
X42958D1*
X14190Y13000D2*
X14305D1*
X38551D2*
X42780D1*
X14190Y12703D2*
X14880D1*
X15334D2*
X15663D1*
X38551D2*
X42752D1*
X14190Y12407D2*
X15663D1*
X38551D2*
X42752D1*
X14190Y12110D2*
X15663D1*
X38551D2*
X42752D1*
X14190Y11813D2*
X15663D1*
X38551D2*
X42794D1*
X14190Y11517D2*
X15663D1*
X38551D2*
X43010D1*
X14190Y11220D2*
X15663D1*
X38551D2*
X43310D1*
X14190Y10923D2*
X15663D1*
X38551D2*
X43647D1*
X17977Y34641D2*
Y34014D1*
X17960Y33865D1*
X17910Y33724D1*
X17826Y33594D1*
X17783Y33546D1*
X17233Y32996D1*
X17116Y32903D1*
X16981Y32838D1*
X16830Y32806D1*
X16765Y32802D1*
X15987D1*
X15839Y32819D1*
X15698Y32869D1*
X15568Y32952D1*
X15519Y32996D1*
X14969Y33546D1*
X14876Y33663D1*
X14812Y33798D1*
X14779Y33949D1*
X14776Y34014D1*
Y34791D1*
X14793Y34940D1*
X14842Y35081D1*
X14926Y35211D1*
X14890Y35162D1*
X14861Y35250D1*
X12043D1*
X11675Y35201D1*
X11377Y35076D1*
X11119Y34878D1*
X10922Y34621D1*
X10798Y34320D1*
X10750Y33951D1*
Y31040D1*
X11135Y31425D1*
X11252Y31518D1*
X11387Y31583D1*
X11538Y31615D1*
X11603Y31619D1*
X12381D1*
X12530Y31602D1*
X12671Y31552D1*
X12800Y31469D1*
X12849Y31425D1*
X13343Y30931D1*
X16755Y30930D1*
X16904Y30918D1*
X17050Y30882D1*
X17187Y30822D1*
X17273Y30769D1*
X17400Y30663D1*
X18024Y30045D1*
Y35248D1*
X17790Y35250D1*
X17842Y35192D1*
X17919Y35063D1*
X17964Y34920D1*
X17977Y34641D1*
X12245Y28418D2*
X11603D1*
X11455Y28435D1*
X11314Y28485D1*
X11184Y28568D1*
X11135Y28612D1*
X10747Y29000D1*
X10750Y26709D1*
X11107Y27187D1*
X11218Y27287D1*
X11349Y27359D1*
X11493Y27400D1*
X11663Y27410D1*
X12199Y27403D1*
X12289Y27385D1*
X12222Y27572D1*
X12189Y27718D1*
X12172Y27867D1*
X12171Y28017D1*
X12186Y28166D1*
X12249Y28416D1*
X42549Y25080D2*
X43153Y25075D1*
X43249Y25080D1*
X45251D1*
X45250Y25516D1*
X45055Y25512D1*
X42552D1*
X42550Y25079D1*
X21047Y32999D2*
X21048Y29925D1*
X18142Y29921D1*
X18976Y29087D1*
X19073Y28973D1*
X19150Y28844D1*
X19204Y28705D1*
X19228Y28607D1*
X19243Y28363D1*
X19337Y28491D1*
X19437Y28602D1*
X19549Y28702D1*
X19671Y28789D1*
X19801Y28863D1*
X19939Y28923D1*
X20082Y28968D1*
X20229Y28997D1*
X20378Y29011D1*
X20528Y29009D1*
X20677Y28991D1*
X20823Y28957D1*
X20965Y28908D1*
X21100Y28844D1*
X21228Y28766D1*
X21348Y28675D1*
X21456Y28572D1*
X21567Y28438D1*
X23005Y28435D1*
X25242Y28434D1*
X25232Y28516D1*
X24272D1*
X24123Y28530D1*
X23941Y28587D1*
X23750Y28561D1*
X23600Y28556D1*
X23450Y28568D1*
X23303Y28595D1*
X23159Y28638D1*
X23021Y28695D1*
X22889Y28767D1*
X22766Y28853D1*
X22653Y28951D1*
X22550Y29060D1*
X22460Y29180D1*
X22383Y29309D1*
X22321Y29445D1*
X22272Y29587D1*
X22240Y29733D1*
X22223Y29882D1*
X22221Y30032D1*
X22236Y30181D1*
X22267Y30328D1*
X22313Y30471D1*
X22373Y30608D1*
X22448Y30738D1*
X22537Y30859D1*
X22637Y30970D1*
X22749Y31070D1*
X22871Y31157D1*
X23001Y31231D1*
X23139Y31291D1*
X23282Y31336D1*
X23429Y31365D1*
X23578Y31379D1*
X23728Y31377D1*
X23877Y31359D1*
X24023Y31325D1*
X24165Y31276D1*
X24300Y31212D1*
X24428Y31134D1*
X24548Y31043D1*
X24656Y30940D1*
X24754Y30826D1*
X24838Y30702D1*
X24909Y30570D1*
X24966Y30431D1*
X25007Y30287D1*
X25033Y30144D1*
X25317Y30140D1*
X25337Y30277D1*
X25387Y30418D1*
X25467Y30544D1*
X25574Y30649D1*
X25701Y30728D1*
X25843Y30775D1*
X25982Y30790D1*
X27787Y30789D1*
X27912Y30786D1*
X27999Y30790D1*
X25982Y32805D1*
X25050Y32804D1*
X24935Y32660D1*
X24828Y32555D1*
X24710Y32462D1*
X24583Y32383D1*
X24449Y32317D1*
X24308Y32265D1*
X24162Y32229D1*
X23897Y32205D1*
X23496Y32209D1*
X23314Y32216D1*
X23167Y32243D1*
X23023Y32286D1*
X22885Y32343D1*
X22753Y32415D1*
X22630Y32501D1*
X22517Y32599D1*
X22414Y32708D1*
X22324Y32828D1*
X22247Y32957D1*
X22185Y33093D1*
X22136Y33235D1*
X22104Y33381D1*
X22086Y33600D1*
X21052D1*
X21048Y32975D1*
X21043D1*
X16070Y14356D2*
X16074Y15085D1*
X16070Y15490D1*
X15959Y15359D1*
X15848Y15259D1*
X15724Y15174D1*
X15591Y15106D1*
X15450Y15055D1*
X15303Y15023D1*
X15154Y15010D1*
X15004Y15017D1*
X14856Y15042D1*
X14713Y15087D1*
X14577Y15149D1*
X14450Y15229D1*
X14334Y15324D1*
X14232Y15433D1*
X14144Y15555D1*
X14073Y15687D1*
X14019Y15827D1*
X13984Y15972D1*
X13968Y16121D1*
X13971Y16271D1*
X13993Y16420D1*
X14035Y16564D1*
X14094Y16701D1*
X14171Y16830D1*
X14263Y16948D1*
X14371Y17053D1*
X14490Y17143D1*
X14600Y17205D1*
X14491Y17272D1*
X14372Y17363D1*
X14266Y17470D1*
X14176Y17589D1*
X14103Y17720D1*
X14048Y17859D1*
X14012Y18005D1*
X13996Y18154D1*
X14000Y18304D1*
X14024Y18452D1*
X14068Y18595D1*
X14131Y18731D1*
X14212Y18857D1*
X14309Y18972D1*
X14420Y19072D1*
X14544Y19156D1*
X14678Y19223D1*
X14820Y19272D1*
X14967Y19301D1*
X15117Y19309D1*
X15266Y19298D1*
X15413Y19267D1*
X15554Y19216D1*
X15695Y19145D1*
Y21608D1*
X14162D1*
Y18785D1*
X10750D1*
Y13209D1*
X14162D1*
Y10750D1*
X15695Y10755D1*
Y12854D1*
X15495Y12755D1*
X15352Y12713D1*
X15204Y12690D1*
X15054Y12687D1*
X14905Y12704D1*
X14760Y12741D1*
X14621Y12797D1*
X14491Y12872D1*
X14372Y12963D1*
X14266Y13070D1*
X14176Y13189D1*
X14103Y13320D1*
X14048Y13459D1*
X14012Y13605D1*
X13996Y13754D1*
X14000Y13904D1*
X14024Y14052D1*
X14068Y14195D1*
X14131Y14331D1*
X14212Y14457D1*
X14309Y14572D1*
X14420Y14672D1*
X14544Y14756D1*
X14678Y14823D1*
X14820Y14872D1*
X14967Y14901D1*
X15117Y14909D1*
X15266Y14898D1*
X15413Y14867D1*
X15554Y14816D1*
X15687Y14746D1*
X15809Y14660D1*
X15919Y14558D1*
X16013Y14441D1*
X16070Y14355D1*
Y15485D1*
X23894Y35026D2*
X24141Y35007D1*
X24287Y34973D1*
X24429Y34924D1*
X24564Y34860D1*
X24692Y34782D1*
X24812Y34691D1*
X24920Y34588D1*
X25047Y34431D1*
X26320Y34428D1*
X26469Y34414D1*
X26613Y34373D1*
X26747Y34306D1*
X26894Y34190D1*
X26990Y34094D1*
X27063Y34256D1*
X27138Y34386D1*
X27227Y34507D1*
X27327Y34618D1*
X27439Y34718D1*
X27561Y34805D1*
X27691Y34879D1*
X27829Y34939D1*
X27972Y34984D1*
X28119Y35013D1*
X28322Y35028D1*
X28644D1*
X28868Y35252D1*
X23331Y35250D1*
X23445Y35157D1*
X23574Y35028D1*
X23896Y35023D1*
X43946Y10749D2*
X44326Y10799D1*
X44421Y10846D1*
X43896Y10852D1*
X43751Y10889D1*
X43617Y10958D1*
X43496Y11061D1*
X42917Y11649D1*
X42840Y11778D1*
X42795Y11920D1*
X42782Y12079D1*
X42788Y12904D1*
X42825Y13049D1*
X42894Y13183D1*
X42997Y13304D1*
X43585Y13883D1*
X43714Y13960D1*
X43856Y14005D1*
X44015Y14018D1*
X44840Y14012D1*
X44985Y13975D1*
X45119Y13906D1*
X45240Y13803D1*
X45250Y13793D1*
Y14885D1*
X45102Y14757D1*
X44967Y14692D1*
X44816Y14660D1*
X44751Y14656D1*
X43985D1*
X43837Y14673D1*
X43695Y14723D1*
X43566Y14807D1*
X43517Y14850D1*
X43037Y15331D1*
X39488Y15330D1*
X38806Y14643D1*
X38458Y14295D1*
X38521Y14297D1*
Y10823D1*
X38273D1*
X38250Y10766D1*
X38289Y10750D1*
X43957D1*
X43955Y10847D1*
X43807Y10871D1*
X43669Y10927D1*
X43546Y11013D1*
X43496Y11061D1*
X18025Y31462D2*
X21047D1*
X16071Y14397D2*
X17857D1*
X15696Y20447D2*
X17607D1*
X12357D2*
X14161D1*
X15696Y11547D2*
X17607D1*
X12357D2*
X14161D1*
X42783Y12432D2*
D17*
X44368D1*
G36*
X15438Y34791D2*
X15987Y35341D1*
X16765D1*
X17315Y34791D1*
Y34014D1*
X16765Y33464D1*
X15987D1*
X15438Y34014D1*
Y34791D1*
G37*
G36*
X11054Y30407D2*
X11603Y30957D1*
X12381D1*
X12931Y30407D1*
Y29630D1*
X12381Y29080D1*
X11603D1*
X11054Y29630D1*
Y30407D1*
G37*
D21*
X41616Y23568D3*
X44666D3*
X44688Y27024D3*
X41638D3*
X41616Y21264D3*
X44666D3*
X44688Y19024D3*
X41638D3*
X35600Y34704D3*
X32550D3*
D22*
X19536Y31462D3*
Y34512D3*
D21*
X27536Y11472D3*
X30586D3*
D23*
X17857Y17597D3*
Y16797D3*
Y15997D3*
Y15197D3*
Y14397D3*
D24*
X17607Y20447D3*
D25*
X12357D3*
D24*
X17607Y11547D3*
D25*
X12357D3*
D26*
X38544Y26320D3*
G36*
X37805Y23474D2*
Y24086D1*
X38238Y24519D1*
X38850D1*
X39283Y24086D1*
Y23474D1*
X38850Y23041D1*
X38238D1*
X37805Y23474D1*
G37*
G36*
Y20934D2*
Y21546D1*
X38238Y21979D1*
X38850D1*
X39283Y21546D1*
Y20934D1*
X38850Y20501D1*
X38238D1*
X37805Y20934D1*
G37*
G36*
Y18394D2*
Y19006D1*
X38238Y19439D1*
X38850D1*
X39283Y19006D1*
Y18394D1*
X38850Y17961D1*
X38238D1*
X37805Y18394D1*
G37*
G36*
X45292Y12815D2*
Y12049D1*
X44751Y11508D1*
X43985D1*
X43444Y12049D1*
Y12815D1*
X43985Y13356D1*
X44751D1*
X45292Y12815D1*
G37*
G36*
Y16625D2*
Y15859D1*
X44751Y15318D1*
X43985D1*
X43444Y15859D1*
Y16625D1*
X43985Y17166D1*
X44751D1*
X45292Y16625D1*
G37*
G36*
X43572Y33553D2*
Y34319D1*
X44113Y34860D1*
X44879D1*
X45420Y34319D1*
Y33553D1*
X44879Y33012D1*
X44113D1*
X43572Y33553D1*
G37*
G36*
Y29743D2*
Y30509D1*
X44113Y31050D1*
X44879D1*
X45420Y30509D1*
Y29743D1*
X44879Y29202D1*
X44113D1*
X43572Y29743D1*
G37*
D27*
X23632Y29968D3*
X20432Y27600D3*
X26448Y18256D3*
X28368Y17616D3*
X13581Y27953D3*
X15952Y27920D3*
D21*
X41168Y34704D3*
X38118D3*
X24342Y13663D3*
X21292D3*
X21334Y11487D3*
X24384D3*
X24342Y15775D3*
X21292D3*
X24342Y17951D3*
X21292D3*
X18192Y23120D3*
X15142D3*
X15184Y25872D3*
X18234D3*
X21270Y19999D3*
X24320D3*
D29*
X32784Y12560D3*
X35084D3*
X37384D3*
D30*
X35084Y18360D3*
D31*
X35920Y32656D3*
Y31386D3*
Y30116D3*
Y28846D3*
X41320D3*
Y30116D3*
Y31386D3*
Y32656D3*
G36*
X31782Y28528D2*
X31482D1*
Y30128D1*
X31782D1*
Y28528D1*
G37*
G36*
X31282D2*
X30982D1*
Y30128D1*
X31282D1*
Y28528D1*
G37*
G36*
X30782D2*
X30482D1*
Y30128D1*
X30782D1*
Y28528D1*
G37*
G36*
X30282D2*
X29982D1*
Y30128D1*
X30282D1*
Y28528D1*
G37*
G36*
X29782D2*
X29482D1*
Y30128D1*
X29782D1*
Y28528D1*
G37*
G36*
X29282D2*
X28982D1*
Y30128D1*
X29282D1*
Y28528D1*
G37*
G36*
X28782D2*
X28482D1*
Y30128D1*
X28782D1*
Y28528D1*
G37*
G36*
X28282D2*
X27982D1*
Y30128D1*
X28282D1*
Y28528D1*
G37*
G36*
X27782D2*
X27482D1*
Y30128D1*
X27782D1*
Y28528D1*
G37*
G36*
X27282D2*
X26982D1*
Y30128D1*
X27282D1*
Y28528D1*
G37*
G36*
X26782D2*
X26482D1*
Y30128D1*
X26782D1*
Y28528D1*
G37*
G36*
X26282D2*
X25982D1*
Y30128D1*
X26282D1*
Y28528D1*
G37*
G36*
X25227Y27773D2*
Y27473D1*
X23627D1*
Y27773D1*
X25227D1*
G37*
G36*
Y27273D2*
Y26973D1*
X23627D1*
Y27273D1*
X25227D1*
G37*
G36*
Y26773D2*
Y26473D1*
X23627D1*
Y26773D1*
X25227D1*
G37*
G36*
Y26273D2*
Y25973D1*
X23627D1*
Y26273D1*
X25227D1*
G37*
G36*
Y25773D2*
Y25473D1*
X23627D1*
Y25773D1*
X25227D1*
G37*
G36*
Y25273D2*
Y24973D1*
X23627D1*
Y25273D1*
X25227D1*
G37*
G36*
Y24773D2*
Y24473D1*
X23627D1*
Y24773D1*
X25227D1*
G37*
G36*
Y24273D2*
Y23973D1*
X23627D1*
Y24273D1*
X25227D1*
G37*
G36*
Y23773D2*
Y23473D1*
X23627D1*
Y23773D1*
X25227D1*
G37*
G36*
Y23273D2*
Y22973D1*
X23627D1*
Y23273D1*
X25227D1*
G37*
G36*
Y22773D2*
Y22473D1*
X23627D1*
Y22773D1*
X25227D1*
G37*
G36*
Y22273D2*
Y21973D1*
X23627D1*
Y22273D1*
X25227D1*
G37*
G36*
X26282Y19618D2*
X25982D1*
Y21218D1*
X26282D1*
Y19618D1*
G37*
G36*
X26782D2*
X26482D1*
Y21218D1*
X26782D1*
Y19618D1*
G37*
G36*
X27282D2*
X26982D1*
Y21218D1*
X27282D1*
Y19618D1*
G37*
G36*
X27782D2*
X27482D1*
Y21218D1*
X27782D1*
Y19618D1*
G37*
G36*
X28282D2*
X27982D1*
Y21218D1*
X28282D1*
Y19618D1*
G37*
G36*
X28782D2*
X28482D1*
Y21218D1*
X28782D1*
Y19618D1*
G37*
G36*
X29282D2*
X28982D1*
Y21218D1*
X29282D1*
Y19618D1*
G37*
G36*
X29782D2*
X29482D1*
Y21218D1*
X29782D1*
Y19618D1*
G37*
G36*
X30282D2*
X29982D1*
Y21218D1*
X30282D1*
Y19618D1*
G37*
G36*
X30782D2*
X30482D1*
Y21218D1*
X30782D1*
Y19618D1*
G37*
G36*
X31282D2*
X30982D1*
Y21218D1*
X31282D1*
Y19618D1*
G37*
G36*
X31782D2*
X31482D1*
Y21218D1*
X31782D1*
Y19618D1*
G37*
G36*
X34137Y22273D2*
Y21973D1*
X32537D1*
Y22273D1*
X34137D1*
G37*
G36*
Y22773D2*
Y22473D1*
X32537D1*
Y22773D1*
X34137D1*
G37*
G36*
Y23273D2*
Y22973D1*
X32537D1*
Y23273D1*
X34137D1*
G37*
G36*
Y23773D2*
Y23473D1*
X32537D1*
Y23773D1*
X34137D1*
G37*
G36*
Y24273D2*
Y23973D1*
X32537D1*
Y24273D1*
X34137D1*
G37*
G36*
Y24773D2*
Y24473D1*
X32537D1*
Y24773D1*
X34137D1*
G37*
G36*
Y25273D2*
Y24973D1*
X32537D1*
Y25273D1*
X34137D1*
G37*
G36*
Y25773D2*
Y25473D1*
X32537D1*
Y25773D1*
X34137D1*
G37*
G36*
Y26273D2*
Y25973D1*
X32537D1*
Y26273D1*
X34137D1*
G37*
G36*
Y26773D2*
Y26473D1*
X32537D1*
Y26773D1*
X34137D1*
G37*
G36*
Y27273D2*
Y26973D1*
X32537D1*
Y27273D1*
X34137D1*
G37*
G36*
Y27773D2*
Y27473D1*
X32537D1*
Y27773D1*
X34137D1*
G37*
G36*
X12468Y23720D2*
Y23032D1*
X12110Y22545D1*
X11603D1*
X11244Y23032D1*
Y23720D1*
X11603Y24208D1*
X12110D1*
X12468Y23720D1*
G37*
G36*
Y26260D2*
Y25572D1*
X12110Y25085D1*
X11603D1*
X11244Y25572D1*
Y26260D1*
X11603Y26748D1*
X12110D1*
X12468Y26260D1*
G37*
D34*
X23696Y33616D3*
X28522D3*
M02*
