M48
METRIC,0000.00
T01C0.5
T02C0.7
T03C0.8
T04C0.813
T05C0.9
T06C1.0
T07C1.016
T08C1.118
%
T01
X+003722Y+002767
X+003807Y+003138
X+003928Y+003258
X+003313Y+003256
X+002936Y+002710
X+002933Y+002428
X+003076Y+002283
X+003067Y+001427
X+002589Y+001146
X+002018Y+002459
X+004469Y+002568
T02
X+001750Y+001403
X+001630Y+001483
X+001750Y+001563
X+001630Y+001643
X+001750Y+001723
T03
X+001715Y+001193G85X+001605Y+001193
X+001245Y+001193G85X+001135Y+001193
X+001245Y+001933G85X+001135Y+001933
X+001715Y+001933G85X+001605Y+001933
T04
X+001186Y+002338
X+001186Y+002592
X+002370Y+003362
X+002852Y+003362
T05
X+002414Y+002958
X+002203Y+002645
X+001499Y+002798
X+002651Y+001806
X+002837Y+001806
T06
X+003903Y+002629
X+003903Y+002375
X+003903Y+002121
X+003903Y+001867
T07
X+004437Y+001192
X+004437Y+001573
X+004450Y+003013
X+004450Y+003394
T08
X+001638Y+003440
X+001199Y+003002
T00
M30
