G04 DipTrace 2.3.0.1*
%INtop_mask.gbr*%
%MOMM*%
%ADD41C,1.419*%
%ADD43R,2.2X0.8*%
%ADD45R,3.45X2.35*%
%ADD47R,1.15X2.35*%
%ADD49O,2.6X1.5*%
%ADD51C,1.2*%
%ADD53C,1.7*%
%ADD55C,2.0*%
%ADD57R,2.0X2.0*%
%ADD59R,1.9X1.95*%
%ADD61R,1.95X1.9*%
%FSLAX53Y53*%
G04*
G71*
G90*
G75*
G01*
%LNTopMask*%
%LPD*%
G36*
X15338Y34833D2*
X15946Y35441D1*
X16806D1*
X17415Y34833D1*
Y33972D1*
X16806Y33364D1*
X15946D1*
X15338Y33972D1*
Y34833D1*
G37*
G36*
X10954Y30449D2*
X11562Y31057D1*
X12422D1*
X13031Y30449D1*
Y29588D1*
X12422Y28980D1*
X11562D1*
X10954Y29588D1*
Y30449D1*
G37*
D61*
X41616Y24016D3*
X44666D3*
X44688Y27344D3*
X41638D3*
X41616Y20880D3*
X44666D3*
X44688Y18384D3*
X41638D3*
X35600Y34704D3*
X32550D3*
D59*
X19536Y31462D3*
Y34512D3*
D61*
X27536Y11472D3*
X30586D3*
G36*
X45392Y12344D2*
Y11496D1*
X44792Y10896D1*
X43944D1*
X43344Y11496D1*
Y12344D1*
X43944Y12944D1*
X44792D1*
X45392Y12344D1*
G37*
G36*
Y16154D2*
Y15306D1*
X44792Y14706D1*
X43944D1*
X43344Y15306D1*
Y16154D1*
X43944Y16754D1*
X44792D1*
X45392Y16154D1*
G37*
D57*
X39034Y26294D3*
D55*
Y23754D3*
Y21214D3*
Y18674D3*
G36*
X43472Y33512D2*
Y34360D1*
X44072Y34960D1*
X44920D1*
X45520Y34360D1*
Y33512D1*
X44920Y32912D1*
X44072D1*
X43472Y33512D1*
G37*
G36*
Y29702D2*
Y30550D1*
X44072Y31150D1*
X44920D1*
X45520Y30550D1*
Y29702D1*
X44920Y29102D1*
X44072D1*
X43472Y29702D1*
G37*
D53*
X24144Y29584D3*
X22032Y26448D3*
X26512Y18064D3*
X28368D3*
X14992Y27984D3*
D61*
X41168Y34704D3*
X38118D3*
X24342Y13663D3*
X21292D3*
X21333Y11487D3*
X24383D3*
X24342Y15775D3*
X21292D3*
X24342Y17951D3*
X21292D3*
X21269Y19999D3*
X24319D3*
X18192Y23120D3*
X15142D3*
X15184Y25872D3*
X18234D3*
D51*
X17499Y14027D3*
X16299Y14827D3*
X17499Y15627D3*
X16299Y16427D3*
X17499Y17227D3*
D49*
X16599Y11927D3*
Y19327D3*
X11899Y11927D3*
Y19327D3*
D47*
X32784Y12560D3*
X35084D3*
X37384D3*
D45*
X35084Y18360D3*
D43*
X35920Y32656D3*
Y31386D3*
Y30116D3*
Y28846D3*
X41320D3*
Y30116D3*
Y31386D3*
Y32656D3*
G36*
X31882Y28428D2*
X31382D1*
Y30228D1*
X31882D1*
Y28428D1*
G37*
G36*
X31382D2*
X30882D1*
Y30228D1*
X31382D1*
Y28428D1*
G37*
G36*
X30882D2*
X30382D1*
Y30228D1*
X30882D1*
Y28428D1*
G37*
G36*
X30382D2*
X29882D1*
Y30228D1*
X30382D1*
Y28428D1*
G37*
G36*
X29882D2*
X29382D1*
Y30228D1*
X29882D1*
Y28428D1*
G37*
G36*
X29382D2*
X28882D1*
Y30228D1*
X29382D1*
Y28428D1*
G37*
G36*
X28882D2*
X28382D1*
Y30228D1*
X28882D1*
Y28428D1*
G37*
G36*
X28382D2*
X27882D1*
Y30228D1*
X28382D1*
Y28428D1*
G37*
G36*
X27882D2*
X27382D1*
Y30228D1*
X27882D1*
Y28428D1*
G37*
G36*
X27382D2*
X26882D1*
Y30228D1*
X27382D1*
Y28428D1*
G37*
G36*
X26882D2*
X26382D1*
Y30228D1*
X26882D1*
Y28428D1*
G37*
G36*
X26382D2*
X25882D1*
Y30228D1*
X26382D1*
Y28428D1*
G37*
G36*
X25327Y27873D2*
Y27373D1*
X23527D1*
Y27873D1*
X25327D1*
G37*
G36*
Y27373D2*
Y26873D1*
X23527D1*
Y27373D1*
X25327D1*
G37*
G36*
Y26873D2*
Y26373D1*
X23527D1*
Y26873D1*
X25327D1*
G37*
G36*
Y26373D2*
Y25873D1*
X23527D1*
Y26373D1*
X25327D1*
G37*
G36*
Y25873D2*
Y25373D1*
X23527D1*
Y25873D1*
X25327D1*
G37*
G36*
Y25373D2*
Y24873D1*
X23527D1*
Y25373D1*
X25327D1*
G37*
G36*
Y24873D2*
Y24373D1*
X23527D1*
Y24873D1*
X25327D1*
G37*
G36*
Y24373D2*
Y23873D1*
X23527D1*
Y24373D1*
X25327D1*
G37*
G36*
Y23873D2*
Y23373D1*
X23527D1*
Y23873D1*
X25327D1*
G37*
G36*
Y23373D2*
Y22873D1*
X23527D1*
Y23373D1*
X25327D1*
G37*
G36*
Y22873D2*
Y22373D1*
X23527D1*
Y22873D1*
X25327D1*
G37*
G36*
Y22373D2*
Y21873D1*
X23527D1*
Y22373D1*
X25327D1*
G37*
G36*
X26382Y19518D2*
X25882D1*
Y21318D1*
X26382D1*
Y19518D1*
G37*
G36*
X26882D2*
X26382D1*
Y21318D1*
X26882D1*
Y19518D1*
G37*
G36*
X27382D2*
X26882D1*
Y21318D1*
X27382D1*
Y19518D1*
G37*
G36*
X27882D2*
X27382D1*
Y21318D1*
X27882D1*
Y19518D1*
G37*
G36*
X28382D2*
X27882D1*
Y21318D1*
X28382D1*
Y19518D1*
G37*
G36*
X28882D2*
X28382D1*
Y21318D1*
X28882D1*
Y19518D1*
G37*
G36*
X29382D2*
X28882D1*
Y21318D1*
X29382D1*
Y19518D1*
G37*
G36*
X29882D2*
X29382D1*
Y21318D1*
X29882D1*
Y19518D1*
G37*
G36*
X30382D2*
X29882D1*
Y21318D1*
X30382D1*
Y19518D1*
G37*
G36*
X30882D2*
X30382D1*
Y21318D1*
X30882D1*
Y19518D1*
G37*
G36*
X31382D2*
X30882D1*
Y21318D1*
X31382D1*
Y19518D1*
G37*
G36*
X31882D2*
X31382D1*
Y21318D1*
X31882D1*
Y19518D1*
G37*
G36*
X34237Y22373D2*
Y21873D1*
X32437D1*
Y22373D1*
X34237D1*
G37*
G36*
Y22873D2*
Y22373D1*
X32437D1*
Y22873D1*
X34237D1*
G37*
G36*
Y23373D2*
Y22873D1*
X32437D1*
Y23373D1*
X34237D1*
G37*
G36*
Y23873D2*
Y23373D1*
X32437D1*
Y23873D1*
X34237D1*
G37*
G36*
Y24373D2*
Y23873D1*
X32437D1*
Y24373D1*
X34237D1*
G37*
G36*
Y24873D2*
Y24373D1*
X32437D1*
Y24873D1*
X34237D1*
G37*
G36*
Y25373D2*
Y24873D1*
X32437D1*
Y25373D1*
X34237D1*
G37*
G36*
Y25873D2*
Y25373D1*
X32437D1*
Y25873D1*
X34237D1*
G37*
G36*
Y26373D2*
Y25873D1*
X32437D1*
Y26373D1*
X34237D1*
G37*
G36*
Y26873D2*
Y26373D1*
X32437D1*
Y26873D1*
X34237D1*
G37*
G36*
Y27373D2*
Y26873D1*
X32437D1*
Y27373D1*
X34237D1*
G37*
G36*
Y27873D2*
Y27373D1*
X32437D1*
Y27873D1*
X34237D1*
G37*
G36*
X12110Y23988D2*
X12468Y23630D1*
Y23122D1*
X12110Y22764D1*
X11602D1*
X11244Y23122D1*
Y23630D1*
X11602Y23988D1*
X12110D1*
G37*
G36*
Y26528D2*
X12468Y26169D1*
Y25662D1*
X12110Y25304D1*
X11602D1*
X11244Y25662D1*
Y26169D1*
X11602Y26528D1*
X12110D1*
G37*
D41*
X23696Y33616D3*
X28522D3*
M02*
