G04 DipTrace 2.3.0.1*
%INbot_silc.gbr*%
%MOMM*%
%ADD29O,0.391X0.392*%
%ADD64C,0.314*%
%FSLAX53Y53*%
G04*
G71*
G90*
G75*
G01*
%LNBotSilk*%
%LPD*%
X40270Y34804D2*
D29*
X42822D1*
X40270Y33103D2*
X42822D1*
X41485Y34804D2*
Y33103D1*
X40142Y30656D2*
X42694D1*
Y29199D1*
X40390Y16342D2*
X42577D1*
X41485Y17434D2*
Y15247D1*
X41547Y13195D2*
Y11791D1*
X33626Y21951D2*
D64*
X33819Y22147D1*
X34111Y22243D1*
X34500D1*
X34792Y22147D1*
X34987Y21951D1*
Y21758D1*
X34888Y21563D1*
X34792Y21466D1*
X34598Y21370D1*
X34014Y21174D1*
X33819Y21078D1*
X33722Y20979D1*
X33626Y20786D1*
Y20494D1*
X33819Y20301D1*
X34111Y20202D1*
X34500D1*
X34792Y20301D1*
X34987Y20494D1*
X32998Y22243D2*
X32902Y22147D1*
X32803Y22243D1*
X32902Y22342D1*
X32998Y22243D1*
X32902Y21563D2*
Y20202D1*
X32176Y21563D2*
Y20202D1*
Y21174D2*
X31884Y21466D1*
X31688Y21563D1*
X31398D1*
X31203Y21466D1*
X31106Y21174D1*
Y20202D1*
Y21174D2*
X30814Y21466D1*
X30619Y21563D1*
X30329D1*
X30134Y21466D1*
X30035Y21174D1*
Y20202D1*
X29408Y21563D2*
Y19521D1*
Y21271D2*
X29212Y21464D1*
X29019Y21563D1*
X28727D1*
X28532Y21464D1*
X28338Y21271D1*
X28240Y20979D1*
Y20783D1*
X28338Y20494D1*
X28532Y20298D1*
X28727Y20202D1*
X29019D1*
X29212Y20298D1*
X29408Y20494D1*
X27612Y22243D2*
Y20202D1*
X26985Y20979D2*
X25819D1*
Y21174D1*
X25915Y21370D1*
X26012Y21466D1*
X26207Y21563D1*
X26499D1*
X26693Y21466D1*
X26888Y21271D1*
X26985Y20979D1*
Y20786D1*
X26888Y20494D1*
X26693Y20301D1*
X26499Y20202D1*
X26207D1*
X26012Y20301D1*
X25819Y20494D1*
X23734Y21758D2*
X23830Y21951D1*
X24026Y22147D1*
X24219Y22243D1*
X24607D1*
X24803Y22147D1*
X24996Y21951D1*
X25095Y21758D1*
X25191Y21466D1*
Y20979D1*
X25095Y20689D1*
X24996Y20494D1*
X24803Y20301D1*
X24607Y20202D1*
X24219D1*
X24026Y20301D1*
X23830Y20494D1*
X23734Y20689D1*
X21550Y20202D2*
X22329Y22243D1*
X23106Y20202D1*
X22814Y20882D2*
X21842D1*
X19561Y22243D2*
Y20202D1*
X20922Y22243D1*
Y20202D1*
X34506Y14650D2*
X33922Y13289D1*
X33340Y14650D1*
X32614Y14843D2*
Y14940D1*
X32517Y15135D1*
X32421Y15232D1*
X32225Y15328D1*
X31837D1*
X31643Y15232D1*
X31547Y15135D1*
X31448Y14940D1*
Y14746D1*
X31547Y14551D1*
X31740Y14261D1*
X32713Y13289D1*
X31351D1*
X30627Y13484D2*
X30724Y13385D1*
X30627Y13289D1*
X30528Y13385D1*
X30627Y13484D1*
X29317Y15328D2*
X29609Y15232D1*
X29804Y14940D1*
X29901Y14454D1*
Y14162D1*
X29804Y13677D1*
X29609Y13385D1*
X29317Y13289D1*
X29124D1*
X28832Y13385D1*
X28639Y13677D1*
X28540Y14162D1*
Y14454D1*
X28639Y14940D1*
X28832Y15232D1*
X29124Y15328D1*
X29317D1*
X28639Y14940D2*
X29804Y13677D1*
X27816Y13484D2*
X27912Y13385D1*
X27816Y13289D1*
X27717Y13385D1*
X27816Y13484D1*
X27090Y14940D2*
X26894Y15038D1*
X26602Y15328D1*
Y13289D1*
M02*
