G04 DipTrace 2.3.0.1*
%INbot_mask.gbr*%
%MOMM*%
%ADD41C,1.419*%
%ADD49O,2.6X1.5*%
%ADD51C,1.2*%
%ADD53C,1.7*%
%ADD55C,2.0*%
%ADD57R,2.0X2.0*%
%FSLAX53Y53*%
G04*
G71*
G90*
G75*
G01*
%LNBotMask*%
%LPD*%
G36*
X15338Y34833D2*
X15946Y35441D1*
X16806D1*
X17415Y34833D1*
Y33972D1*
X16806Y33364D1*
X15946D1*
X15338Y33972D1*
Y34833D1*
G37*
G36*
X10954Y30449D2*
X11562Y31057D1*
X12422D1*
X13031Y30449D1*
Y29588D1*
X12422Y28980D1*
X11562D1*
X10954Y29588D1*
Y30449D1*
G37*
G36*
X45392Y12344D2*
Y11496D1*
X44792Y10896D1*
X43944D1*
X43344Y11496D1*
Y12344D1*
X43944Y12944D1*
X44792D1*
X45392Y12344D1*
G37*
G36*
Y16154D2*
Y15306D1*
X44792Y14706D1*
X43944D1*
X43344Y15306D1*
Y16154D1*
X43944Y16754D1*
X44792D1*
X45392Y16154D1*
G37*
D57*
X39034Y26294D3*
D55*
Y23754D3*
Y21214D3*
Y18674D3*
G36*
X43472Y33512D2*
Y34360D1*
X44072Y34960D1*
X44920D1*
X45520Y34360D1*
Y33512D1*
X44920Y32912D1*
X44072D1*
X43472Y33512D1*
G37*
G36*
Y29702D2*
Y30550D1*
X44072Y31150D1*
X44920D1*
X45520Y30550D1*
Y29702D1*
X44920Y29102D1*
X44072D1*
X43472Y29702D1*
G37*
D53*
X24144Y29584D3*
X22032Y26448D3*
X26512Y18064D3*
X28368D3*
X14992Y27984D3*
D51*
X17499Y14027D3*
X16299Y14827D3*
X17499Y15627D3*
X16299Y16427D3*
X17499Y17227D3*
D49*
X16599Y11927D3*
Y19327D3*
X11899Y11927D3*
Y19327D3*
G36*
X12110Y23988D2*
X12468Y23630D1*
Y23122D1*
X12110Y22764D1*
X11602D1*
X11244Y23122D1*
Y23630D1*
X11602Y23988D1*
X12110D1*
G37*
G36*
Y26528D2*
X12468Y26169D1*
Y25662D1*
X12110Y25304D1*
X11602D1*
X11244Y25662D1*
Y26169D1*
X11602Y26528D1*
X12110D1*
G37*
D41*
X23696Y33616D3*
X28522D3*
M02*
