G04 DipTrace 2.3.0.1*
%INtop_cop.gbr*%
%MOMM*%
%ADD10C,0.25*%
%ADD14C,0.8*%
%ADD15C,0.7*%
%ADD16C,0.5*%
%ADD17C,0.3*%
%ADD18C,0.2*%
%ADD19C,0.6*%
%ADD20C,0.254*%
%ADD22R,1.75X1.7*%
%ADD23R,1.7X1.75*%
%ADD24R,1.8X1.8*%
%ADD25C,1.8*%
%ADD26C,1.5*%
%ADD27C,1.0*%
%ADD28O,2.4X1.3*%
%ADD30R,0.95X2.15*%
%ADD31R,3.25X2.15*%
%ADD32R,2.0X0.6*%
%ADD34C,1.219*%
%ADD35C,1.0*%
%FSLAX53Y53*%
G04*
G71*
G90*
G75*
G01*
%LNTop*%
%LPD*%
X41638Y27344D2*
D14*
X41616Y24016D1*
X44368Y15730D2*
D15*
X38604D1*
X37384Y14510D1*
Y12560D1*
X44368Y15730D2*
D16*
X43120D1*
Y23637D1*
X41995D1*
X41616Y24016D1*
X30586Y11472D2*
X31456D1*
X32142Y10786D1*
X37054D1*
X37427Y11158D1*
Y12517D1*
X37384Y12560D1*
X41616Y20880D2*
D14*
X41638Y18384D1*
X35084Y12560D2*
D16*
Y13990D1*
D17*
X34000Y15074D1*
X32641D1*
X31632Y16083D1*
Y20418D1*
X30759Y22826D2*
X27629D1*
Y22123D1*
X24427D1*
X33129Y32559D2*
D18*
X33137D1*
D17*
Y27623D1*
D18*
X33337D1*
X37224Y27672D2*
D16*
X38210D1*
X39317Y28779D1*
Y30116D1*
Y32575D1*
D18*
X39278D1*
X35920Y30116D2*
D16*
X39317D1*
X27632Y29328D2*
D17*
X27629Y22826D1*
X41616Y20880D2*
X41518D1*
X39312Y18674D1*
X39034D1*
X31632Y20418D2*
X37290D1*
X39034Y18674D1*
X24383Y11487D2*
D16*
X27536Y11472D1*
X17499Y17227D2*
X19094D1*
X19907Y18040D1*
X21202D1*
X21292Y17951D1*
X25886Y11458D2*
X24412D1*
X24383Y11487D1*
X24427Y25123D2*
D17*
X21181D1*
X20368Y25936D1*
X18298D1*
X18234Y25872D1*
X11992Y30018D2*
D16*
X16755D1*
X18331Y28442D1*
Y25969D1*
X18234Y25872D1*
X41320Y31386D2*
D19*
X42650D1*
X43280Y32016D1*
Y32720D1*
X44496Y33936D1*
X41320Y30116D2*
X44496Y30126D1*
X33337Y26123D2*
D17*
X35211D1*
X35920Y26832D1*
Y28846D1*
X33337Y26623D2*
X34367D1*
X34768Y27024D1*
Y27728D1*
X34128Y28368D1*
Y32144D1*
X34640Y32656D1*
X35920D1*
X33337Y22123D2*
X35106D1*
X35670Y22687D1*
Y24748D1*
X37216Y26294D1*
X39034D1*
X21292Y13663D2*
D16*
Y11528D1*
X21333Y11487D1*
X17499Y15627D2*
D17*
X18308D1*
X20273Y13663D1*
X21292D1*
X16299Y16427D2*
D10*
X19413D1*
X20036Y15804D1*
X21263D1*
X21292Y15775D1*
X44688Y27344D2*
D15*
Y25680D1*
X44666D1*
Y24016D1*
Y20880D1*
Y18406D1*
X44688Y18384D1*
X11856Y25916D2*
D14*
X15140D1*
D16*
X15184Y25872D1*
X32784Y12560D2*
Y13990D1*
X32450Y14324D1*
X31132D1*
D17*
Y20418D1*
X29359Y27103D2*
X28569D1*
X28132Y27540D1*
Y29328D1*
X21269Y19999D2*
D19*
Y22623D1*
D17*
X24427D1*
X33337Y27123D2*
X29329D1*
D16*
Y24284D1*
X28132Y29328D2*
D17*
Y30659D1*
X27329Y31462D1*
D14*
X19536D1*
X38068Y31376D2*
D16*
X35920Y31386D1*
X29329Y24284D2*
D17*
X30502D1*
X31841Y25623D1*
X33337D1*
X38118Y34704D2*
D16*
Y31846D1*
D18*
X38068Y31796D1*
Y31376D1*
X35600Y34704D2*
D16*
X38118D1*
X44368Y11920D2*
D19*
X42576D1*
D17*
X42256Y12240D1*
X35600Y34704D2*
D19*
X34000D1*
D17*
X33936Y34640D1*
X31132Y20418D2*
Y14731D1*
X30673Y14272D1*
X39034Y23754D2*
X37837D1*
X35690Y21607D1*
X30839D1*
X30646Y21414D1*
Y20432D1*
X30632Y20418D1*
X29632Y29328D2*
Y32506D1*
X28522Y33616D1*
X32550Y34704D2*
D19*
X29610D1*
X28522Y33616D1*
X29132Y29328D2*
D17*
Y30804D1*
X26320Y33616D1*
X23696D1*
X19536Y34512D2*
D19*
X22800D1*
X23696Y33616D1*
X24427Y24123D2*
D17*
X21179D1*
X20176Y23120D1*
X18192D1*
X11856Y23376D2*
D16*
X14886D1*
X15142Y23120D1*
X24319Y19999D2*
Y17974D1*
X24342Y17951D1*
X26132Y20418D2*
D17*
X24738D1*
X24319Y19999D1*
X41168Y34704D2*
D16*
Y32808D1*
D17*
X41320Y32656D1*
X30132Y20418D2*
Y16519D1*
X27268Y13656D1*
X24349D1*
X24342Y13663D1*
X29632Y20418D2*
Y17305D1*
X28102Y15775D1*
X24342D1*
X26132Y29328D2*
X24400D1*
D18*
X24144Y29584D1*
X24427Y27623D2*
D17*
X23207D1*
X22032Y26448D1*
X27132Y20418D2*
Y18684D1*
X26512Y18064D1*
X28132Y20418D2*
Y18300D1*
D18*
X28368Y18064D1*
X24427Y24623D2*
D17*
X20207D1*
D18*
X20176Y24592D1*
D35*
X25886Y11458D3*
X44688Y25680D3*
X20176Y24592D3*
X37224Y27672D3*
X30759Y22826D3*
X29359Y27103D3*
X38068Y31376D3*
X29329Y24284D3*
X30673Y14272D3*
X33129Y32559D3*
X39278Y32575D3*
X11096Y34503D2*
D19*
X14651D1*
X24755D2*
X27467D1*
X10960Y33907D2*
X14660D1*
X10965Y33310D2*
X15054D1*
X17696D2*
X17902D1*
X21174D2*
X22338D1*
X10965Y32713D2*
X17904D1*
X21174D2*
X22657D1*
X24737D2*
X25929D1*
X10965Y32117D2*
X17904D1*
X21174D2*
X26520D1*
X44368D2*
X45045D1*
X12896Y31520D2*
X17904D1*
X21174D2*
X27120D1*
X17171Y30923D2*
X17904D1*
X21174D2*
X23473D1*
X24821D2*
X27720D1*
X21174Y30327D2*
X22807D1*
X18483Y29730D2*
X22620D1*
X19074Y29133D2*
X22685D1*
X12915Y28537D2*
X13563D1*
X19365D2*
X23051D1*
X10965Y27940D2*
X13460D1*
X19365D2*
X22226D1*
X10965Y27343D2*
X13526D1*
X19890D2*
X20801D1*
X12971Y26747D2*
X13526D1*
X13252Y26150D2*
X13521D1*
X13243Y25553D2*
X13520D1*
X12849Y24957D2*
X13526D1*
X12821Y24360D2*
X13479D1*
X21521Y23167D2*
X22845D1*
X20921Y22570D2*
X22845D1*
X10965Y21973D2*
X13479D1*
X19852D2*
X22845D1*
X10965Y21377D2*
X19610D1*
X10965Y20780D2*
X19610D1*
X13580Y20183D2*
X14913D1*
X18287D2*
X19610D1*
X13862Y19587D2*
X14642D1*
X18558D2*
X19610D1*
X13843Y18990D2*
X14660D1*
X18540D2*
X19610D1*
X13515Y18393D2*
X14979D1*
X18212D2*
X18823D1*
X10965Y17797D2*
X16357D1*
X10965Y17200D2*
X15288D1*
X10965Y16603D2*
X15026D1*
X10965Y16007D2*
X15092D1*
X10965Y15410D2*
X15167D1*
X10965Y14813D2*
X15017D1*
X10965Y14217D2*
X15176D1*
X38668D2*
X43507D1*
X10965Y13620D2*
X16038D1*
X18708D2*
X19020D1*
X38640D2*
X45045D1*
X13337Y13023D2*
X15157D1*
X18258D2*
X19620D1*
X38640D2*
X43085D1*
X13787Y12427D2*
X14707D1*
X18493D2*
X19629D1*
X38640D2*
X42673D1*
X13880Y11830D2*
X14623D1*
X18577D2*
X19676D1*
X38640D2*
X42663D1*
X13693Y11233D2*
X14801D1*
X18390D2*
X19676D1*
X38640D2*
X42729D1*
X17615Y33290D2*
X17277Y32952D1*
X17018Y32788D1*
X16765Y32740D1*
X15987D1*
X15688Y32807D1*
X15476Y32952D1*
X14926Y33502D1*
X14761Y33760D1*
X14714Y34014D1*
Y34791D1*
X14780Y35090D1*
X14723Y34894D1*
X14561Y35100D1*
X12058D1*
X11716Y35055D1*
X11456Y34947D1*
X11229Y34774D1*
X11055Y34548D1*
X10946Y34285D1*
X10900Y33942D1*
Y31270D1*
X11091Y31469D1*
X11350Y31633D1*
X11603Y31681D1*
X12381D1*
X12680Y31614D1*
X12893Y31469D1*
X13368Y30994D1*
X16755Y30992D1*
X17050Y30947D1*
X17324Y30807D1*
X17656Y30495D1*
X17967Y30183D1*
X17962Y31303D1*
Y33691D1*
X17827Y33502D1*
X17615Y33290D1*
X13370Y29045D2*
X12893Y28568D1*
X12634Y28404D1*
X12381Y28356D1*
X11603D1*
X11304Y28423D1*
X11091Y28568D1*
X10899Y28760D1*
X10902Y26851D1*
X11182Y27117D1*
X11397Y27222D1*
X11602Y27252D1*
X12229Y27242D1*
X12455Y27164D1*
X12621Y27040D1*
X13057Y26590D1*
X13162Y26375D1*
X13192Y26169D1*
X13182Y25543D1*
X13104Y25317D1*
X12980Y25151D1*
X12530Y24715D1*
X12442Y24661D1*
X12621Y24500D1*
X12774Y24347D1*
X13534Y24350D1*
X13543Y24694D1*
X13590D1*
X13585Y25858D1*
Y27446D1*
X13621D1*
X13524Y27853D1*
X13528Y28153D1*
X13592Y28445D1*
X13714Y28719D1*
X13889Y28962D1*
X13979Y29044D1*
X13371D1*
X42745Y25590D2*
X43215Y25581D1*
X43187Y25590D1*
X45101D1*
X45087Y25770D1*
X42759D1*
X43067Y25590D1*
X43187D1*
X21109Y33061D2*
X21110Y29863D1*
X18292Y29859D1*
X19020Y29131D1*
X19196Y28890D1*
X19291Y28597D1*
X19305Y28142D1*
Y27439D1*
X19833Y27446D1*
Y26818D1*
X20418Y26807D1*
X20632Y26909D1*
X20754Y27183D1*
X20929Y27426D1*
X21150Y27629D1*
X21406Y27783D1*
X21689Y27882D1*
X21986Y27921D1*
X22263Y27915D1*
X22589Y28241D1*
X22833Y28413D1*
X23130Y28492D1*
X22847Y28883D1*
X22732Y29159D1*
X22676Y29453D1*
X22680Y29753D1*
X22744Y30045D1*
X22866Y30319D1*
X23041Y30562D1*
X23262Y30765D1*
X23518Y30919D1*
X23801Y31018D1*
X24098Y31057D1*
X24397Y31036D1*
X24685Y30955D1*
X24951Y30817D1*
X25184Y30629D1*
X25332Y30448D1*
X25401Y30560D1*
X25541Y30702D1*
X25714Y30801D1*
X25982Y30852D1*
X26845Y30849D1*
X27408Y30848D1*
X27854Y30847D1*
X25962Y32738D1*
X24698Y32742D1*
X24525Y32572D1*
X24271Y32413D1*
X23988Y32315D1*
X23691Y32282D1*
X23393Y32317D1*
X23111Y32417D1*
X22859Y32578D1*
X22648Y32791D1*
X22491Y33045D1*
X22394Y33329D1*
X22377Y33487D1*
X21103Y33488D1*
X21110Y32913D1*
X21101D1*
X43058Y10899D2*
X42855Y11117D1*
X42750Y11332D1*
X42720Y11537D1*
X42730Y12422D1*
X42808Y12648D1*
X42932Y12815D1*
X43565Y13433D1*
X43780Y13538D1*
X43985Y13568D1*
X44870Y13558D1*
X45096Y13480D1*
X45081Y13488D1*
X45100Y13539D1*
Y14167D1*
X44924Y14103D1*
X44451Y14082D1*
X43985D1*
X43686Y14149D1*
X43473Y14294D1*
X43109Y14659D1*
X39052Y14656D1*
X38587Y14195D1*
X38583Y10901D1*
X43061Y10900D1*
X42836Y11145D1*
X42741Y11364D1*
X42720Y11537D1*
X44579Y32288D2*
X44307D1*
X44303Y32019D1*
X44413Y31774D1*
X44981Y31765D1*
X45100Y31839D1*
Y32317D1*
X44879Y32288D1*
X44579D1*
X19736Y12089D2*
X19693D1*
X19688Y13013D1*
X18721Y13967D1*
X18670Y13672D1*
X18549Y13399D1*
X18365Y13163D1*
X18130Y12978D1*
X18081Y12936D1*
X18278Y12710D1*
X18421Y12447D1*
X18503Y12159D1*
X18521Y11867D1*
X18476Y11571D1*
X18367Y11292D1*
X18201Y11043D1*
X18061Y10900D1*
X19736D1*
X19734Y12097D1*
X19792Y21573D2*
X23029D1*
X22954Y21705D1*
X22903Y21973D1*
X22907Y22842D1*
X22903Y23251D1*
X21549Y23249D1*
X20794Y22502D1*
X20550Y22330D1*
X20222Y22247D1*
X19792Y22246D1*
X19791Y21569D1*
X19491Y21546D1*
X16593Y21555D1*
X16741Y21546D1*
X13543D1*
Y22399D1*
X12768Y22398D1*
X12621Y22252D1*
X12363Y22088D1*
X12110Y22040D1*
X11602D1*
X11303Y22107D1*
X11091Y22252D1*
X10898Y22444D1*
X10900Y20620D1*
X11174Y20690D1*
X11349Y20701D1*
X12574Y20695D1*
X12867Y20636D1*
X13141Y20514D1*
X13381Y20336D1*
X13578Y20110D1*
X13721Y19847D1*
X13803Y19559D1*
X13823Y19327D1*
X13790Y19030D1*
X13694Y18746D1*
X13538Y18490D1*
X13331Y18274D1*
X13082Y18108D1*
X12803Y18000D1*
X12442Y17959D1*
X11349Y17953D1*
X11108Y17974D1*
X10902Y18035D1*
X10900Y13233D1*
X11174Y13290D1*
X11349Y13301D1*
X12574Y13295D1*
X12867Y13236D1*
X13141Y13114D1*
X13381Y12936D1*
X13578Y12710D1*
X13721Y12447D1*
X13803Y12159D1*
X13823Y11927D1*
X13790Y11630D1*
X13694Y11346D1*
X13538Y11090D1*
X13351Y10894D1*
X15142Y10900D1*
X14995Y11046D1*
X14829Y11295D1*
X14721Y11575D1*
X14676Y11871D1*
X14696Y12169D1*
X14781Y12457D1*
X14926Y12719D1*
X15124Y12943D1*
X15366Y13119D1*
X15640Y13239D1*
X15934Y13296D1*
X16512Y13301D1*
X16370Y13554D1*
X16350Y13605D1*
X16063Y13626D1*
X15779Y13719D1*
X15525Y13879D1*
X15318Y14095D1*
X15170Y14354D1*
X15089Y14643D1*
X15080Y14942D1*
X15144Y15234D1*
X15278Y15502D1*
X15372Y15626D1*
X15194Y15900D1*
X15099Y16183D1*
X15076Y16482D1*
X15126Y16777D1*
X15246Y17051D1*
X15429Y17288D1*
X15663Y17473D1*
X15936Y17596D1*
X16231Y17649D1*
X16352Y17641D1*
X16446Y17851D1*
X16520Y17947D1*
X15808Y17974D1*
X15521Y18059D1*
X15259Y18203D1*
X15034Y18401D1*
X14857Y18643D1*
X14737Y18917D1*
X14680Y19211D1*
X14687Y19510D1*
X14759Y19801D1*
X14892Y20069D1*
X15080Y20302D1*
X15314Y20488D1*
X15583Y20620D1*
X15874Y20690D1*
X16049Y20701D1*
X17274Y20695D1*
X17567Y20636D1*
X17841Y20514D1*
X18081Y20336D1*
X18278Y20110D1*
X18421Y19847D1*
X18503Y19559D1*
X18523Y19327D1*
X18490Y19030D1*
X18394Y18746D1*
X18238Y18490D1*
X18064Y18308D1*
X18399Y18201D1*
X18689D1*
X19219Y18729D1*
X19469Y18909D1*
X19670Y19025D1*
Y21545D1*
X23832Y34934D2*
X24009Y34912D1*
X24290Y34810D1*
X24541Y34647D1*
X24691Y34493D1*
X26320Y34490D1*
X26614Y34439D1*
X26905Y34265D1*
X27223Y33949D1*
X27326Y34205D1*
X27487Y34457D1*
X27701Y34667D1*
X27956Y34824D1*
X28240Y34919D1*
X28398Y34935D1*
X28560Y35102D1*
X23664Y35100D1*
X23822Y34938D1*
X17963Y31462D2*
D18*
X21109D1*
X42722Y11920D2*
D20*
X44368D1*
X19671Y19999D2*
D18*
X21269D1*
X13586Y25872D2*
X15184D1*
X17499Y14027D2*
D20*
X18722D1*
X15076Y14827D2*
X16299D1*
X14676Y11927D2*
X18522D1*
X22904Y22623D2*
D18*
X24427D1*
X11856Y25916D2*
D20*
X13191D1*
G36*
X15438Y34791D2*
X15987Y35341D1*
X16765D1*
X17315Y34791D1*
Y34014D1*
X16765Y33464D1*
X15987D1*
X15438Y34014D1*
Y34791D1*
G37*
G36*
X11053Y30407D2*
X11603Y30957D1*
X12381D1*
X12931Y30407D1*
Y29630D1*
X12381Y29080D1*
X11603D1*
X11053Y29630D1*
Y30407D1*
G37*
D22*
X41616Y24016D3*
X44666D3*
X44688Y27344D3*
X41638D3*
X41616Y20880D3*
X44666D3*
X44688Y18384D3*
X41638D3*
X35600Y34704D3*
X32550D3*
D23*
X19536Y31462D3*
Y34512D3*
D22*
X27536Y11472D3*
X30586D3*
G36*
X45292Y12303D2*
Y11537D1*
X44751Y10996D1*
X43985D1*
X43444Y11537D1*
Y12303D1*
X43985Y12844D1*
X44751D1*
X45292Y12303D1*
G37*
G36*
Y16113D2*
Y15347D1*
X44751Y14806D1*
X43985D1*
X43444Y15347D1*
Y16113D1*
X43985Y16654D1*
X44751D1*
X45292Y16113D1*
G37*
D24*
X39034Y26294D3*
D25*
Y23754D3*
Y21214D3*
Y18674D3*
G36*
X43572Y33553D2*
Y34319D1*
X44113Y34860D1*
X44879D1*
X45420Y34319D1*
Y33553D1*
X44879Y33012D1*
X44113D1*
X43572Y33553D1*
G37*
G36*
Y29743D2*
Y30509D1*
X44113Y31050D1*
X44879D1*
X45420Y30509D1*
Y29743D1*
X44879Y29202D1*
X44113D1*
X43572Y29743D1*
G37*
D26*
X24144Y29584D3*
X22032Y26448D3*
X26512Y18064D3*
X28368D3*
X14992Y27984D3*
D22*
X41168Y34704D3*
X38118D3*
X24342Y13663D3*
X21292D3*
X21333Y11487D3*
X24383D3*
X24342Y15775D3*
X21292D3*
X24342Y17951D3*
X21292D3*
X21269Y19999D3*
X24319D3*
X18192Y23120D3*
X15142D3*
X15184Y25872D3*
X18234D3*
D27*
X17499Y14027D3*
X16299Y14827D3*
X17499Y15627D3*
X16299Y16427D3*
X17499Y17227D3*
D28*
X16599Y11927D3*
Y19327D3*
X11899Y11927D3*
Y19327D3*
D30*
X32784Y12560D3*
X35084D3*
X37384D3*
D31*
X35084Y18360D3*
D32*
X35920Y32656D3*
Y31386D3*
Y30116D3*
Y28846D3*
X41320D3*
Y30116D3*
Y31386D3*
Y32656D3*
G36*
X31782Y28528D2*
X31482D1*
Y30128D1*
X31782D1*
Y28528D1*
G37*
G36*
X31282D2*
X30982D1*
Y30128D1*
X31282D1*
Y28528D1*
G37*
G36*
X30782D2*
X30482D1*
Y30128D1*
X30782D1*
Y28528D1*
G37*
G36*
X30282D2*
X29982D1*
Y30128D1*
X30282D1*
Y28528D1*
G37*
G36*
X29782D2*
X29482D1*
Y30128D1*
X29782D1*
Y28528D1*
G37*
G36*
X29282D2*
X28982D1*
Y30128D1*
X29282D1*
Y28528D1*
G37*
G36*
X28782D2*
X28482D1*
Y30128D1*
X28782D1*
Y28528D1*
G37*
G36*
X28282D2*
X27982D1*
Y30128D1*
X28282D1*
Y28528D1*
G37*
G36*
X27782D2*
X27482D1*
Y30128D1*
X27782D1*
Y28528D1*
G37*
G36*
X27282D2*
X26982D1*
Y30128D1*
X27282D1*
Y28528D1*
G37*
G36*
X26782D2*
X26482D1*
Y30128D1*
X26782D1*
Y28528D1*
G37*
G36*
X26282D2*
X25982D1*
Y30128D1*
X26282D1*
Y28528D1*
G37*
G36*
X25227Y27773D2*
Y27473D1*
X23627D1*
Y27773D1*
X25227D1*
G37*
G36*
Y27273D2*
Y26973D1*
X23627D1*
Y27273D1*
X25227D1*
G37*
G36*
Y26773D2*
Y26473D1*
X23627D1*
Y26773D1*
X25227D1*
G37*
G36*
Y26273D2*
Y25973D1*
X23627D1*
Y26273D1*
X25227D1*
G37*
G36*
Y25773D2*
Y25473D1*
X23627D1*
Y25773D1*
X25227D1*
G37*
G36*
Y25273D2*
Y24973D1*
X23627D1*
Y25273D1*
X25227D1*
G37*
G36*
Y24773D2*
Y24473D1*
X23627D1*
Y24773D1*
X25227D1*
G37*
G36*
Y24273D2*
Y23973D1*
X23627D1*
Y24273D1*
X25227D1*
G37*
G36*
Y23773D2*
Y23473D1*
X23627D1*
Y23773D1*
X25227D1*
G37*
G36*
Y23273D2*
Y22973D1*
X23627D1*
Y23273D1*
X25227D1*
G37*
G36*
Y22773D2*
Y22473D1*
X23627D1*
Y22773D1*
X25227D1*
G37*
G36*
Y22273D2*
Y21973D1*
X23627D1*
Y22273D1*
X25227D1*
G37*
G36*
X26282Y19618D2*
X25982D1*
Y21218D1*
X26282D1*
Y19618D1*
G37*
G36*
X26782D2*
X26482D1*
Y21218D1*
X26782D1*
Y19618D1*
G37*
G36*
X27282D2*
X26982D1*
Y21218D1*
X27282D1*
Y19618D1*
G37*
G36*
X27782D2*
X27482D1*
Y21218D1*
X27782D1*
Y19618D1*
G37*
G36*
X28282D2*
X27982D1*
Y21218D1*
X28282D1*
Y19618D1*
G37*
G36*
X28782D2*
X28482D1*
Y21218D1*
X28782D1*
Y19618D1*
G37*
G36*
X29282D2*
X28982D1*
Y21218D1*
X29282D1*
Y19618D1*
G37*
G36*
X29782D2*
X29482D1*
Y21218D1*
X29782D1*
Y19618D1*
G37*
G36*
X30282D2*
X29982D1*
Y21218D1*
X30282D1*
Y19618D1*
G37*
G36*
X30782D2*
X30482D1*
Y21218D1*
X30782D1*
Y19618D1*
G37*
G36*
X31282D2*
X30982D1*
Y21218D1*
X31282D1*
Y19618D1*
G37*
G36*
X31782D2*
X31482D1*
Y21218D1*
X31782D1*
Y19618D1*
G37*
G36*
X34137Y22273D2*
Y21973D1*
X32537D1*
Y22273D1*
X34137D1*
G37*
G36*
Y22773D2*
Y22473D1*
X32537D1*
Y22773D1*
X34137D1*
G37*
G36*
Y23273D2*
Y22973D1*
X32537D1*
Y23273D1*
X34137D1*
G37*
G36*
Y23773D2*
Y23473D1*
X32537D1*
Y23773D1*
X34137D1*
G37*
G36*
Y24273D2*
Y23973D1*
X32537D1*
Y24273D1*
X34137D1*
G37*
G36*
Y24773D2*
Y24473D1*
X32537D1*
Y24773D1*
X34137D1*
G37*
G36*
Y25273D2*
Y24973D1*
X32537D1*
Y25273D1*
X34137D1*
G37*
G36*
Y25773D2*
Y25473D1*
X32537D1*
Y25773D1*
X34137D1*
G37*
G36*
Y26273D2*
Y25973D1*
X32537D1*
Y26273D1*
X34137D1*
G37*
G36*
Y26773D2*
Y26473D1*
X32537D1*
Y26773D1*
X34137D1*
G37*
G36*
Y27273D2*
Y26973D1*
X32537D1*
Y27273D1*
X34137D1*
G37*
G36*
Y27773D2*
Y27473D1*
X32537D1*
Y27773D1*
X34137D1*
G37*
G36*
X12110Y23988D2*
X12468Y23630D1*
Y23122D1*
X12110Y22764D1*
X11602D1*
X11244Y23122D1*
Y23630D1*
X11602Y23988D1*
X12110D1*
G37*
G36*
Y26528D2*
X12468Y26169D1*
Y25662D1*
X12110Y25304D1*
X11602D1*
X11244Y25662D1*
Y26169D1*
X11602Y26528D1*
X12110D1*
G37*
D34*
X23696Y33616D3*
X28522D3*
M02*
