G04 DipTrace 2.3.0.1*
%INBot_cop.gbr*%
%MOMM*%
%ADD10C,0.25*%
%ADD15C,0.7*%
%ADD16C,0.5*%
%ADD17C,0.3*%
%ADD18C,0.2*%
%ADD21C,0.635*%
%ADD24R,1.8X1.8*%
%ADD25C,1.8*%
%ADD26C,1.5*%
%ADD27C,1.0*%
%ADD28O,2.4X1.3*%
%ADD34C,1.219*%
%ADD35C,1.0*%
%FSLAX53Y53*%
G04*
G71*
G90*
G75*
G01*
%LNBottom*%
%LPD*%
X30759Y22826D2*
D15*
X27953D1*
X16376Y34403D1*
X30759Y22826D2*
D16*
X30821D1*
X32378D1*
X37224Y27672D1*
X39278Y32575D2*
D15*
X33129Y32559D1*
X39034Y18674D2*
D16*
X34974D1*
X30821Y22826D1*
X17499Y17227D2*
X18364D1*
X20913Y14677D1*
X24334D1*
X25886Y13125D1*
Y11458D1*
X44368Y11920D2*
D15*
X42832D1*
X41232Y13520D1*
Y18448D1*
X44688Y21904D1*
Y25680D1*
X40947Y29421D1*
X40023D1*
X38068Y31376D1*
X30673Y14272D2*
D16*
X30656D1*
X32592Y16208D1*
X27088Y21712D1*
X13527D1*
X14630Y22816D1*
Y26071D1*
X14475Y25916D1*
X11856D1*
X29329Y24284D2*
D18*
X29359D1*
D15*
Y27103D1*
X38068Y31376D2*
X36421D1*
X29329Y24284D1*
X20176Y24592D2*
D17*
X18384D1*
X14992Y27984D1*
D35*
X25886Y11458D3*
X44688Y25680D3*
X20176Y24592D3*
X37224Y27672D3*
X30759Y22826D3*
X29359Y27103D3*
X38068Y31376D3*
X29329Y24284D3*
X30673Y14272D3*
X33129Y32559D3*
X39278Y32575D3*
X11095Y34451D2*
D21*
X14699D1*
X18050D2*
X22656D1*
X24728D2*
X27488D1*
X29560D2*
X42847D1*
X10986Y33819D2*
X14728D1*
X18467D2*
X22368D1*
X25025D2*
X27190D1*
X29847D2*
X42837D1*
X10986Y33188D2*
X15244D1*
X19102D2*
X22428D1*
X24966D2*
X27250D1*
X29798D2*
X32072D1*
X40345D2*
X42946D1*
X10986Y32556D2*
X16713D1*
X19737D2*
X22914D1*
X24480D2*
X27736D1*
X29302D2*
X31893D1*
X40513D2*
X43552D1*
X10986Y31924D2*
X17348D1*
X20362D2*
X32082D1*
X40315D2*
X45020D1*
X13060Y31293D2*
X17973D1*
X20997D2*
X43343D1*
X13615Y30661D2*
X18608D1*
X21632D2*
X23152D1*
X25135D2*
X42857D1*
X13665Y30029D2*
X19243D1*
X22257D2*
X22726D1*
X25561D2*
X42837D1*
X13625Y29397D2*
X14768D1*
X15219D2*
X19868D1*
X25621D2*
X42936D1*
X13079Y28766D2*
X13736D1*
X16245D2*
X20503D1*
X25373D2*
X36735D1*
X37716D2*
X43532D1*
X10986Y28134D2*
X13518D1*
X16473D2*
X21138D1*
X24152D2*
X36080D1*
X38360D2*
X45020D1*
X10986Y27502D2*
X13587D1*
X16701D2*
X21009D1*
X24787D2*
X35683D1*
X40672D2*
X45020D1*
X12782Y26871D2*
X14044D1*
X17336D2*
X20612D1*
X25422D2*
X35058D1*
X40672D2*
X45020D1*
X13199Y26239D2*
X15512D1*
X17961D2*
X20563D1*
X26047D2*
X34423D1*
X40672D2*
X45020D1*
X13199Y25607D2*
X16137D1*
X18596D2*
X19531D1*
X23239D2*
X23658D1*
X26682D2*
X33788D1*
X40672D2*
X45020D1*
X12792Y24976D2*
X16772D1*
X21344D2*
X24293D1*
X27317D2*
X33163D1*
X40672D2*
X45020D1*
X12772Y24344D2*
X17407D1*
X21384D2*
X24928D1*
X27942D2*
X32528D1*
X40553D2*
X45020D1*
X13199Y23712D2*
X19332D1*
X21017D2*
X25553D1*
X40672D2*
X45020D1*
X13199Y23081D2*
X26188D1*
X40523D2*
X45020D1*
X12812Y22449D2*
X26823D1*
X40067D2*
X45020D1*
X10986Y21817D2*
X27716D1*
X40553D2*
X45020D1*
X10986Y21186D2*
X31090D1*
X40672D2*
X45020D1*
X13010Y20554D2*
X15492D1*
X17703D2*
X31725D1*
X40523D2*
X45020D1*
X13695Y19923D2*
X14808D1*
X18398D2*
X32360D1*
X40057D2*
X45020D1*
X13834Y19291D2*
X14659D1*
X18536D2*
X25732D1*
X29153D2*
X32985D1*
X40543D2*
X45020D1*
X13655Y18659D2*
X14848D1*
X18358D2*
X25156D1*
X29728D2*
X33620D1*
X40672D2*
X45020D1*
X12762Y18027D2*
X15741D1*
X18884D2*
X25027D1*
X29857D2*
X34255D1*
X40533D2*
X45020D1*
X10986Y17396D2*
X15572D1*
X19558D2*
X25196D1*
X29689D2*
X38055D1*
X40017D2*
X45020D1*
X10986Y16764D2*
X15115D1*
X20193D2*
X25871D1*
X27149D2*
X27726D1*
X29014D2*
X43085D1*
X10986Y16132D2*
X15096D1*
X20828D2*
X42708D1*
X10986Y15501D2*
X15274D1*
X24817D2*
X42708D1*
X10986Y14869D2*
X15066D1*
X18457D2*
X19352D1*
X25512D2*
X42907D1*
X10986Y14237D2*
X15225D1*
X18715D2*
X19987D1*
X26147D2*
X43561D1*
X10986Y13606D2*
X16346D1*
X18656D2*
X24035D1*
X26742D2*
X45020D1*
X13318Y12974D2*
X15175D1*
X18080D2*
X24670D1*
X26871D2*
X43105D1*
X13764Y12342D2*
X14728D1*
X18467D2*
X24898D1*
X26871D2*
X42708D1*
X13814Y11711D2*
X14679D1*
X18517D2*
X24680D1*
X27099D2*
X42708D1*
X13526Y11079D2*
X14967D1*
X18229D2*
X24710D1*
X27059D2*
X42887D1*
X17988Y34474D2*
X17998Y34228D1*
X22719Y29506D1*
X22751Y29874D1*
X22850Y30175D1*
X23013Y30447D1*
X23232Y30676D1*
X23496Y30851D1*
X23792Y30963D1*
X24106Y31006D1*
X24422Y30979D1*
X24724Y30883D1*
X24997Y30723D1*
X25228Y30506D1*
X25405Y30243D1*
X25520Y29948D1*
X25567Y29584D1*
X25532Y29269D1*
X25428Y28970D1*
X25260Y28701D1*
X25037Y28476D1*
X24769Y28306D1*
X24471Y28199D1*
X24157Y28161D1*
X24048Y28172D1*
X28374Y23851D1*
X30185Y23849D1*
X30323Y23915D1*
X30630Y23992D1*
X30946Y23984D1*
X31249Y23892D1*
X31475Y23749D1*
X32000D1*
X36054Y27808D1*
X36134Y28105D1*
X36289Y28381D1*
X36512Y28605D1*
X36788Y28761D1*
X37095Y28838D1*
X37411Y28830D1*
X37714Y28738D1*
X37981Y28568D1*
X38193Y28333D1*
X38334Y28050D1*
X38370Y27866D1*
X40607Y27867D1*
Y24721D1*
X40280D1*
X40465Y24409D1*
X40567Y24109D1*
X40607Y23754D1*
X40575Y23438D1*
X40481Y23136D1*
X40328Y22858D1*
X40122Y22617D1*
X39958Y22489D1*
X40225Y22241D1*
X40407Y21982D1*
X40533Y21691D1*
X40598Y21381D1*
X40602Y21087D1*
X40545Y20775D1*
X40426Y20481D1*
X40251Y20217D1*
X40027Y19993D1*
X39962Y19944D1*
X40092Y19838D1*
X40304Y19602D1*
X40465Y19329D1*
X40567Y19029D1*
X40607Y18674D1*
X40575Y18358D1*
X40481Y18056D1*
X40328Y17779D1*
X40122Y17537D1*
X39872Y17342D1*
X39588Y17202D1*
X39282Y17120D1*
X38965Y17102D1*
X38652Y17148D1*
X38353Y17256D1*
X38083Y17421D1*
X37851Y17637D1*
X37765Y17759D1*
X34974Y17751D1*
X34662Y17805D1*
X34351Y17992D1*
X30680Y21662D1*
X30386Y21714D1*
X30200Y21806D1*
X27953Y21803D1*
X27640Y21852D1*
X27351Y22001D1*
X27005Y22327D1*
X23364Y25969D1*
X23316Y25834D1*
X23148Y25565D1*
X22925Y25340D1*
X22657Y25170D1*
X22359Y25063D1*
X22045Y25025D1*
X21729Y25058D1*
X21429Y25159D1*
X21159Y25324D1*
X20932Y25545D1*
X20760Y25811D1*
X20650Y26109D1*
X20609Y26423D1*
X20639Y26738D1*
X20738Y27039D1*
X20901Y27311D1*
X21120Y27540D1*
X21384Y27715D1*
X21560Y27781D1*
X18474Y30859D1*
X16544Y32788D1*
X15987Y32791D1*
X15680Y32865D1*
X15512Y32988D1*
X14962Y33538D1*
X14797Y33808D1*
X14765Y34014D1*
X14767Y34803D1*
X14751Y35082D1*
X12055D1*
X11718Y35037D1*
X11462Y34931D1*
X11240Y34760D1*
X11069Y34537D1*
X10962Y34278D1*
X10918Y33940D1*
Y31232D1*
X11128Y31433D1*
X11398Y31598D1*
X11603Y31630D1*
X12381D1*
X12689Y31556D1*
X12857Y31433D1*
X13407Y30883D1*
X13572Y30613D1*
X13604Y30407D1*
Y29630D1*
X13529Y29322D1*
X13407Y29154D1*
X12857Y28604D1*
X12587Y28439D1*
X12381Y28407D1*
X11603D1*
X11296Y28481D1*
X11128Y28604D1*
X10924Y28807D1*
X10918Y26787D1*
X11174Y27047D1*
X11336Y27146D1*
X11519Y27196D1*
X12173Y27198D1*
X12357Y27154D1*
X12522Y27059D1*
X12987Y26598D1*
X13086Y26436D1*
X13136Y26253D1*
X13138Y25599D1*
X13094Y25414D1*
X12999Y25250D1*
X12538Y24785D1*
X12376Y24686D1*
X12248Y24646D1*
X12417Y24586D1*
X12585Y24464D1*
X12944Y24105D1*
X13109Y23835D1*
X13141Y23630D1*
Y23122D1*
X13066Y22815D1*
X12944Y22647D1*
X12585Y22288D1*
X12315Y22123D1*
X12110Y22091D1*
X11602D1*
X11295Y22166D1*
X11127Y22288D1*
X10923Y22492D1*
X10918Y20576D1*
X11148Y20635D1*
X11349Y20650D1*
X12565Y20645D1*
X12875Y20580D1*
X13160Y20443D1*
X13405Y20242D1*
X13595Y19988D1*
X13719Y19697D1*
X13772Y19327D1*
X13734Y19013D1*
X13622Y18716D1*
X13443Y18455D1*
X13207Y18243D1*
X12928Y18094D1*
X12621Y18016D1*
X12449Y18004D1*
X11205Y18012D1*
X10925Y18077D1*
X10918Y14593D1*
Y13174D1*
X11148Y13235D1*
X11349Y13250D1*
X12565Y13245D1*
X12875Y13180D1*
X13160Y13043D1*
X13405Y12842D1*
X13595Y12588D1*
X13719Y12297D1*
X13772Y11927D1*
X13734Y11613D1*
X13622Y11316D1*
X13443Y11055D1*
X13309Y10918D1*
X15204D1*
X15073Y11034D1*
X14889Y11291D1*
X14771Y11585D1*
X14726Y11899D1*
X14757Y12214D1*
X14862Y12513D1*
X15036Y12778D1*
X15267Y12994D1*
X15543Y13150D1*
X15848Y13235D1*
X16176Y13250D1*
X16622D1*
X16463Y13476D1*
X16386Y13657D1*
X16110Y13670D1*
X15866Y13737D1*
X15642Y13856D1*
X15448Y14020D1*
X15295Y14221D1*
X15188Y14451D1*
X15133Y14699D1*
Y14952D1*
X15187Y15200D1*
X15293Y15430D1*
X15442Y15628D1*
X15235Y15933D1*
X15142Y16236D1*
X15133Y16552D1*
X15208Y16859D1*
X15364Y17135D1*
X15587Y17359D1*
X15862Y17516D1*
X16169Y17593D1*
X16377Y17588D1*
X16564Y17935D1*
X16627Y17998D1*
X16049Y18014D1*
X15905Y18012D1*
X15596Y18084D1*
X15314Y18227D1*
X15073Y18434D1*
X14889Y18691D1*
X14771Y18985D1*
X14726Y19299D1*
X14757Y19614D1*
X14862Y19913D1*
X15036Y20178D1*
X15267Y20394D1*
X15543Y20550D1*
X15848Y20635D1*
X16049Y20650D1*
X17265Y20645D1*
X17575Y20580D1*
X17860Y20443D1*
X18105Y20242D1*
X18295Y19988D1*
X18419Y19697D1*
X18472Y19327D1*
X18434Y19013D1*
X18322Y18716D1*
X18143Y18455D1*
X17974Y18303D1*
X18214Y18150D1*
X18364D1*
X18675Y18096D1*
X18986Y17909D1*
X21296Y15600D1*
X24334D1*
X24645Y15546D1*
X24956Y15359D1*
X26539Y13778D1*
X26721Y13519D1*
X26808Y13167D1*
X26809Y12183D1*
X26997Y11836D1*
X27059Y11458D1*
X27016Y11144D1*
X26919Y10917D1*
X43105Y10924D1*
X42887Y11159D1*
X42804Y11330D1*
X42771Y11537D1*
X42783Y12429D1*
X42845Y12609D1*
X42968Y12779D1*
X43607Y13400D1*
X43778Y13484D1*
X43985Y13517D1*
X44877Y13505D1*
X45067Y13437D1*
X45082Y14212D1*
X44956Y14165D1*
X44751Y14133D1*
X43985D1*
X43678Y14208D1*
X43510Y14330D1*
X42968Y14871D1*
X42803Y15142D1*
X42771Y15347D1*
Y16113D1*
X42846Y16420D1*
X42968Y16588D1*
X43510Y17130D1*
X43780Y17295D1*
X43985Y17327D1*
X44751D1*
X45064Y17248D1*
X45082Y17754D1*
X45083Y28559D1*
X44879Y28529D1*
X44113D1*
X43806Y28604D1*
X43637Y28726D1*
X43096Y29267D1*
X42931Y29538D1*
X42899Y29743D1*
Y30509D1*
X42974Y30816D1*
X43096Y30984D1*
X43637Y31526D1*
X43908Y31691D1*
X44113Y31723D1*
X45083Y31724D1*
Y32369D1*
X44879Y32339D1*
X44113D1*
X43806Y32414D1*
X43637Y32536D1*
X43096Y33077D1*
X42931Y33348D1*
X42899Y33553D1*
Y34319D1*
X42974Y34626D1*
X43096Y34794D1*
X43384Y35082D1*
X17916D1*
X17956Y34997D1*
X17988Y34791D1*
Y34474D1*
X27440Y16991D2*
X27137Y16786D1*
X26839Y16679D1*
X26525Y16641D1*
X26209Y16674D1*
X25909Y16775D1*
X25639Y16940D1*
X25412Y17161D1*
X25240Y17427D1*
X25130Y17725D1*
X25089Y18039D1*
X25119Y18354D1*
X25218Y18655D1*
X25381Y18927D1*
X25600Y19156D1*
X25864Y19331D1*
X26160Y19443D1*
X26474Y19486D1*
X26790Y19459D1*
X27092Y19363D1*
X27430Y19142D1*
X27720Y19331D1*
X28016Y19443D1*
X28330Y19486D1*
X28646Y19459D1*
X28948Y19363D1*
X29221Y19203D1*
X29452Y18986D1*
X29629Y18723D1*
X29744Y18428D1*
X29791Y18064D1*
X29756Y17749D1*
X29652Y17450D1*
X29484Y17181D1*
X29261Y16956D1*
X28993Y16786D1*
X28695Y16679D1*
X28381Y16641D1*
X28065Y16674D1*
X27765Y16775D1*
X27445Y16989D1*
X15231Y26588D2*
X15005Y26561D1*
X14689Y26594D1*
X14389Y26695D1*
X14119Y26860D1*
X13892Y27081D1*
X13720Y27347D1*
X13610Y27645D1*
X13569Y27959D1*
X13599Y28274D1*
X13698Y28575D1*
X13861Y28847D1*
X14080Y29076D1*
X14344Y29251D1*
X14640Y29363D1*
X14954Y29406D1*
X15270Y29380D1*
X15572Y29283D1*
X15845Y29123D1*
X16076Y28906D1*
X16253Y28643D1*
X16368Y28348D1*
X16415Y27984D1*
X16390Y27758D1*
X18724Y25416D1*
X19346Y25415D1*
X19464Y25524D1*
X19740Y25681D1*
X20047Y25758D1*
X20363Y25750D1*
X20666Y25658D1*
X20933Y25488D1*
X21145Y25253D1*
X21286Y24970D1*
X21349Y24592D1*
X21306Y24278D1*
X21181Y23988D1*
X20983Y23741D1*
X20726Y23556D1*
X20429Y23447D1*
X20113Y23421D1*
X19803Y23480D1*
X19519Y23621D1*
X19349Y23772D1*
X18384Y23769D1*
X18074Y23830D1*
X17802Y24010D1*
X15227Y26585D1*
X18670Y13964D2*
X18629Y13714D1*
X18535Y13478D1*
X18393Y13268D1*
X18209Y13094D1*
X17979Y12957D1*
X18188Y12746D1*
X18353Y12475D1*
X18449Y12173D1*
X18470Y11864D1*
X18417Y11551D1*
X18291Y11261D1*
X18100Y11008D1*
X18003Y10917D1*
X24848Y10918D1*
X24729Y11267D1*
X24720Y11583D1*
X24796Y11890D1*
X24958Y12173D1*
X24963Y12738D1*
X23950Y13756D1*
X20913Y13755D1*
X20602Y13809D1*
X20291Y13996D1*
X18668Y15617D1*
X18629Y15314D1*
X18504Y15023D1*
X18349Y14830D1*
X18502Y14635D1*
X18609Y14405D1*
X18664Y14157D1*
X18670Y13964D1*
X33703Y31541D2*
X33382Y31414D1*
X33067Y31388D1*
X32756Y31448D1*
X32472Y31588D1*
X32236Y31799D1*
X32065Y32066D1*
X31972Y32368D1*
X31963Y32684D1*
X32039Y32992D1*
X32194Y33267D1*
X32417Y33492D1*
X32693Y33648D1*
X33000Y33725D1*
X33316Y33717D1*
X33677Y33588D1*
X38693Y33596D1*
X38841Y33664D1*
X39148Y33741D1*
X39465Y33733D1*
X39767Y33641D1*
X40035Y33471D1*
X40247Y33236D1*
X40388Y32953D1*
X40451Y32575D1*
X40408Y32261D1*
X40283Y31971D1*
X40085Y31724D1*
X39828Y31539D1*
X39531Y31430D1*
X39215Y31404D1*
X38904Y31463D1*
X38718Y31555D1*
X33714Y31538D1*
X24939Y33302D2*
X24824Y33007D1*
X24641Y32749D1*
X24399Y32544D1*
X24115Y32404D1*
X23805Y32338D1*
X23489Y32350D1*
X23185Y32440D1*
X22912Y32601D1*
X22688Y32824D1*
X22524Y33095D1*
X22432Y33398D1*
X22417Y33714D1*
X22480Y34025D1*
X22618Y34310D1*
X22820Y34553D1*
X23077Y34739D1*
X23371Y34857D1*
X23685Y34898D1*
X23999Y34862D1*
X24296Y34750D1*
X24555Y34568D1*
X24762Y34329D1*
X24904Y34046D1*
X24978Y33616D1*
X24939Y33302D1*
X29765D2*
X29650Y33007D1*
X29467Y32749D1*
X29225Y32544D1*
X28941Y32404D1*
X28631Y32338D1*
X28315Y32350D1*
X28011Y32440D1*
X27738Y32601D1*
X27514Y32824D1*
X27350Y33095D1*
X27258Y33398D1*
X27243Y33714D1*
X27306Y34025D1*
X27444Y34310D1*
X27646Y34553D1*
X27903Y34739D1*
X28197Y34857D1*
X28511Y34898D1*
X28825Y34862D1*
X29122Y34750D1*
X29381Y34568D1*
X29588Y34329D1*
X29730Y34046D1*
X29804Y33616D1*
X29765Y33302D1*
X42772Y11920D2*
D10*
X44368D1*
X39034Y21214D2*
X40606D1*
X17499Y14027D2*
X18670D1*
X15127Y14827D2*
X16299D1*
X14727Y11927D2*
X18470D1*
X11856Y25916D2*
X13140D1*
G36*
X15438Y34791D2*
X15987Y35341D1*
X16765D1*
X17315Y34791D1*
Y34014D1*
X16765Y33464D1*
X15987D1*
X15438Y34014D1*
Y34791D1*
G37*
G36*
X11053Y30407D2*
X11603Y30957D1*
X12381D1*
X12931Y30407D1*
Y29630D1*
X12381Y29080D1*
X11603D1*
X11053Y29630D1*
Y30407D1*
G37*
G36*
X45292Y12303D2*
Y11537D1*
X44751Y10996D1*
X43985D1*
X43444Y11537D1*
Y12303D1*
X43985Y12844D1*
X44751D1*
X45292Y12303D1*
G37*
G36*
Y16113D2*
Y15347D1*
X44751Y14806D1*
X43985D1*
X43444Y15347D1*
Y16113D1*
X43985Y16654D1*
X44751D1*
X45292Y16113D1*
G37*
D24*
X39034Y26294D3*
D25*
Y23754D3*
Y21214D3*
Y18674D3*
G36*
X43572Y33553D2*
Y34319D1*
X44113Y34860D1*
X44879D1*
X45420Y34319D1*
Y33553D1*
X44879Y33012D1*
X44113D1*
X43572Y33553D1*
G37*
G36*
Y29743D2*
Y30509D1*
X44113Y31050D1*
X44879D1*
X45420Y30509D1*
Y29743D1*
X44879Y29202D1*
X44113D1*
X43572Y29743D1*
G37*
D26*
X24144Y29584D3*
X22032Y26448D3*
X26512Y18064D3*
X28368D3*
X14992Y27984D3*
D27*
X17499Y14027D3*
X16299Y14827D3*
X17499Y15627D3*
X16299Y16427D3*
X17499Y17227D3*
D28*
X16599Y11927D3*
Y19327D3*
X11899Y11927D3*
Y19327D3*
G36*
X12110Y23988D2*
X12468Y23630D1*
Y23122D1*
X12110Y22764D1*
X11602D1*
X11244Y23122D1*
Y23630D1*
X11602Y23988D1*
X12110D1*
G37*
G36*
Y26528D2*
X12468Y26169D1*
Y25662D1*
X12110Y25304D1*
X11602D1*
X11244Y25662D1*
Y26169D1*
X11602Y26528D1*
X12110D1*
G37*
D34*
X23696Y33616D3*
X28522D3*
M02*
